<?xml version="1.0" encoding="UTF-8"?>
<svg id="Layer_1" xmlns="http://www.w3.org/2000/svg" version="1.1" viewBox="0 0 527.83 213.26">
  <!-- Generator: Adobe Illustrator 29.7.1, SVG Export Plug-In . SVG Version: 2.1.1 Build 8)  -->
  <defs>
    <style>
      .st0 {
        fill: #fff;
      }
    </style>
  </defs>
  <path class="st0" d="M76.39,38.49h19.22v2.74h-16.22v9.08h14.51v2.74h-14.51v9.31h16.41v2.74h-19.42v-26.6Z"/>
  <path class="st0" d="M99.72,62.58l1.48-2.09c2.13,1.63,4.48,2.51,6.8,2.51s4.06-1.18,4.06-3.12v-.08c0-1.94-2.32-2.74-4.9-3.46-3.04-.91-6.5-1.9-6.5-5.55v-.08c0-3.38,2.81-5.62,6.69-5.62,2.43,0,5.05.84,7.07,2.17l-1.33,2.2c-1.82-1.18-3.88-1.9-5.81-1.9-2.32,0-3.8,1.22-3.8,2.85v.08c0,1.86,2.43,2.58,5.05,3.38,3.04.91,6.31,2.09,6.31,5.62v.08c0,3.72-3.08,5.89-6.99,5.89-2.85,0-5.89-1.1-8.13-2.89Z"/>
  <path class="st0" d="M120.92,59.88v-11.85h-2.74v-2.58h2.74v-5.93h2.93v5.93h6.23v2.58h-6.23v11.47c0,2.43,1.33,3.27,3.31,3.27,1.03,0,1.82-.19,2.85-.68v2.51c-1.03.57-2.13.84-3.53.84-3.19,0-5.55-1.56-5.55-5.55Z"/>
  <path class="st0" d="M133.77,59.39v-.08c0-4.1,3.42-6.34,8.4-6.34,2.55,0,4.25.34,6.04.84v-.68c0-3.53-2.17-5.36-5.85-5.36-2.32,0-4.14.57-5.96,1.44l-.87-2.39c2.17-1.03,4.26-1.63,7.14-1.63s4.9.72,6.34,2.17c1.33,1.33,2.01,3.27,2.01,5.74v12.01h-2.81v-2.96c-1.37,1.79-3.61,3.38-7.1,3.38s-7.33-2.05-7.33-6.12ZM148.24,57.87v-1.9c-1.48-.42-3.34-.83-5.78-.83-3.69,0-5.74,1.6-5.74,4.07v.08c0,2.47,2.32,3.91,4.94,3.91,3.65,0,6.57-2.2,6.57-5.32ZM145.35,36.97l3.04,1.41-4.33,4.1h-2.28l3.57-5.51Z"/>
  <path class="st0" d="M155.62,62.58l1.48-2.09c2.13,1.63,4.48,2.51,6.8,2.51s4.07-1.18,4.07-3.12v-.08c0-1.94-2.32-2.74-4.9-3.46-3.04-.91-6.5-1.9-6.5-5.55v-.08c0-3.38,2.81-5.62,6.69-5.62,2.43,0,5.05.84,7.07,2.17l-1.33,2.2c-1.82-1.18-3.88-1.9-5.81-1.9-2.32,0-3.8,1.22-3.8,2.85v.08c0,1.86,2.43,2.58,5.05,3.38,3.04.91,6.31,2.09,6.31,5.62v.08c0,3.72-3.08,5.89-6.99,5.89-2.85,0-5.89-1.1-8.13-2.89Z"/>
  <path class="st0" d="M186.09,59.39v-.08c0-4.1,3.42-6.34,8.4-6.34,2.55,0,4.25.34,6.04.84v-.68c0-3.53-2.17-5.36-5.85-5.36-2.32,0-4.14.57-5.96,1.44l-.87-2.39c2.17-1.03,4.26-1.63,7.14-1.63s4.9.72,6.34,2.17c1.33,1.33,2.01,3.27,2.01,5.74v12.01h-2.81v-2.96c-1.37,1.79-3.61,3.38-7.11,3.38s-7.33-2.05-7.33-6.12ZM200.57,57.87v-1.9c-1.48-.42-3.34-.83-5.78-.83-3.69,0-5.74,1.6-5.74,4.07v.08c0,2.47,2.32,3.91,4.94,3.91,3.65,0,6.57-2.2,6.57-5.32Z"/>
  <path class="st0" d="M219.34,62.58l1.48-2.09c2.13,1.63,4.48,2.51,6.8,2.51s4.07-1.18,4.07-3.12v-.08c0-1.94-2.32-2.74-4.9-3.46-3.04-.91-6.5-1.9-6.5-5.55v-.08c0-3.38,2.81-5.62,6.69-5.62,2.43,0,5.05.84,7.07,2.17l-1.33,2.2c-1.82-1.18-3.88-1.9-5.81-1.9-2.32,0-3.8,1.22-3.8,2.85v.08c0,1.86,2.43,2.58,5.05,3.38,3.04.91,6.31,2.09,6.31,5.62v.08c0,3.72-3.08,5.89-6.99,5.89-2.85,0-5.89-1.1-8.13-2.89Z"/>
  <path class="st0" d="M238.68,55.36v-.08c0-5.58,4.29-10.26,10.26-10.26s10.22,4.63,10.22,10.18v.08c0,5.58-4.37,10.26-10.3,10.26s-10.18-4.64-10.18-10.18ZM256.16,55.36v-.08c0-4.22-3.15-7.67-7.29-7.67s-7.18,3.46-7.18,7.6v.08c0,4.22,3.12,7.64,7.26,7.64s7.22-3.46,7.22-7.56Z"/>
  <path class="st0" d="M264.71,37.35h2.93v27.74h-2.93v-27.74Z"/>
  <path class="st0" d="M273.22,55.36v-.08c0-5.58,4.29-10.26,10.26-10.26s10.22,4.63,10.22,10.18v.08c0,5.58-4.37,10.26-10.3,10.26s-10.18-4.64-10.18-10.18ZM290.7,55.36v-.08c0-4.22-3.15-7.67-7.29-7.67s-7.18,3.46-7.18,7.6v.08c0,4.22,3.12,7.64,7.26,7.64s7.22-3.46,7.22-7.56Z"/>
  <path class="st0" d="M310.08,57.64v-12.2h2.92v11.47c0,3.65,1.94,5.93,5.43,5.93s5.89-2.47,5.89-6.16v-11.25h2.89v19.64h-2.89v-3.42c-1.33,2.13-3.34,3.84-6.73,3.84-4.71,0-7.52-3.19-7.52-7.87Z"/>
  <path class="st0" d="M333.79,45.44h2.93v3.42c1.33-2.13,3.34-3.84,6.72-3.84,4.71,0,7.52,3.19,7.52,7.86v12.2h-2.93v-11.47c0-3.65-1.94-5.93-5.43-5.93s-5.89,2.47-5.89,6.16v11.25h-2.93v-19.64Z"/>
  <path class="st0" d="M368.6,45.44h2.93v3.95c1.63-2.32,3.88-4.37,7.52-4.37,4.71,0,9.38,3.72,9.38,10.18v.08c0,6.38-4.64,10.22-9.38,10.22-3.65,0-6-1.94-7.52-4.18v9.84h-2.93v-25.72ZM385.43,55.32v-.08c0-4.67-3.15-7.6-6.92-7.6s-7.1,3.12-7.1,7.56v.08c0,4.56,3.46,7.6,7.1,7.6s6.92-2.81,6.92-7.56Z"/>
  <path class="st0" d="M392.35,59.39v-.08c0-4.1,3.42-6.34,8.4-6.34,2.55,0,4.25.34,6.04.84v-.68c0-3.53-2.17-5.36-5.85-5.36-2.32,0-4.14.57-5.96,1.44l-.87-2.39c2.17-1.03,4.26-1.63,7.14-1.63s4.9.72,6.34,2.17c1.33,1.33,2.01,3.27,2.01,5.74v12.01h-2.81v-2.96c-1.37,1.79-3.61,3.38-7.1,3.38s-7.33-2.05-7.33-6.12ZM406.83,57.87v-1.9c-1.48-.42-3.34-.83-5.78-.83-3.69,0-5.74,1.6-5.74,4.07v.08c0,2.47,2.32,3.91,4.94,3.91,3.65,0,6.57-2.2,6.57-5.32Z"/>
  <path class="st0" d="M414.2,62.58l1.48-2.09c2.13,1.63,4.48,2.51,6.8,2.51s4.07-1.18,4.07-3.12v-.08c0-1.94-2.32-2.74-4.9-3.46-3.04-.91-6.5-1.9-6.5-5.55v-.08c0-3.38,2.81-5.62,6.69-5.62,2.43,0,5.05.84,7.07,2.17l-1.33,2.2c-1.82-1.18-3.88-1.9-5.81-1.9-2.32,0-3.8,1.22-3.8,2.85v.08c0,1.86,2.43,2.58,5.05,3.38,3.04.91,6.31,2.09,6.31,5.62v.08c0,3.72-3.08,5.89-6.99,5.89-2.85,0-5.89-1.1-8.13-2.89Z"/>
  <path class="st0" d="M433.54,55.36v-.08c0-5.58,4.29-10.26,10.26-10.26s10.22,4.63,10.22,10.18v.08c0,5.58-4.37,10.26-10.3,10.26s-10.18-4.64-10.18-10.18ZM451.02,55.36v-.08c0-4.22-3.15-7.67-7.29-7.67s-7.18,3.46-7.18,7.6v.08c0,4.22,3.12,7.64,7.26,7.64s7.22-3.46,7.22-7.56Z"/>
  <path class="st0" d="M51.69,103.32v-.08c0-6.38,4.67-10.22,9.38-10.22,3.65,0,6,1.94,7.52,4.18v-11.85h2.93v27.74h-2.93v-3.95c-1.63,2.36-3.88,4.37-7.52,4.37-4.71,0-9.38-3.72-9.38-10.18ZM68.71,103.28v-.08c0-4.52-3.46-7.56-7.11-7.56s-6.92,2.81-6.92,7.56v.08c0,4.67,3.15,7.6,6.92,7.6s7.11-3.08,7.11-7.6Z"/>
  <path class="st0" d="M76.84,103.32v-.08c0-5.66,3.95-10.22,9.42-10.22,5.81,0,9.16,4.63,9.16,10.37,0,.42,0,.61-.04.95h-15.58c.42,4.25,3.42,6.65,6.92,6.65,2.74,0,4.56-1.1,6.19-2.77l1.82,1.63c-1.98,2.24-4.33,3.69-8.09,3.69-5.36,0-9.8-4.14-9.8-10.22ZM92.46,102.18c-.3-3.53-2.32-6.69-6.27-6.69-3.46,0-5.96,2.89-6.38,6.69h12.65Z"/>
  <path class="st0" d="M110.74,103.36v-.08c0-5.58,4.29-10.26,10.07-10.26,3.72,0,6,1.52,7.87,3.5l-1.94,2.05c-1.56-1.63-3.27-2.96-5.96-2.96-3.99,0-7.03,3.34-7.03,7.6v.08c0,4.26,3.12,7.64,7.22,7.64,2.54,0,4.45-1.25,6-2.92l1.86,1.75c-1.98,2.24-4.33,3.8-8.02,3.8-5.78,0-10.07-4.67-10.07-10.18Z"/>
  <path class="st0" d="M133.65,93.44h2.93v5.13c1.44-3.27,4.29-5.58,8.02-5.47v3.15h-.23c-4.29,0-7.79,3.08-7.79,9v7.83h-2.93v-19.64Z"/>
  <path class="st0" d="M146.99,103.32v-.08c0-5.66,3.95-10.22,9.42-10.22,5.81,0,9.16,4.63,9.16,10.37,0,.42,0,.61-.04.95h-15.58c.42,4.25,3.42,6.65,6.92,6.65,2.74,0,4.56-1.1,6.19-2.77l1.82,1.63c-1.98,2.24-4.33,3.69-8.09,3.69-5.36,0-9.8-4.14-9.8-10.22ZM162.6,102.18c-.3-3.53-2.32-6.69-6.27-6.69-3.46,0-5.96,2.89-6.38,6.69h12.65Z"/>
  <path class="st0" d="M169.22,107.39v-.08c0-4.1,3.42-6.34,8.4-6.34,2.55,0,4.25.34,6.04.84v-.68c0-3.53-2.17-5.36-5.85-5.36-2.32,0-4.14.57-5.96,1.44l-.87-2.39c2.17-1.03,4.26-1.63,7.14-1.63s4.9.72,6.34,2.17c1.33,1.33,2.01,3.27,2.01,5.74v12.01h-2.81v-2.96c-1.37,1.79-3.61,3.38-7.1,3.38s-7.33-2.05-7.33-6.12ZM183.7,105.87v-1.9c-1.48-.42-3.34-.83-5.78-.83-3.69,0-5.74,1.6-5.74,4.07v.08c0,2.47,2.32,3.91,4.94,3.91,3.65,0,6.57-2.2,6.57-5.32Z"/>
  <path class="st0" d="M192.7,93.44h2.93v5.13c1.44-3.27,4.29-5.58,8.02-5.47v3.15h-.23c-4.29,0-7.79,3.08-7.79,9v7.83h-2.93v-19.64Z"/>
  <path class="st0" d="M220.52,107.88v-11.85h-2.74v-2.58h2.74v-5.93h2.93v5.93h6.23v2.58h-6.23v11.47c0,2.43,1.33,3.27,3.31,3.27,1.03,0,1.82-.19,2.85-.68v2.51c-1.03.57-2.13.84-3.53.84-3.19,0-5.55-1.56-5.55-5.55Z"/>
  <path class="st0" d="M234.54,105.64v-12.2h2.92v11.47c0,3.65,1.94,5.93,5.43,5.93s5.89-2.47,5.89-6.16v-11.25h2.89v19.64h-2.89v-3.42c-1.33,2.13-3.34,3.84-6.73,3.84-4.71,0-7.52-3.19-7.52-7.87Z"/>
  <path class="st0" d="M268.4,99.87v-.08c0-7.56,5.89-13.75,13.94-13.75,4.75,0,7.71,1.29,10.45,3.65l-3.69,4.45c-2.01-1.71-3.91-2.7-6.95-2.7-4.25,0-7.64,3.76-7.64,8.28v.08c0,4.86,3.34,8.43,8.05,8.43,2.17,0,4.03-.53,5.51-1.6v-3.8h-5.89v-5.05h11.55v11.55c-2.74,2.32-6.5,4.22-11.36,4.22-8.28,0-13.98-5.78-13.98-13.68Z"/>
  <path class="st0" d="M298.19,99.87v-.08c0-7.56,5.96-13.75,14.17-13.75s14.1,6.12,14.1,13.68v.08c0,7.56-5.96,13.75-14.17,13.75s-14.1-6.12-14.1-13.68ZM320.34,99.87v-.08c0-4.56-3.34-8.36-8.05-8.36s-7.98,3.72-7.98,8.28v.08c0,4.56,3.34,8.36,8.05,8.36s7.98-3.72,7.98-8.28Z"/>
  <path class="st0" d="M339.08,86.3h5.39l11.4,26.79h-6.12l-2.43-5.96h-11.25l-2.43,5.96h-5.96l11.4-26.79ZM345.23,101.95l-3.53-8.62-3.53,8.62h7.07Z"/>
  <path class="st0" d="M362.75,91.89h-8.09v-5.39h22.04v5.39h-8.09v21.2h-5.85v-21.2Z"/>
  <path class="st0" d="M392.73,85.92h3.34v3.23h-3.34v-3.23ZM392.92,93.44h2.93v19.64h-2.93v-19.64Z"/>
  <path class="st0" d="M401.51,103.32v-.08c0-6.38,4.67-10.22,9.38-10.22,3.65,0,6,1.94,7.52,4.18v-11.85h2.93v27.74h-2.93v-3.95c-1.63,2.36-3.88,4.37-7.52,4.37-4.71,0-9.38-3.72-9.38-10.18ZM418.53,103.28v-.08c0-4.52-3.46-7.56-7.11-7.56s-6.92,2.81-6.92,7.56v.08c0,4.67,3.15,7.6,6.92,7.6s7.11-3.08,7.11-7.6Z"/>
  <path class="st0" d="M426.66,103.32v-.08c0-5.66,3.95-10.22,9.42-10.22,5.81,0,9.16,4.63,9.16,10.37,0,.42,0,.61-.04.95h-15.58c.42,4.25,3.42,6.65,6.92,6.65,2.74,0,4.56-1.1,6.19-2.77l1.82,1.63c-1.98,2.24-4.33,3.69-8.09,3.69-5.36,0-9.8-4.14-9.8-10.22ZM442.28,102.18c-.3-3.53-2.32-6.69-6.27-6.69-3.46,0-5.96,2.89-6.38,6.69h12.65Z"/>
  <path class="st0" d="M448.9,107.39v-.08c0-4.1,3.42-6.34,8.4-6.34,2.55,0,4.25.34,6.04.84v-.68c0-3.53-2.17-5.36-5.85-5.36-2.32,0-4.14.57-5.96,1.44l-.87-2.39c2.17-1.03,4.26-1.63,7.14-1.63s4.9.72,6.34,2.17c1.33,1.33,2.01,3.27,2.01,5.74v12.01h-2.81v-2.96c-1.37,1.79-3.61,3.38-7.1,3.38s-7.33-2.05-7.33-6.12ZM463.37,105.87v-1.9c-1.48-.42-3.34-.83-5.78-.83-3.69,0-5.74,1.6-5.74,4.07v.08c0,2.47,2.32,3.91,4.94,3.91,3.65,0,6.57-2.2,6.57-5.32Z"/>
  <path class="st0" d="M472.64,85.35h2.93v27.74h-2.93v-27.74Z"/>
  <path class="st0" d="M33.43,151.32v-.08c0-5.66,3.95-10.22,9.42-10.22,5.81,0,9.16,4.63,9.16,10.37,0,.42,0,.61-.04.95h-15.58c.42,4.25,3.42,6.65,6.92,6.65,2.74,0,4.56-1.1,6.19-2.77l1.82,1.63c-1.98,2.24-4.33,3.69-8.09,3.69-5.36,0-9.8-4.14-9.8-10.22ZM49.04,150.18c-.3-3.53-2.32-6.69-6.27-6.69-3.46,0-5.96,2.89-6.38,6.69h12.65Z"/>
  <path class="st0" d="M57.14,141.44h2.93v3.42c1.33-2.13,3.34-3.84,6.72-3.84,4.71,0,7.52,3.19,7.52,7.86v12.2h-2.93v-11.47c0-3.65-1.94-5.93-5.43-5.93s-5.89,2.47-5.89,6.16v11.25h-2.93v-19.64Z"/>
  <path class="st0" d="M92.21,133.35h2.93v27.74h-2.93v-27.74Z"/>
  <path class="st0" d="M100.46,155.39v-.08c0-4.1,3.42-6.34,8.4-6.34,2.55,0,4.25.34,6.04.84v-.68c0-3.53-2.17-5.36-5.85-5.36-2.32,0-4.14.57-5.96,1.44l-.87-2.39c2.17-1.03,4.26-1.63,7.14-1.63s4.9.72,6.34,2.17c1.33,1.33,2.01,3.27,2.01,5.74v12.01h-2.81v-2.96c-1.37,1.79-3.61,3.38-7.1,3.38s-7.33-2.05-7.33-6.12ZM114.94,153.87v-1.9c-1.48-.42-3.34-.83-5.78-.83-3.69,0-5.74,1.6-5.74,4.07v.08c0,2.47,2.32,3.91,4.94,3.91,3.65,0,6.57-2.2,6.57-5.32Z"/>
  <path class="st0" d="M133.71,158.58l1.48-2.09c2.13,1.63,4.48,2.51,6.8,2.51s4.06-1.18,4.06-3.12v-.08c0-1.94-2.32-2.74-4.9-3.46-3.04-.91-6.5-1.9-6.5-5.55v-.08c0-3.38,2.81-5.62,6.69-5.62,2.43,0,5.05.84,7.07,2.17l-1.33,2.2c-1.82-1.18-3.88-1.9-5.81-1.9-2.32,0-3.8,1.22-3.8,2.85v.08c0,1.86,2.43,2.58,5.05,3.38,3.04.91,6.31,2.09,6.31,5.62v.08c0,3.72-3.08,5.89-6.99,5.89-2.85,0-5.89-1.1-8.13-2.89Z"/>
  <path class="st0" d="M154.34,133.92h3.34v3.23h-3.34v-3.23ZM154.53,141.44h2.93v19.64h-2.93v-19.64Z"/>
  <path class="st0" d="M164.03,164.51l1.33-2.28c2.28,1.63,4.71,2.51,7.56,2.51,4.37,0,7.14-2.39,7.14-6.99v-2.32c-1.71,2.28-4.1,4.14-7.71,4.14-4.71,0-9.23-3.57-9.23-9.2v-.08c0-5.74,4.52-9.27,9.23-9.27,3.69,0,6.04,1.82,7.67,3.95v-3.53h2.93v16.22c0,3.04-.87,5.32-2.51,6.95-1.79,1.79-4.33,2.62-7.49,2.62s-6.31-.91-8.93-2.74ZM180.14,150.34v-.08c0-4.03-3.5-6.65-7.22-6.65s-6.8,2.58-6.8,6.61v.08c0,3.95,3.15,6.69,6.8,6.69s7.22-2.7,7.22-6.65Z"/>
  <path class="st0" d="M189.19,153.64v-12.2h2.92v11.47c0,3.65,1.94,5.93,5.43,5.93s5.89-2.47,5.89-6.16v-11.25h2.89v19.64h-2.89v-3.42c-1.33,2.13-3.34,3.84-6.73,3.84-4.71,0-7.52-3.19-7.52-7.87Z"/>
  <path class="st0" d="M212.98,133.92h3.34v3.23h-3.34v-3.23ZM213.16,141.44h2.93v19.64h-2.93v-19.64Z"/>
  <path class="st0" d="M221.68,151.32v-.08c0-5.66,3.95-10.22,9.42-10.22,5.81,0,9.16,4.63,9.16,10.37,0,.42,0,.61-.04.95h-15.58c.42,4.25,3.42,6.65,6.92,6.65,2.74,0,4.56-1.1,6.19-2.77l1.82,1.63c-1.98,2.24-4.33,3.69-8.09,3.69-5.36,0-9.8-4.14-9.8-10.22ZM237.29,150.18c-.3-3.53-2.32-6.69-6.27-6.69-3.46,0-5.96,2.89-6.38,6.69h12.65Z"/>
  <path class="st0" d="M245.39,141.44h2.93v3.42c1.33-2.13,3.34-3.84,6.72-3.84,4.71,0,7.52,3.19,7.52,7.86v12.2h-2.93v-11.47c0-3.65-1.94-5.93-5.43-5.93s-5.89,2.47-5.89,6.16v11.25h-2.93v-19.64Z"/>
  <path class="st0" d="M269.82,155.88v-11.85h-2.74v-2.58h2.74v-5.93h2.93v5.93h6.23v2.58h-6.23v11.47c0,2.43,1.33,3.27,3.31,3.27,1.03,0,1.82-.19,2.85-.68v2.51c-1.03.57-2.13.84-3.53.84-3.19,0-5.55-1.56-5.55-5.55Z"/>
  <path class="st0" d="M282.36,151.32v-.08c0-5.66,3.95-10.22,9.42-10.22,5.81,0,9.16,4.63,9.16,10.37,0,.42,0,.61-.04.95h-15.58c.42,4.25,3.42,6.65,6.92,6.65,2.74,0,4.56-1.1,6.19-2.77l1.82,1.63c-1.98,2.24-4.33,3.69-8.09,3.69-5.36,0-9.8-4.14-9.8-10.22ZM297.98,150.18c-.3-3.53-2.32-6.69-6.27-6.69-3.46,0-5.96,2.89-6.38,6.69h12.65Z"/>
  <path class="st0" d="M315.99,155.39v-.08c0-4.1,3.42-6.34,8.4-6.34,2.55,0,4.25.34,6.04.84v-.68c0-3.53-2.17-5.36-5.85-5.36-2.32,0-4.14.57-5.96,1.44l-.87-2.39c2.17-1.03,4.26-1.63,7.14-1.63s4.9.72,6.34,2.17c1.33,1.33,2.01,3.27,2.01,5.74v12.01h-2.81v-2.96c-1.37,1.79-3.61,3.38-7.11,3.38s-7.33-2.05-7.33-6.12ZM330.47,153.87v-1.9c-1.48-.42-3.34-.83-5.78-.83-3.69,0-5.74,1.6-5.74,4.07v.08c0,2.47,2.32,3.91,4.94,3.91,3.65,0,6.57-2.2,6.57-5.32Z"/>
  <path class="st0" d="M338.26,151.36v-.08c0-5.58,4.29-10.26,10.07-10.26,3.72,0,6,1.52,7.87,3.5l-1.94,2.05c-1.56-1.63-3.27-2.96-5.96-2.96-3.99,0-7.03,3.34-7.03,7.6v.08c0,4.26,3.12,7.64,7.22,7.64,2.54,0,4.45-1.25,6-2.92l1.86,1.75c-1.98,2.24-4.33,3.8-8.02,3.8-5.78,0-10.07-4.67-10.07-10.18Z"/>
  <path class="st0" d="M362.2,155.88v-11.85h-2.74v-2.58h2.74v-5.93h2.93v5.93h6.23v2.58h-6.23v11.47c0,2.43,1.33,3.27,3.31,3.27,1.03,0,1.82-.19,2.85-.68v2.51c-1.03.57-2.13.84-3.53.84-3.19,0-5.55-1.56-5.55-5.55Z"/>
  <path class="st0" d="M376.6,133.92h3.34v3.23h-3.34v-3.23ZM376.79,141.44h2.93v19.64h-2.93v-19.64Z"/>
  <path class="st0" d="M384.58,141.44h3.23l6.61,16.3,6.65-16.3h3.15l-8.55,19.8h-2.58l-8.51-19.8Z"/>
  <path class="st0" d="M408.9,133.92h3.34v3.23h-3.34v-3.23ZM409.09,141.44h2.93v19.64h-2.93v-19.64Z"/>
  <path class="st0" d="M417.68,151.32v-.08c0-6.38,4.67-10.22,9.38-10.22,3.65,0,6,1.94,7.52,4.18v-11.85h2.93v27.74h-2.93v-3.95c-1.63,2.36-3.88,4.37-7.52,4.37-4.71,0-9.38-3.72-9.38-10.18ZM434.7,151.28v-.08c0-4.52-3.46-7.56-7.11-7.56s-6.92,2.81-6.92,7.56v.08c0,4.67,3.15,7.6,6.92,7.6s7.11-3.08,7.11-7.6Z"/>
  <path class="st0" d="M442.57,155.39v-.08c0-4.1,3.42-6.34,8.4-6.34,2.55,0,4.25.34,6.04.84v-.68c0-3.53-2.17-5.36-5.85-5.36-2.32,0-4.14.57-5.96,1.44l-.87-2.39c2.17-1.03,4.26-1.63,7.14-1.63s4.9.72,6.34,2.17c1.33,1.33,2.01,3.27,2.01,5.74v12.01h-2.81v-2.96c-1.37,1.79-3.61,3.38-7.1,3.38s-7.33-2.05-7.33-6.12ZM457.04,153.87v-1.9c-1.48-.42-3.34-.83-5.78-.83-3.69,0-5.74,1.6-5.74,4.07v.08c0,2.47,2.32,3.91,4.94,3.91,3.65,0,6.57-2.2,6.57-5.32Z"/>
  <path class="st0" d="M464.91,151.32v-.08c0-6.38,4.67-10.22,9.38-10.22,3.65,0,6,1.94,7.52,4.18v-11.85h2.93v27.74h-2.93v-3.95c-1.63,2.36-3.88,4.37-7.52,4.37-4.71,0-9.38-3.72-9.38-10.18ZM481.93,151.28v-.08c0-4.52-3.46-7.56-7.11-7.56s-6.92,2.81-6.92,7.56v.08c0,4.67,3.15,7.6,6.92,7.6s7.11-3.08,7.11-7.6Z"/>
  <path class="st0" d="M490.9,157.1h3.5v3.99h-3.5v-3.99Z"/>
</svg>