<?xml version="1.0" encoding="UTF-8"?>
<svg id="Layer_1" xmlns="http://www.w3.org/2000/svg" version="1.1" viewBox="0 0 527.83 282.83">
  <!-- Generator: Adobe Illustrator 29.7.1, SVG Export Plug-In . SVG Version: 2.1.1 Build 8)  -->
  <defs>
    <style>
      .st0 {
        fill: #fff;
      }
    </style>
  </defs>
  <path class="st0" d="M53.6,45.74h-15.38v-4.76h35.91v4.76h-15.38v40.86h-5.15v-40.86Z"/>
  <path class="st0" d="M77.06,52.91h5.02v8.8c2.48-5.6,7.36-9.58,13.75-9.38v5.41h-.39c-7.36,0-13.36,5.28-13.36,15.45v13.42h-5.02v-33.69Z"/>
  <path class="st0" d="M99.29,76.83v-.13c0-7.04,5.87-10.88,14.4-10.88,4.37,0,7.3.59,10.36,1.43v-1.17c0-6.06-3.71-9.19-10.04-9.19-3.98,0-7.1.98-10.23,2.48l-1.5-4.11c3.71-1.76,7.3-2.8,12.25-2.8s8.41,1.24,10.88,3.71c2.28,2.28,3.45,5.6,3.45,9.84v20.59h-4.82v-5.08c-2.35,3.06-6.19,5.8-12.19,5.8s-12.58-3.52-12.58-10.49ZM124.12,74.22v-3.26c-2.54-.72-5.74-1.43-9.91-1.43-6.32,0-9.84,2.74-9.84,6.97v.13c0,4.24,3.98,6.71,8.47,6.71,6.26,0,11.27-3.78,11.27-9.12Z"/>
  <path class="st0" d="M139.56,52.91h5.02v5.87c2.28-3.65,5.74-6.58,11.54-6.58,8.08,0,12.9,5.47,12.9,13.49v20.92h-5.02v-19.68c0-6.26-3.32-10.17-9.32-10.17s-10.1,4.24-10.1,10.56v19.29h-5.02v-33.69Z"/>
  <path class="st0" d="M176.91,82.3l2.54-3.58c3.65,2.8,7.69,4.3,11.67,4.3s6.97-2.02,6.97-5.34v-.13c0-3.32-3.98-4.69-8.41-5.93-5.21-1.56-11.14-3.26-11.14-9.51v-.13c0-5.8,4.82-9.65,11.47-9.65,4.17,0,8.67,1.43,12.12,3.71l-2.28,3.78c-3.13-2.02-6.65-3.26-9.97-3.26-3.98,0-6.52,2.08-6.52,4.89v.13c0,3.19,4.17,4.43,8.67,5.8,5.21,1.56,10.82,3.58,10.82,9.64v.13c0,6.39-5.28,10.1-11.99,10.1-4.89,0-10.1-1.89-13.95-4.95Z"/>
  <path class="st0" d="M212.17,52.91h5.02v5.67c2.28-3.39,5.21-6.39,10.88-6.39s8.99,2.87,10.82,6.71c2.48-3.71,5.93-6.71,11.86-6.71,7.82,0,12.51,5.15,12.51,13.55v20.85h-5.02v-19.68c0-6.52-3.26-10.17-8.73-10.17-5.02,0-9.32,3.78-9.32,10.43v19.42h-4.95v-19.81c0-6.32-3.26-10.04-8.67-10.04s-9.38,4.43-9.38,10.62v19.22h-5.02v-33.69Z"/>
  <path class="st0" d="M274.08,40h5.74v5.54h-5.74v-5.54ZM274.41,52.91h5.02v33.69h-5.02v-33.69Z"/>
  <path class="st0" d="M292.85,77.67v-20.33h-4.69v-4.43h4.69v-10.17h5.02v10.17h10.69v4.43h-10.69v19.68c0,4.17,2.28,5.6,5.67,5.6,1.76,0,3.13-.33,4.89-1.17v4.3c-1.76.98-3.65,1.43-6.06,1.43-5.47,0-9.51-2.67-9.51-9.51Z"/>
  <path class="st0" d="M317.55,40h5.74v5.54h-5.74v-5.54ZM317.88,52.91h5.02v33.69h-5.02v-33.69Z"/>
  <path class="st0" d="M332.48,69.85v-.13c0-9.71,6.78-17.53,16.16-17.53,9.97,0,15.71,7.95,15.71,17.79,0,.72,0,1.04-.07,1.63h-26.72c.72,7.3,5.87,11.41,11.86,11.41,4.69,0,7.82-1.89,10.62-4.76l3.13,2.8c-3.39,3.84-7.43,6.32-13.88,6.32-9.19,0-16.81-7.1-16.81-17.53ZM359.26,67.9c-.52-6.06-3.98-11.47-10.75-11.47-5.93,0-10.23,4.95-10.95,11.47h21.7Z"/>
  <path class="st0" d="M373.14,52.91h5.02v5.87c2.28-3.65,5.74-6.58,11.54-6.58,8.08,0,12.9,5.47,12.9,13.49v20.92h-5.02v-19.68c0-6.26-3.32-10.17-9.32-10.17s-10.1,4.24-10.1,10.56v19.29h-5.02v-33.69Z"/>
  <path class="st0" d="M411.34,69.85v-.13c0-10.95,8.02-17.53,16.1-17.53,6.26,0,10.3,3.32,12.9,7.17v-20.33h5.02v47.57h-5.02v-6.78c-2.8,4.04-6.65,7.49-12.9,7.49-8.08,0-16.1-6.39-16.1-17.46ZM440.53,69.79v-.13c0-7.75-5.93-12.97-12.19-12.97s-11.86,4.82-11.86,12.97v.13c0,8.02,5.41,13.03,11.86,13.03s12.19-5.28,12.19-13.03Z"/>
  <path class="st0" d="M454.48,69.92v-.13c0-9.58,7.36-17.6,17.6-17.6s17.53,7.95,17.53,17.46v.13c0,9.58-7.49,17.6-17.66,17.6s-17.47-7.95-17.47-17.47ZM484.46,69.92v-.13c0-7.23-5.41-13.17-12.51-13.17s-12.32,5.93-12.32,13.03v.13c0,7.23,5.34,13.1,12.45,13.1s12.38-5.93,12.38-12.97Z"/>
  <path class="st0" d="M22.61,118.21h5.73v5.54h-5.73v-5.54ZM22.93,131.12h5.02v33.69h-5.02v-33.69Z"/>
  <path class="st0" d="M39.62,131.12h5.02v5.87c2.28-3.65,5.74-6.58,11.54-6.58,8.08,0,12.9,5.47,12.9,13.49v20.92h-5.02v-19.68c0-6.26-3.32-10.17-9.32-10.17s-10.1,4.24-10.1,10.56v19.29h-5.02v-33.69Z"/>
  <path class="st0" d="M81.52,155.88v-20.33h-4.69v-4.43h4.69v-10.17h5.02v10.17h10.69v4.43h-10.69v19.68c0,4.17,2.28,5.6,5.67,5.6,1.76,0,3.13-.33,4.89-1.17v4.3c-1.76.98-3.65,1.43-6.06,1.43-5.47,0-9.51-2.67-9.51-9.51Z"/>
  <path class="st0" d="M103.03,148.06v-.13c0-9.71,6.78-17.53,16.16-17.53,9.97,0,15.71,7.95,15.71,17.79,0,.72,0,1.04-.07,1.63h-26.72c.72,7.3,5.87,11.41,11.86,11.41,4.69,0,7.82-1.89,10.62-4.76l3.13,2.8c-3.39,3.84-7.43,6.32-13.88,6.32-9.19,0-16.81-7.1-16.81-17.53ZM129.82,146.11c-.52-6.06-3.98-11.47-10.75-11.47-5.93,0-10.23,4.95-10.95,11.47h21.7Z"/>
  <path class="st0" d="M143.7,131.12h5.02v8.8c2.48-5.6,7.36-9.58,13.75-9.38v5.41h-.39c-7.36,0-13.36,5.28-13.36,15.45v13.42h-5.02v-33.69Z"/>
  <path class="st0" d="M165.92,155.03v-.13c0-7.04,5.87-10.88,14.4-10.88,4.37,0,7.3.59,10.36,1.43v-1.17c0-6.06-3.71-9.19-10.04-9.19-3.98,0-7.1.98-10.23,2.48l-1.5-4.11c3.71-1.76,7.3-2.8,12.25-2.8s8.41,1.24,10.88,3.71c2.28,2.28,3.45,5.6,3.45,9.84v20.59h-4.82v-5.08c-2.35,3.06-6.19,5.8-12.19,5.8s-12.58-3.52-12.58-10.49ZM190.75,152.43v-3.26c-2.54-.72-5.74-1.43-9.91-1.43-6.32,0-9.84,2.74-9.84,6.97v.13c0,4.24,3.98,6.71,8.47,6.71,6.26,0,11.27-3.78,11.27-9.12Z"/>
  <path class="st0" d="M204.12,148.13v-.13c0-9.58,7.36-17.6,17.27-17.6,6.39,0,10.3,2.61,13.49,6l-3.32,3.52c-2.67-2.8-5.6-5.08-10.23-5.08-6.84,0-12.06,5.74-12.06,13.03v.13c0,7.3,5.34,13.1,12.38,13.1,4.37,0,7.62-2.15,10.3-5.02l3.19,3c-3.39,3.84-7.43,6.52-13.75,6.52-9.91,0-17.27-8.02-17.27-17.47Z"/>
  <path class="st0" d="M240.35,148.13v-.13c0-9.58,7.36-17.6,17.27-17.6,6.39,0,10.3,2.61,13.49,6l-3.32,3.52c-2.67-2.8-5.61-5.08-10.23-5.08-6.84,0-12.06,5.74-12.06,13.03v.13c0,7.3,5.34,13.1,12.38,13.1,4.37,0,7.62-2.15,10.3-5.02l3.19,3c-3.39,3.84-7.43,6.52-13.75,6.52-9.91,0-17.27-8.02-17.27-17.47Z"/>
  <path class="st0" d="M279.78,118.21h5.74v5.54h-5.74v-5.54ZM280.11,131.12h5.02v33.69h-5.02v-33.69Z"/>
  <path class="st0" d="M294.71,148.13v-.13c0-9.58,7.36-17.6,17.6-17.6s17.53,7.95,17.53,17.46v.13c0,9.58-7.5,17.6-17.66,17.6s-17.47-7.95-17.47-17.47ZM324.69,148.13v-.13c0-7.23-5.41-13.17-12.51-13.17s-12.32,5.93-12.32,13.03v.13c0,7.23,5.34,13.1,12.45,13.1s12.38-5.93,12.38-12.97ZM316.34,116.58l5.21,2.41-7.43,7.04h-3.91l6.13-9.45Z"/>
  <path class="st0" d="M338.89,131.12h5.02v5.87c2.28-3.65,5.74-6.58,11.54-6.58,8.08,0,12.9,5.47,12.9,13.49v20.92h-5.02v-19.68c0-6.26-3.32-10.17-9.32-10.17s-10.1,4.24-10.1,10.56v19.29h-5.02v-33.69Z"/>
  <path class="st0" d="M396.51,148.13v-.13c0-9.58,7.36-17.6,17.27-17.6,6.39,0,10.3,2.61,13.49,6l-3.32,3.52c-2.67-2.8-5.6-5.08-10.23-5.08-6.84,0-12.06,5.74-12.06,13.03v.13c0,7.3,5.34,13.1,12.38,13.1,4.37,0,7.62-2.15,10.3-5.02l3.19,3c-3.39,3.84-7.43,6.52-13.75,6.52-9.91,0-17.27-8.02-17.27-17.47Z"/>
  <path class="st0" d="M432.74,148.13v-.13c0-9.58,7.36-17.6,17.6-17.6s17.53,7.95,17.53,17.46v.13c0,9.58-7.49,17.6-17.66,17.6s-17.47-7.95-17.47-17.47ZM462.72,148.13v-.13c0-7.23-5.41-13.17-12.51-13.17s-12.32,5.93-12.32,13.03v.13c0,7.23,5.34,13.1,12.45,13.1s12.38-5.93,12.38-12.97Z"/>
  <path class="st0" d="M476.93,131.12h5.02v5.87c2.28-3.65,5.74-6.58,11.54-6.58,8.08,0,12.9,5.47,12.9,13.49v20.92h-5.02v-19.68c0-6.26-3.32-10.17-9.32-10.17s-10.1,4.24-10.1,10.56v19.29h-5.02v-33.69Z"/>
  <path class="st0" d="M20.43,236.37l5.93-7.1c4.17,3.39,8.41,5.54,13.62,5.54,4.17,0,6.58-1.63,6.58-4.3v-.13c0-2.54-1.56-3.91-9.19-5.8-9.25-2.28-15.12-4.95-15.12-13.95v-.13c0-8.28,6.58-13.75,15.97-13.75,6.71,0,12.25,2.08,16.94,5.8l-5.21,7.56c-4.11-2.8-7.95-4.5-11.86-4.5s-5.87,1.69-5.87,3.98v.13c0,3.06,1.96,3.91,9.84,6,9.25,2.48,14.47,5.73,14.47,13.69v.13c0,9.06-6.91,14.14-16.75,14.14-6.97,0-13.88-2.35-19.36-7.3Z"/>
  <path class="st0" d="M64.22,208.09h9.91v4.95c2.28-2.93,5.28-5.6,10.3-5.6,4.63,0,8.02,1.96,9.84,5.54,3.06-3.65,6.71-5.54,11.47-5.54,7.36,0,11.8,4.43,11.8,12.84v22.74h-9.91v-19.49c0-4.69-2.09-7.1-5.8-7.1s-6,2.41-6,7.1v19.49h-9.91v-19.49c0-4.69-2.09-7.1-5.8-7.1s-6,2.41-6,7.1v19.49h-9.91v-34.93Z"/>
  <path class="st0" d="M124.05,232.98v-.13c0-7.56,5.8-11.14,14.08-11.14,3.58,0,6,.59,8.54,1.43v-.59c0-4.17-2.54-6.39-7.49-6.39-3.85,0-6.45.65-9.65,1.89l-2.48-7.56c3.85-1.63,7.62-2.8,13.56-2.8,5.47,0,9.25,1.37,11.8,3.91,2.61,2.61,3.78,6.45,3.78,11.14v20.27h-9.58v-3.78c-2.41,2.67-5.67,4.43-10.56,4.43-6.58,0-11.99-3.71-11.99-10.69ZM146.8,230.7v-1.76c-1.76-.78-3.91-1.3-6.32-1.3-4.24,0-6.84,1.69-6.84,4.82v.13c0,2.67,2.22,4.24,5.41,4.24,4.69,0,7.75-2.48,7.75-6.13Z"/>
  <path class="st0" d="M164.72,208.09h9.91v7.04c2.02-4.76,5.21-7.95,11.14-7.69v10.36h-.52c-6.58,0-10.62,3.91-10.62,12.32v12.9h-9.91v-34.93Z"/>
  <path class="st0" d="M193.59,233.11v-16.55h-4.17v-8.47h4.17v-8.93h9.91v8.93h8.21v8.47h-8.21v14.92c0,2.28,1.04,3.39,3.19,3.39,1.76,0,3.39-.39,4.89-1.24v7.95c-2.09,1.24-4.5,2.02-7.82,2.02-6,0-10.17-2.41-10.17-10.49Z"/>
  <path class="st0" d="M237.58,220.34v-.13c0-12.97,9.78-23.59,23.79-23.59,8.54,0,13.82,2.87,17.99,7.04l-6.39,7.36c-3.58-3.19-7.04-5.15-11.67-5.15-7.69,0-13.23,6.39-13.23,14.21v.13c0,7.82,5.41,14.34,13.23,14.34,5.21,0,8.41-2.02,11.99-5.34l6.39,6.45c-4.69,5.02-9.84,8.15-18.7,8.15-13.42,0-23.4-10.36-23.4-23.46Z"/>
  <path class="st0" d="M284.31,225.75v-.13c0-10.04,8.08-18.18,18.96-18.18s18.83,7.95,18.83,18.05v.13c0,10.04-8.08,18.18-18.96,18.18s-18.83-7.95-18.83-18.05ZM312.34,225.75v-.13c0-5.15-3.71-9.65-9.19-9.65s-9.06,4.3-9.06,9.52v.13c0,5.15,3.71,9.65,9.19,9.65s9.06-4.3,9.06-9.51Z"/>
  <path class="st0" d="M329.28,208.09h9.91v4.95c2.28-2.93,5.28-5.6,10.23-5.6,7.56,0,11.86,4.89,11.86,12.97v22.61h-9.91v-19.49c0-4.69-2.15-7.1-6-7.1s-6.19,2.41-6.19,7.1v19.49h-9.91v-34.93Z"/>
  <path class="st0" d="M369.89,208.09h9.91v4.95c2.28-2.93,5.28-5.6,10.23-5.6,7.56,0,11.86,4.89,11.86,12.97v22.61h-9.91v-19.49c0-4.69-2.15-7.1-6-7.1s-6.19,2.41-6.19,7.1v19.49h-9.91v-34.93Z"/>
  <path class="st0" d="M408.79,225.75v-.13c0-9.97,7.1-18.18,17.27-18.18,11.67,0,17.01,9.06,17.01,18.96,0,.78-.07,1.63-.13,2.61h-24.31c.98,4.5,4.11,6.84,8.54,6.84,3.32,0,5.67-1.04,8.47-3.58l5.67,5.02c-3.32,4.11-7.95,6.52-14.27,6.52-10.49,0-18.25-7.36-18.25-18.05ZM433.43,222.82c-.59-4.43-3.19-7.43-7.36-7.43s-6.78,2.93-7.56,7.43h14.92Z"/>
  <path class="st0" d="M448.75,225.75v-.13c0-9.97,7.62-18.18,18.31-18.18,6.58,0,10.62,2.22,13.95,5.87l-6.06,6.52c-2.28-2.35-4.37-3.85-7.95-3.85-4.95,0-8.47,4.3-8.47,9.52v.13c0,5.41,3.45,9.65,8.86,9.65,3.32,0,5.6-1.43,8.02-3.71l5.8,5.87c-3.39,3.71-7.3,6.39-14.27,6.39-10.49,0-18.18-8.15-18.18-18.05Z"/>
  <path class="st0" d="M489.28,233.11v-16.55h-4.17v-8.47h4.17v-8.93h9.91v8.93h8.21v8.47h-8.21v14.92c0,2.28,1.04,3.39,3.19,3.39,1.76,0,3.39-.39,4.89-1.24v7.95c-2.08,1.24-4.5,2.02-7.82,2.02-6,0-10.17-2.41-10.17-10.49Z"/>
</svg>