<?xml version="1.0" encoding="UTF-8"?>
<svg id="Layer_1" xmlns="http://www.w3.org/2000/svg" version="1.1" viewBox="0 0 602.57 274.19">
  <!-- Generator: Adobe Illustrator 29.7.1, SVG Export Plug-In . SVG Version: 2.1.1 Build 8)  -->
  <defs>
    <style>
      .st0 {
        fill: #fff;
      }
    </style>
  </defs>
  <g>
    <path class="st0" d="M114.33,133.95h5.39l11.4,26.79h-6.12l-2.43-5.96h-11.25l-2.43,5.96h-5.96l11.4-26.79ZM120.48,149.6l-3.53-8.62-3.53,8.62h7.07Z"/>
    <path class="st0" d="M130.14,140.37h6.12l4.56,13.64,4.6-13.64h6l-8.02,20.52h-5.24l-8.02-20.52Z"/>
    <path class="st0" d="M152.59,154.88v-.08c0-4.41,3.38-6.5,8.21-6.5,2.09,0,3.5.34,4.98.84v-.34c0-2.43-1.48-3.72-4.37-3.72-2.24,0-3.76.38-5.62,1.1l-1.44-4.41c2.24-.95,4.45-1.63,7.9-1.63,3.19,0,5.4.8,6.88,2.28s2.2,3.76,2.2,6.5v11.82h-5.58v-2.2c-1.41,1.56-3.31,2.58-6.16,2.58-3.84,0-6.99-2.17-6.99-6.23ZM165.85,153.56v-1.03c-1.03-.46-2.28-.76-3.69-.76-2.47,0-3.99.99-3.99,2.81v.08c0,1.56,1.29,2.47,3.15,2.47,2.74,0,4.52-1.44,4.52-3.57Z"/>
    <path class="st0" d="M177.07,154.96v-9.65h-2.43v-4.94h2.43v-5.21h5.78v5.21h4.79v4.94h-4.79v8.7c0,1.33.61,1.98,1.86,1.98,1.03,0,1.98-.23,2.85-.72v4.63c-1.22.72-2.62,1.18-4.56,1.18-3.5,0-5.93-1.41-5.93-6.12Z"/>
    <path class="st0" d="M190.67,154.88v-.08c0-4.41,3.38-6.5,8.21-6.5,2.09,0,3.5.34,4.98.84v-.34c0-2.43-1.48-3.72-4.37-3.72-2.24,0-3.76.38-5.62,1.1l-1.44-4.41c2.24-.95,4.45-1.63,7.9-1.63,3.19,0,5.4.8,6.88,2.28s2.2,3.76,2.2,6.5v11.82h-5.58v-2.2c-1.41,1.56-3.31,2.58-6.16,2.58-3.84,0-6.99-2.17-6.99-6.23ZM203.93,153.56v-1.03c-1.03-.46-2.28-.76-3.69-.76-2.47,0-3.99.99-3.99,2.81v.08c0,1.56,1.29,2.47,3.15,2.47,2.74,0,4.52-1.44,4.52-3.57Z"/>
    <path class="st0" d="M214.38,140.37h5.77v4.1c1.18-2.77,3.04-4.63,6.5-4.48v6.04h-.3c-3.84,0-6.19,2.28-6.19,7.18v7.52h-5.77v-20.37Z"/>
    <path class="st0" d="M240.68,150.67v-.08c0-5.81,4.45-10.6,10.68-10.6,3.84,0,6.19,1.29,8.13,3.42l-3.53,3.8c-1.33-1.37-2.54-2.24-4.63-2.24-2.89,0-4.94,2.51-4.94,5.55v.08c0,3.15,2.01,5.62,5.17,5.62,1.94,0,3.27-.84,4.67-2.17l3.38,3.42c-1.98,2.17-4.25,3.72-8.32,3.72-6.12,0-10.6-4.75-10.6-10.52Z"/>
    <path class="st0" d="M263.36,140.37h5.77v4.1c1.18-2.77,3.04-4.63,6.5-4.48v6.04h-.3c-3.84,0-6.19,2.28-6.19,7.18v7.52h-5.77v-20.37Z"/>
    <path class="st0" d="M277.69,150.67v-.08c0-5.81,4.14-10.6,10.07-10.6,6.8,0,9.92,5.28,9.92,11.06,0,.46-.04.95-.08,1.52h-14.17c.57,2.62,2.39,3.99,4.98,3.99,1.94,0,3.3-.61,4.94-2.09l3.31,2.93c-1.94,2.39-4.63,3.8-8.32,3.8-6.12,0-10.64-4.29-10.64-10.52ZM292.05,148.96c-.34-2.58-1.86-4.33-4.29-4.33s-3.95,1.71-4.41,4.33h8.7Z"/>
    <path class="st0" d="M300.76,154.88v-.08c0-4.41,3.38-6.5,8.21-6.5,2.09,0,3.5.34,4.98.84v-.34c0-2.43-1.48-3.72-4.37-3.72-2.24,0-3.76.38-5.62,1.1l-1.44-4.41c2.24-.95,4.45-1.63,7.9-1.63,3.19,0,5.39.8,6.88,2.28,1.52,1.52,2.2,3.76,2.2,6.5v11.82h-5.58v-2.2c-1.41,1.56-3.31,2.58-6.16,2.58-3.84,0-6.99-2.17-6.99-6.23ZM314.01,153.56v-1.03c-1.03-.46-2.28-.76-3.69-.76-2.47,0-3.99.99-3.99,2.81v.08c0,1.56,1.29,2.47,3.15,2.47,2.74,0,4.52-1.44,4.52-3.57Z"/>
    <path class="st0" d="M323.56,150.59v-.08c0-6.8,4.45-10.52,9.27-10.52,3.08,0,4.98,1.41,6.34,3.04v-10.03h5.78v27.74h-5.78v-2.93c-1.41,1.94-3.31,3.31-6.34,3.31-4.75,0-9.27-3.72-9.27-10.52ZM339.25,150.59v-.08c0-3.38-2.24-5.62-4.94-5.62s-4.98,2.2-4.98,5.62v.08c0,3.38,2.28,5.62,4.98,5.62s4.94-2.24,4.94-5.62Z"/>
    <path class="st0" d="M349.13,150.67v-.08c0-5.85,4.71-10.6,11.06-10.6s10.98,4.64,10.98,10.52v.08c0,5.85-4.71,10.6-11.06,10.6s-10.98-4.64-10.98-10.52ZM365.47,150.67v-.08c0-3-2.17-5.62-5.36-5.62s-5.28,2.51-5.28,5.55v.08c0,3,2.17,5.62,5.36,5.62s5.28-2.51,5.28-5.55Z"/>
    <path class="st0" d="M385.76,150.67v-.08c0-5.81,4.45-10.6,10.68-10.6,3.84,0,6.19,1.29,8.13,3.42l-3.53,3.8c-1.33-1.37-2.54-2.24-4.63-2.24-2.89,0-4.94,2.51-4.94,5.55v.08c0,3.15,2.01,5.62,5.17,5.62,1.94,0,3.27-.84,4.67-2.17l3.38,3.42c-1.98,2.17-4.25,3.72-8.32,3.72-6.12,0-10.6-4.75-10.6-10.52Z"/>
    <path class="st0" d="M406.89,150.67v-.08c0-5.85,4.71-10.6,11.06-10.6s10.98,4.64,10.98,10.52v.08c0,5.85-4.71,10.6-11.06,10.6s-10.98-4.64-10.98-10.52ZM423.22,150.67v-.08c0-3-2.17-5.62-5.36-5.62s-5.28,2.51-5.28,5.55v.08c0,3,2.17,5.62,5.36,5.62s5.28-2.51,5.28-5.55Z"/>
    <path class="st0" d="M433.11,140.37h5.77v2.89c1.33-1.71,3.08-3.27,5.97-3.27,4.41,0,6.92,2.85,6.92,7.56v13.18h-5.78v-11.36c0-2.74-1.25-4.14-3.5-4.14s-3.61,1.41-3.61,4.14v11.36h-5.77v-20.37Z"/>
    <path class="st0" d="M468.45,133h5.78v27.74h-5.78v-27.74Z"/>
    <path class="st0" d="M478.44,154.88v-.08c0-4.41,3.38-6.5,8.21-6.5,2.09,0,3.5.34,4.98.84v-.34c0-2.43-1.48-3.72-4.37-3.72-2.24,0-3.76.38-5.62,1.1l-1.44-4.41c2.24-.95,4.45-1.63,7.9-1.63,3.19,0,5.4.8,6.88,2.28s2.2,3.76,2.2,6.5v11.82h-5.58v-2.2c-1.41,1.56-3.31,2.58-6.16,2.58-3.84,0-6.99-2.17-6.99-6.23ZM491.7,153.56v-1.03c-1.03-.46-2.28-.76-3.69-.76-2.47,0-3.99.99-3.99,2.81v.08c0,1.56,1.29,2.47,3.15,2.47,2.74,0,4.52-1.44,4.52-3.57Z"/>
    <path class="st0" d="M33.33,188.37h5.77v2.93c1.41-1.94,3.31-3.31,6.35-3.31,4.75,0,9.27,3.72,9.27,10.52v.08c0,6.8-4.45,10.52-9.27,10.52-3.08,0-4.98-1.41-6.35-3.04v8.74h-5.77v-26.44ZM48.95,198.59v-.08c0-3.38-2.28-5.62-4.98-5.62s-4.94,2.24-4.94,5.62v.08c0,3.38,2.24,5.62,4.94,5.62s4.98-2.2,4.98-5.62Z"/>
    <path class="st0" d="M57.99,198.67v-.08c0-5.85,4.71-10.6,11.06-10.6s10.98,4.64,10.98,10.52v.08c0,5.85-4.71,10.6-11.06,10.6s-10.98-4.64-10.98-10.52ZM74.33,198.67v-.08c0-3-2.17-5.62-5.36-5.62s-5.28,2.51-5.28,5.55v.08c0,3,2.17,5.62,5.36,5.62s5.28-2.51,5.28-5.55Z"/>
    <path class="st0" d="M85.16,202.96v-9.65h-2.43v-4.94h2.43v-5.21h5.78v5.21h4.79v4.94h-4.79v8.7c0,1.33.61,1.98,1.86,1.98,1.03,0,1.98-.23,2.85-.72v4.63c-1.22.72-2.62,1.18-4.56,1.18-3.5,0-5.93-1.41-5.93-6.12Z"/>
    <path class="st0" d="M98.43,198.67v-.08c0-5.81,4.14-10.6,10.07-10.6,6.8,0,9.92,5.28,9.92,11.06,0,.46-.04.95-.08,1.52h-14.17c.57,2.62,2.39,3.99,4.98,3.99,1.94,0,3.3-.61,4.94-2.09l3.31,2.93c-1.94,2.39-4.63,3.8-8.32,3.8-6.12,0-10.64-4.29-10.64-10.52ZM112.79,196.96c-.34-2.58-1.86-4.33-4.29-4.33s-3.95,1.71-4.41,4.33h8.7Z"/>
    <path class="st0" d="M122.71,188.37h5.77v2.89c1.33-1.71,3.08-3.27,5.97-3.27,4.41,0,6.92,2.85,6.92,7.56v13.18h-5.78v-11.36c0-2.74-1.25-4.14-3.5-4.14s-3.61,1.41-3.61,4.14v11.36h-5.77v-20.37Z"/>
    <path class="st0" d="M145.39,198.67v-.08c0-5.81,4.45-10.6,10.68-10.6,3.84,0,6.19,1.29,8.13,3.42l-3.53,3.8c-1.33-1.37-2.54-2.24-4.63-2.24-2.89,0-4.94,2.51-4.94,5.55v.08c0,3.15,2.01,5.62,5.17,5.62,1.94,0,3.27-.84,4.67-2.17l3.38,3.42c-1.98,2.17-4.25,3.72-8.32,3.72-6.12,0-10.6-4.75-10.6-10.52Z"/>
    <path class="st0" d="M168.19,181h6.08v5.13h-6.08v-5.13ZM168.35,188.37h5.78v20.37h-5.78v-20.37Z"/>
    <path class="st0" d="M178.34,202.88v-.08c0-4.41,3.38-6.5,8.21-6.5,2.09,0,3.5.34,4.98.84v-.34c0-2.43-1.48-3.72-4.37-3.72-2.24,0-3.76.38-5.62,1.1l-1.44-4.41c2.24-.95,4.45-1.63,7.9-1.63,3.19,0,5.39.8,6.88,2.28,1.52,1.52,2.2,3.76,2.2,6.5v11.82h-5.58v-2.2c-1.41,1.56-3.31,2.58-6.16,2.58-3.84,0-6.99-2.17-6.99-6.23ZM191.6,201.56v-1.03c-1.03-.46-2.28-.76-3.69-.76-2.47,0-3.99.99-3.99,2.81v.08c0,1.56,1.29,2.47,3.15,2.47,2.74,0,4.52-1.44,4.52-3.57Z"/>
    <path class="st0" d="M211.85,206.04l2.47-3.8c2.24,1.63,4.48,2.43,6.42,2.43,1.67,0,2.43-.61,2.43-1.52v-.08c0-1.25-1.98-1.63-4.22-2.36-2.85-.8-6.08-2.17-6.08-6.12v-.08c0-4.14,3.34-6.46,7.45-6.46,2.58,0,5.36.87,7.6,2.36l-2.2,3.99c-2.01-1.18-4.03-1.9-5.51-1.9s-2.13.61-2.13,1.41v.08c0,1.06,1.94,1.75,4.14,2.43,2.85.91,6.16,2.32,6.16,6.04v.08c0,4.52-3.38,6.57-7.79,6.57-2.89,0-6-.95-8.74-3.08Z"/>
    <path class="st0" d="M232.37,201.56v-13.18h5.78v11.36c0,2.74,1.25,4.14,3.5,4.14s3.61-1.41,3.61-4.14v-11.36h5.78v20.37h-5.78v-2.89c-1.33,1.71-3.08,3.27-5.96,3.27-4.41,0-6.92-2.85-6.92-7.56Z"/>
    <path class="st0" d="M256.2,188.37h5.77v2.93c1.41-1.94,3.31-3.31,6.35-3.31,4.75,0,9.27,3.72,9.27,10.52v.08c0,6.8-4.45,10.52-9.27,10.52-3.08,0-4.98-1.41-6.35-3.04v8.74h-5.77v-26.44ZM271.82,198.59v-.08c0-3.38-2.28-5.62-4.98-5.62s-4.94,2.24-4.94,5.62v.08c0,3.38,2.24,5.62,4.94,5.62s4.98-2.2,4.98-5.62Z"/>
    <path class="st0" d="M280.86,198.67v-.08c0-5.81,4.14-10.6,10.07-10.6,6.8,0,9.92,5.28,9.92,11.06,0,.46-.04.95-.08,1.52h-14.17c.57,2.62,2.39,3.99,4.98,3.99,1.94,0,3.3-.61,4.94-2.09l3.31,2.93c-1.94,2.39-4.63,3.8-8.32,3.8-6.12,0-10.64-4.29-10.64-10.52ZM295.22,196.96c-.34-2.58-1.86-4.33-4.29-4.33s-3.95,1.71-4.41,4.33h8.7Z"/>
    <path class="st0" d="M305.14,188.37h5.77v4.1c1.18-2.77,3.04-4.63,6.5-4.48v6.04h-.3c-3.84,0-6.19,2.28-6.19,7.18v7.52h-5.77v-20.37Z"/>
    <path class="st0" d="M321.14,181h6.08v5.13h-6.08v-5.13ZM321.29,188.37h5.78v20.37h-5.78v-20.37Z"/>
    <path class="st0" d="M331.51,198.67v-.08c0-5.85,4.71-10.6,11.06-10.6s10.98,4.64,10.98,10.52v.08c0,5.85-4.71,10.6-11.06,10.6s-10.98-4.64-10.98-10.52ZM347.85,198.67v-.08c0-3-2.17-5.62-5.36-5.62s-5.28,2.51-5.28,5.55v.08c0,3,2.17,5.62,5.36,5.62s5.28-2.51,5.28-5.55Z"/>
    <path class="st0" d="M357.73,188.37h5.77v4.1c1.18-2.77,3.04-4.63,6.5-4.48v6.04h-.3c-3.84,0-6.19,2.28-6.19,7.18v7.52h-5.77v-20.37Z"/>
    <path class="st0" d="M384.11,198.59v-.08c0-6.8,4.45-10.52,9.27-10.52,3.08,0,4.98,1.41,6.34,3.04v-10.03h5.78v27.74h-5.78v-2.93c-1.41,1.94-3.31,3.31-6.34,3.31-4.75,0-9.27-3.72-9.27-10.52ZM399.8,198.59v-.08c0-3.38-2.24-5.62-4.94-5.62s-4.98,2.2-4.98,5.62v.08c0,3.38,2.28,5.62,4.98,5.62s4.94-2.24,4.94-5.62Z"/>
    <path class="st0" d="M409.68,198.67v-.08c0-5.81,4.14-10.6,10.07-10.6,6.8,0,9.92,5.28,9.92,11.06,0,.46-.04.95-.08,1.52h-14.17c.57,2.62,2.39,3.99,4.98,3.99,1.94,0,3.3-.61,4.94-2.09l3.31,2.93c-1.94,2.39-4.63,3.8-8.32,3.8-6.12,0-10.64-4.29-10.64-10.52ZM424.04,196.96c-.34-2.58-1.86-4.33-4.29-4.33s-3.95,1.71-4.41,4.33h8.7Z"/>
    <path class="st0" d="M434.23,181h5.78v27.74h-5.78v-27.74Z"/>
    <path class="st0" d="M456.84,188.37h5.77v2.89c1.33-1.71,3.08-3.27,5.97-3.27,4.41,0,6.92,2.85,6.92,7.56v13.18h-5.78v-11.36c0-2.74-1.25-4.14-3.5-4.14s-3.61,1.41-3.61,4.14v11.36h-5.77v-20.37Z"/>
    <path class="st0" d="M480.36,201.56v-13.18h5.78v11.36c0,2.74,1.25,4.14,3.5,4.14s3.61-1.41,3.61-4.14v-11.36h5.78v20.37h-5.78v-2.89c-1.33,1.71-3.08,3.27-5.96,3.27-4.41,0-6.92-2.85-6.92-7.56Z"/>
    <path class="st0" d="M503.2,198.67v-.08c0-5.81,4.14-10.6,10.07-10.6,6.8,0,9.92,5.28,9.92,11.06,0,.46-.04.95-.08,1.52h-14.17c.57,2.62,2.39,3.99,4.98,3.99,1.94,0,3.3-.61,4.94-2.09l3.31,2.93c-1.94,2.39-4.63,3.8-8.32,3.8-6.12,0-10.64-4.29-10.64-10.52ZM517.56,196.96c-.34-2.58-1.86-4.33-4.29-4.33s-3.95,1.71-4.41,4.33h8.7Z"/>
    <path class="st0" d="M524.7,188.37h6.12l4.56,13.64,4.6-13.64h6l-8.02,20.52h-5.24l-8.02-20.52Z"/>
    <path class="st0" d="M547.2,198.67v-.08c0-5.85,4.71-10.6,11.06-10.6s10.98,4.64,10.98,10.52v.08c0,5.85-4.71,10.6-11.06,10.6s-10.98-4.64-10.98-10.52ZM563.54,198.67v-.08c0-3-2.17-5.62-5.36-5.62s-5.28,2.51-5.28,5.55v.08c0,3,2.17,5.62,5.36,5.62s5.28-2.51,5.28-5.55Z"/>
    <path class="st0" d="M126.6,230.14h6.31l6.99,11.25,6.99-11.25h6.31v26.6h-5.81v-17.36l-7.49,11.36h-.15l-7.41-11.25v17.25h-5.74v-26.6Z"/>
    <path class="st0" d="M157.99,246.67v-.08c0-5.85,4.71-10.6,11.06-10.6s10.98,4.64,10.98,10.52v.08c0,5.85-4.71,10.6-11.06,10.6s-10.98-4.64-10.98-10.52ZM174.33,246.67v-.08c0-3-2.17-5.62-5.36-5.62s-5.28,2.51-5.28,5.55v.08c0,3,2.17,5.62,5.36,5.62s5.28-2.51,5.28-5.55Z"/>
    <path class="st0" d="M185.16,250.96v-9.65h-2.43v-4.94h2.43v-5.21h5.78v5.21h4.79v4.94h-4.79v8.7c0,1.33.61,1.98,1.86,1.98,1.03,0,1.98-.23,2.85-.72v4.63c-1.22.72-2.62,1.18-4.56,1.18-3.5,0-5.93-1.41-5.93-6.12Z"/>
    <path class="st0" d="M198.42,246.67v-.08c0-5.85,4.71-10.6,11.06-10.6s10.98,4.64,10.98,10.52v.08c0,5.85-4.71,10.6-11.06,10.6s-10.98-4.64-10.98-10.52ZM214.76,246.67v-.08c0-3-2.17-5.62-5.36-5.62s-5.28,2.51-5.28,5.55v.08c0,3,2.17,5.62,5.36,5.62s5.28-2.51,5.28-5.55Z"/>
    <path class="st0" d="M236.65,230.14h12.16c3.38,0,5.96.91,7.75,2.7,1.52,1.52,2.28,3.53,2.28,6.08v.08c0,4.29-2.32,6.99-5.7,8.24l6.5,9.5h-6.84l-5.7-8.51h-4.6v8.51h-5.85v-26.6ZM248.43,243.06c2.89,0,4.48-1.48,4.48-3.76v-.08c0-2.54-1.71-3.8-4.6-3.8h-5.81v7.64h5.93Z"/>
    <path class="st0" d="M262.83,252.67l10.52-11.63h-10.18v-4.67h17.36v4.07l-10.56,11.63h10.56v4.67h-17.71v-4.07Z"/>
    <path class="st0" d="M284.91,236.37h5.77v4.1c1.18-2.77,3.04-4.63,6.5-4.48v6.04h-.3c-3.84,0-6.19,2.28-6.19,7.18v7.52h-5.77v-20.37Z"/>
    <path class="st0" d="M314.81,254.34c-1.94-1.94-3.15-4.79-3.15-10.07v-.08c0-8.21,3.72-14.51,11.66-14.51,3.65,0,5.96,1.06,8.32,2.93l-3.08,4.52c-1.71-1.33-3.15-2.13-5.43-2.13-3.99,0-5.17,3.84-5.36,6.15,1.41-.95,3.08-1.71,5.51-1.71,5.28,0,9.35,2.92,9.35,8.47v.08c0,5.47-4.37,9.19-10.14,9.19-3.5,0-5.81-.99-7.67-2.85ZM326.82,248.26v-.08c0-2.28-1.75-3.88-4.64-3.88s-4.56,1.56-4.56,3.84v.08c0,2.28,1.75,3.95,4.64,3.95s4.56-1.63,4.56-3.91Z"/>
    <path class="st0" d="M336.81,243.51v-.08c0-7.71,4.75-13.75,11.85-13.75s11.78,5.93,11.78,13.68v.08c0,7.71-4.75,13.75-11.85,13.75s-11.78-5.93-11.78-13.68ZM354.44,243.51v-.08c0-4.83-2.36-8.47-5.85-8.47s-5.78,3.53-5.78,8.4v.08c0,4.86,2.32,8.47,5.85,8.47s5.77-3.53,5.77-8.4Z"/>
    <path class="st0" d="M376.67,245.34v-15.2h5.85v15.04c0,4.37,2.13,6.57,5.74,6.57s5.74-2.13,5.74-6.38v-15.24h5.85v15.01c0,8.05-4.52,12.01-11.66,12.01s-11.51-3.95-11.51-11.82Z"/>
    <path class="st0" d="M405.48,229h5.78v27.74h-5.78v-27.74Z"/>
    <path class="st0" d="M417.64,250.96v-9.65h-2.43v-4.94h2.43v-5.21h5.78v5.21h4.79v4.94h-4.79v8.7c0,1.33.61,1.98,1.86,1.98,1.03,0,1.98-.23,2.85-.72v4.63c-1.22.72-2.62,1.18-4.56,1.18-3.5,0-5.93-1.41-5.93-6.12Z"/>
    <path class="st0" d="M432.46,236.37h5.77v4.1c1.18-2.77,3.04-4.63,6.5-4.48v6.04h-.3c-3.84,0-6.19,2.28-6.19,7.18v7.52h-5.77v-20.37Z"/>
    <path class="st0" d="M446.18,250.88v-.08c0-4.41,3.38-6.5,8.21-6.5,2.09,0,3.5.34,4.98.84v-.34c0-2.43-1.48-3.72-4.37-3.72-2.24,0-3.76.38-5.62,1.1l-1.44-4.41c2.24-.95,4.45-1.63,7.9-1.63,3.19,0,5.4.8,6.88,2.28s2.2,3.76,2.2,6.5v11.82h-5.58v-2.2c-1.41,1.56-3.31,2.58-6.16,2.58-3.84,0-6.99-2.17-6.99-6.23ZM459.44,249.56v-1.03c-1.03-.46-2.28-.76-3.69-.76-2.47,0-3.99.99-3.99,2.81v.08c0,1.56,1.29,2.47,3.15,2.47,2.74,0,4.52-1.44,4.52-3.57Z"/>
    <path class="st0" d="M469.66,250.66h6.16v6.08h-6.16v-6.08Z"/>
  </g>
  <g>
    <path class="st0" d="M206.8,56.83l2.47-28.8h4.36l2.41,28.8v2.28h-9.23v-2.28ZM207.13,13.6h8.65v8.97h-8.65v-8.97Z"/>
    <path class="st0" d="M227.08,13.6h8v38.22h23.92v7.28h-31.92V13.6Z"/>
    <path class="st0" d="M266.47,12.04h8.45v7.47h-8.45v-7.47ZM266.73,24.78h7.93v34.32h-7.93V24.78Z"/>
    <path class="st0" d="M282.14,54.62l3.51-5.33c3.83,2.79,7.67,4.23,11.25,4.23,3.38,0,5.33-1.43,5.33-3.71v-.13c0-2.6-3.64-3.58-7.67-4.81-5-1.37-10.73-3.51-10.73-10.01v-.13c0-6.57,5.4-10.53,12.22-10.53,4.36,0,8.97,1.5,12.61,3.9l-3.12,5.59c-3.32-2.01-6.83-3.25-9.69-3.25-3.05,0-4.81,1.5-4.81,3.38v.13c0,2.47,3.71,3.64,7.74,4.88,4.94,1.56,10.66,3.83,10.66,10.01v.13c0,7.22-5.59,10.79-12.74,10.79-4.94,0-10.21-1.69-14.56-5.14Z"/>
    <path class="st0" d="M318.47,49.61v-18.07h-4.36v-6.76h4.36v-9.43h7.87v9.43h9.23v6.76h-9.23v16.84c0,3.06,1.56,4.29,4.22,4.29,1.69,0,3.32-.39,4.88-1.17v6.44c-2.02,1.1-4.03,1.75-7.09,1.75-5.79,0-9.88-2.54-9.88-10.08Z"/>
    <path class="st0" d="M340.7,42.14v-.13c0-9.82,7.8-17.94,18.33-17.94s18.27,8,18.27,17.81v.13c0,9.69-7.8,17.88-18.4,17.88s-18.2-8-18.2-17.75ZM369.43,42.14v-.13c0-6.04-4.36-11.05-10.53-11.05s-10.33,4.94-10.33,10.92v.13c0,5.98,4.42,10.99,10.46,10.99,6.44,0,10.4-4.94,10.4-10.86Z"/>
    <path class="st0" d="M385.55,15.88v-2.28h9.23v2.28l-2.41,28.8h-4.36l-2.47-28.8ZM385.88,50.13h8.65v8.97h-8.65v-8.97Z"/>
  </g>
</svg>