<?xml version="1.0" encoding="UTF-8"?>
<svg id="Layer_1" xmlns="http://www.w3.org/2000/svg" version="1.1" viewBox="0 0 640.07 459.93">
  <!-- Generator: Adobe Illustrator 29.7.1, SVG Export Plug-In . SVG Version: 2.1.1 Build 8)  -->
  <defs>
    <style>
      .st0 {
        fill: #fff;
      }
    </style>
  </defs>
  <g>
    <path class="st0" d="M82.71,277.65h24.62v5.22h-18.79v8.63h16.65v5.27h-16.65v8.87h19.02v5.22h-24.86v-33.21Z"/>
    <path class="st0" d="M111.8,307.58l2.56-3.89c2.8,2.04,5.6,3.08,8.21,3.08,2.47,0,3.89-1.04,3.89-2.7v-.09c0-1.9-2.66-2.61-5.6-3.51-3.65-1-7.83-2.56-7.83-7.31v-.1c0-4.79,3.94-7.69,8.92-7.69,3.18,0,6.55,1.09,9.2,2.85l-2.28,4.08c-2.42-1.47-4.98-2.37-7.07-2.37-2.23,0-3.51,1.09-3.51,2.47v.1c0,1.8,2.7,2.66,5.65,3.56,3.61,1.14,7.78,2.8,7.78,7.31v.1c0,5.27-4.08,7.88-9.3,7.88-3.61,0-7.45-1.23-10.63-3.75Z"/>
    <path class="st0" d="M138.32,303.93v-13.19h-3.18v-4.93h3.18v-6.88h5.74v6.88h6.74v4.93h-6.74v12.29c0,2.23,1.14,3.13,3.08,3.13,1.23,0,2.42-.28,3.56-.85v4.7c-1.47.81-2.94,1.28-5.17,1.28-4.22,0-7.21-1.85-7.21-7.35Z"/>
    <path class="st0" d="M154.93,303.65v-.1c0-5.46,4.27-8.07,10.39-8.07,2.85,0,4.79.43,6.74,1.04v-.62c0-3.61-2.18-5.46-6.21-5.46-2.85,0-4.89.62-7.16,1.57l-1.57-4.51c2.8-1.19,5.5-2.04,9.49-2.04,3.75,0,6.5.95,8.3,2.8,1.85,1.85,2.7,4.46,2.7,7.73v14.85h-5.6v-3.13c-1.71,2.04-4.32,3.65-8.16,3.65-4.7,0-8.92-2.66-8.92-7.73ZM172.15,301.84v-1.71c-1.47-.57-3.42-1-5.69-1-3.75,0-5.88,1.52-5.88,4.18v.1c0,2.42,2.09,3.79,4.89,3.79,3.8,0,6.69-2.14,6.69-5.36ZM169.64,274.85l5.22,2.33-5.84,5.46h-4.32l4.93-7.78Z"/>
    <path class="st0" d="M182.45,307.58l2.56-3.89c2.8,2.04,5.6,3.08,8.21,3.08,2.47,0,3.89-1.04,3.89-2.7v-.09c0-1.9-2.66-2.61-5.6-3.51-3.65-1-7.83-2.56-7.83-7.31v-.1c0-4.79,3.94-7.69,8.92-7.69,3.18,0,6.55,1.09,9.2,2.85l-2.28,4.08c-2.42-1.47-4.98-2.37-7.07-2.37-2.23,0-3.51,1.09-3.51,2.47v.1c0,1.8,2.7,2.66,5.65,3.56,3.61,1.14,7.78,2.8,7.78,7.31v.1c0,5.27-4.08,7.88-9.3,7.88-3.61,0-7.45-1.23-10.63-3.75Z"/>
    <path class="st0" d="M220.79,303.65v-.1c0-5.46,4.27-8.07,10.39-8.07,2.85,0,4.79.43,6.74,1.04v-.62c0-3.61-2.18-5.46-6.21-5.46-2.85,0-4.89.62-7.16,1.57l-1.57-4.51c2.8-1.19,5.5-2.04,9.49-2.04,3.75,0,6.5.95,8.3,2.8,1.85,1.85,2.7,4.46,2.7,7.73v14.85h-5.6v-3.13c-1.71,2.04-4.32,3.65-8.16,3.65-4.7,0-8.92-2.66-8.92-7.73ZM238.01,301.84v-1.71c-1.47-.57-3.42-1-5.69-1-3.75,0-5.88,1.52-5.88,4.18v.1c0,2.42,2.09,3.79,4.89,3.79,3.8,0,6.69-2.14,6.69-5.36Z"/>
    <path class="st0" d="M262.55,307.58l2.56-3.89c2.8,2.04,5.6,3.08,8.21,3.08,2.47,0,3.89-1.04,3.89-2.7v-.09c0-1.9-2.66-2.61-5.6-3.51-3.65-1-7.83-2.56-7.83-7.31v-.1c0-4.79,3.94-7.69,8.92-7.69,3.18,0,6.55,1.09,9.2,2.85l-2.28,4.08c-2.42-1.47-4.98-2.37-7.07-2.37-2.23,0-3.51,1.09-3.51,2.47v.1c0,1.8,2.7,2.66,5.65,3.56,3.61,1.14,7.78,2.8,7.78,7.31v.1c0,5.27-4.08,7.88-9.3,7.88-3.61,0-7.45-1.23-10.63-3.75Z"/>
    <path class="st0" d="M286.99,298.47v-.09c0-7.16,5.69-13.09,13.38-13.09s13.33,5.84,13.33,13v.1c0,7.07-5.69,13.05-13.43,13.05s-13.28-5.84-13.28-12.95ZM307.96,298.47v-.09c0-4.41-3.18-8.07-7.69-8.07s-7.54,3.6-7.54,7.97v.1c0,4.36,3.23,8.02,7.64,8.02,4.7,0,7.59-3.61,7.59-7.92Z"/>
    <path class="st0" d="M319.82,276.22h5.79v34.63h-5.79v-34.63Z"/>
    <path class="st0" d="M331.73,298.47v-.09c0-7.16,5.69-13.09,13.38-13.09s13.33,5.84,13.33,13v.1c0,7.07-5.69,13.05-13.43,13.05s-13.28-5.84-13.28-12.95ZM352.7,298.47v-.09c0-4.41-3.18-8.07-7.69-8.07s-7.54,3.6-7.54,7.97v.1c0,4.36,3.23,8.02,7.64,8.02,4.7,0,7.59-3.61,7.59-7.92Z"/>
    <path class="st0" d="M378.23,301.75v-15.94h5.74v14.23c0,3.94,1.95,6.07,5.36,6.07s5.65-2.23,5.65-6.17v-14.14h5.79v25.05h-5.79v-3.89c-1.66,2.42-3.99,4.41-7.83,4.41-5.69,0-8.92-3.75-8.92-9.63Z"/>
    <path class="st0" d="M407.89,285.81h5.79v3.84c1.66-2.33,3.89-4.36,7.83-4.36,5.69,0,8.92,3.75,8.92,9.58v15.99h-5.74v-14.23c0-3.94-1.95-6.12-5.36-6.12s-5.64,2.28-5.64,6.22v14.14h-5.79v-25.05Z"/>
    <path class="st0" d="M451.54,285.81h5.79v4.17c1.85-2.61,4.41-4.7,8.54-4.7,5.88,0,11.62,4.65,11.62,13v.1c0,8.35-5.69,13-11.62,13-4.18,0-6.79-2.09-8.54-4.41v11.48h-5.79v-32.64ZM471.66,298.38v-.1c0-4.84-3.32-8.02-7.16-8.02s-7.31,3.23-7.31,8.02v.1c0,4.79,3.37,8.02,7.31,8.02s7.16-3.08,7.16-8.02Z"/>
    <path class="st0" d="M481.72,303.65v-.1c0-5.46,4.27-8.07,10.39-8.07,2.85,0,4.79.43,6.74,1.04v-.62c0-3.61-2.18-5.46-6.21-5.46-2.85,0-4.89.62-7.16,1.57l-1.57-4.51c2.8-1.19,5.5-2.04,9.49-2.04,3.75,0,6.5.95,8.3,2.8,1.85,1.85,2.7,4.46,2.7,7.73v14.85h-5.6v-3.13c-1.71,2.04-4.32,3.65-8.16,3.65-4.7,0-8.92-2.66-8.92-7.73ZM498.95,301.84v-1.71c-1.47-.57-3.42-1-5.69-1-3.75,0-5.88,1.52-5.88,4.18v.1c0,2.42,2.09,3.79,4.89,3.79,3.8,0,6.69-2.14,6.69-5.36Z"/>
    <path class="st0" d="M509.24,307.58l2.56-3.89c2.8,2.04,5.6,3.08,8.21,3.08,2.47,0,3.89-1.04,3.89-2.7v-.09c0-1.9-2.66-2.61-5.6-3.51-3.65-1-7.83-2.56-7.83-7.31v-.1c0-4.79,3.94-7.69,8.92-7.69,3.18,0,6.55,1.09,9.21,2.85l-2.28,4.08c-2.42-1.47-4.98-2.37-7.07-2.37-2.23,0-3.51,1.09-3.51,2.47v.1c0,1.8,2.7,2.66,5.65,3.56,3.61,1.14,7.78,2.8,7.78,7.31v.1c0,5.27-4.08,7.88-9.3,7.88-3.61,0-7.45-1.23-10.63-3.75Z"/>
    <path class="st0" d="M533.68,298.47v-.09c0-7.16,5.69-13.09,13.38-13.09s13.33,5.84,13.33,13v.1c0,7.07-5.69,13.05-13.43,13.05s-13.28-5.84-13.28-12.95ZM554.65,298.47v-.09c0-4.41-3.18-8.07-7.69-8.07s-7.54,3.6-7.54,7.97v.1c0,4.36,3.23,8.02,7.64,8.02,4.7,0,7.59-3.61,7.59-7.92Z"/>
    <path class="st0" d="M51.68,358.32v-.1c0-8.35,5.65-13,11.62-13,4.08,0,6.79,2.04,8.54,4.41v-13.47h5.74v34.63h-5.74v-4.18c-1.85,2.61-4.51,4.7-8.54,4.7-5.88,0-11.62-4.65-11.62-13ZM71.93,358.32v-.1c0-4.84-3.42-8.02-7.26-8.02s-7.21,3.08-7.21,8.02v.1c0,4.84,3.27,8.02,7.21,8.02s7.26-3.23,7.26-8.02Z"/>
    <path class="st0" d="M83.42,358.37v-.1c0-7.21,5.08-13.05,12.24-13.05,7.97,0,12,6.26,12,13.47,0,.52-.05,1.04-.1,1.61h-18.41c.62,4.13,3.46,6.36,7.21,6.36,2.85,0,4.74-1.04,6.79-2.99l3.37,2.99c-2.42,2.85-5.65,4.7-10.25,4.7-7.21,0-12.86-5.27-12.86-13ZM101.97,356.51c-.38-3.65-2.56-6.59-6.36-6.59-3.56,0-5.98,2.66-6.5,6.59h12.86Z"/>
    <path class="st0" d="M126.32,358.41v-.09c0-7.12,5.5-13.09,13.05-13.09,4.7,0,7.59,1.75,10.01,4.32l-3.61,3.84c-1.75-1.85-3.61-3.13-6.45-3.13-4.18,0-7.26,3.6-7.26,7.97v.1c0,4.46,3.08,8.02,7.5,8.02,2.7,0,4.65-1.23,6.5-3.08l3.46,3.42c-2.47,2.8-5.36,4.7-10.25,4.7-7.45,0-12.95-5.84-12.95-12.95Z"/>
    <path class="st0" d="M154.74,345.75h5.79v5.64c1.56-3.79,4.46-6.31,8.87-6.12v6.07h-.33c-5.08,0-8.54,3.27-8.54,9.92v9.54h-5.79v-25.05Z"/>
    <path class="st0" d="M172.15,358.37v-.1c0-7.21,5.08-13.05,12.24-13.05,7.97,0,12,6.26,12,13.47,0,.52-.05,1.04-.1,1.61h-18.41c.62,4.13,3.46,6.36,7.21,6.36,2.85,0,4.74-1.04,6.79-2.99l3.37,2.99c-2.42,2.85-5.65,4.7-10.25,4.7-7.21,0-12.86-5.27-12.86-13ZM190.7,356.51c-.38-3.65-2.56-6.59-6.36-6.59-3.56,0-5.98,2.66-6.5,6.59h12.86Z"/>
    <path class="st0" d="M200.48,363.58v-.1c0-5.46,4.27-8.07,10.39-8.07,2.85,0,4.79.43,6.74,1.04v-.62c0-3.61-2.18-5.46-6.21-5.46-2.85,0-4.89.62-7.16,1.57l-1.57-4.51c2.8-1.19,5.5-2.04,9.49-2.04,3.75,0,6.5.95,8.3,2.8,1.85,1.85,2.7,4.46,2.7,7.73v14.85h-5.6v-3.13c-1.71,2.04-4.32,3.65-8.16,3.65-4.7,0-8.92-2.66-8.92-7.73ZM217.7,361.78v-1.71c-1.47-.57-3.42-1-5.69-1-3.75,0-5.88,1.52-5.88,4.18v.1c0,2.42,2.09,3.79,4.89,3.79,3.8,0,6.69-2.14,6.69-5.36Z"/>
    <path class="st0" d="M230,345.75h5.79v5.64c1.56-3.79,4.46-6.31,8.87-6.12v6.07h-.33c-5.08,0-8.54,3.27-8.54,9.92v9.54h-5.79v-25.05Z"/>
    <path class="st0" d="M265.06,363.87v-13.19h-3.18v-4.93h3.18v-6.88h5.74v6.88h6.74v4.93h-6.74v12.29c0,2.23,1.14,3.13,3.08,3.13,1.23,0,2.42-.28,3.56-.85v4.7c-1.47.81-2.94,1.28-5.17,1.28-4.22,0-7.21-1.85-7.21-7.35Z"/>
    <path class="st0" d="M283.09,361.69v-15.94h5.74v14.23c0,3.94,1.95,6.07,5.36,6.07s5.64-2.23,5.64-6.17v-14.14h5.79v25.05h-5.79v-3.89c-1.66,2.42-3.99,4.41-7.83,4.41-5.69,0-8.92-3.75-8.92-9.63Z"/>
    <path class="st0" d="M325.28,354.29v-.1c0-9.68,7.59-17.27,17.84-17.27,5.88,0,9.92,1.75,13.47,4.79l-5.41,6.55c-2.42-2.04-4.65-3.13-8.02-3.13-4.74,0-8.49,3.99-8.49,9.06v.1c0,5.41,3.75,9.25,9.01,9.25,2.28,0,3.99-.47,5.31-1.38v-4.03h-6.5v-6.74h15.23v14.9c-3.56,2.99-8.3,5.17-14.42,5.17-10.39,0-18.03-7.07-18.03-17.17Z"/>
    <path class="st0" d="M361.77,354.29v-.1c0-9.54,7.69-17.27,17.93-17.27s17.84,7.69,17.84,17.17v.1c0,9.54-7.69,17.27-17.93,17.27s-17.84-7.69-17.84-17.17ZM388.1,354.29v-.1c0-4.84-3.42-8.97-8.49-8.97s-8.44,4.08-8.44,8.87v.1c0,4.74,3.46,8.97,8.54,8.97s8.4-4.08,8.4-8.87Z"/>
    <path class="st0" d="M411.64,337.35h8.87l14.14,33.45h-9.87l-2.37-5.98h-12.86l-2.37,5.98h-9.63l14.09-33.45ZM419.7,357.65l-3.7-9.39-3.75,9.39h7.45Z"/>
    <path class="st0" d="M441.72,345.65h-9.92v-8.07h29.08v8.07h-9.96v25.15h-9.2v-25.15Z"/>
    <path class="st0" d="M479.92,336.45h6.17v5.46h-6.17v-5.46ZM480.11,345.75h5.79v25.05h-5.79v-25.05Z"/>
    <path class="st0" d="M492.11,358.32v-.1c0-8.35,5.65-13,11.62-13,4.08,0,6.79,2.04,8.54,4.41v-13.47h5.74v34.63h-5.74v-4.18c-1.85,2.61-4.51,4.7-8.54,4.7-5.88,0-11.62-4.65-11.62-13ZM512.37,358.32v-.1c0-4.84-3.42-8.02-7.26-8.02s-7.21,3.08-7.21,8.02v.1c0,4.84,3.27,8.02,7.21,8.02s7.26-3.23,7.26-8.02Z"/>
    <path class="st0" d="M523.86,358.37v-.1c0-7.21,5.08-13.05,12.24-13.05,7.97,0,12,6.26,12,13.47,0,.52-.05,1.04-.1,1.61h-18.41c.62,4.13,3.46,6.36,7.21,6.36,2.85,0,4.74-1.04,6.79-2.99l3.37,2.99c-2.42,2.85-5.65,4.7-10.25,4.7-7.21,0-12.86-5.27-12.86-13ZM542.41,356.51c-.38-3.65-2.56-6.59-6.36-6.59-3.56,0-5.98,2.66-6.5,6.59h12.86Z"/>
    <path class="st0" d="M552.19,363.58v-.1c0-5.46,4.27-8.07,10.39-8.07,2.85,0,4.79.43,6.74,1.04v-.62c0-3.61-2.18-5.46-6.21-5.46-2.85,0-4.89.62-7.16,1.57l-1.57-4.51c2.8-1.19,5.5-2.04,9.49-2.04,3.75,0,6.5.95,8.3,2.8,1.85,1.85,2.7,4.46,2.7,7.73v14.85h-5.6v-3.13c-1.71,2.04-4.32,3.65-8.16,3.65-4.7,0-8.92-2.66-8.92-7.73ZM569.41,361.78v-1.71c-1.47-.57-3.42-1-5.69-1-3.75,0-5.88,1.52-5.88,4.18v.1c0,2.42,2.09,3.79,4.89,3.79,3.8,0,6.69-2.14,6.69-5.36Z"/>
    <path class="st0" d="M582.03,336.16h5.79v34.63h-5.79v-34.63Z"/>
    <path class="st0" d="M25.75,418.3v-.1c0-7.21,5.08-13.05,12.24-13.05,7.97,0,12,6.26,12,13.47,0,.52-.05,1.04-.1,1.61h-18.41c.62,4.13,3.46,6.36,7.21,6.36,2.85,0,4.74-1.04,6.79-2.99l3.37,2.99c-2.42,2.85-5.65,4.7-10.25,4.7-7.21,0-12.86-5.27-12.86-13ZM44.3,416.45c-.38-3.65-2.56-6.59-6.36-6.59-3.56,0-5.98,2.66-6.5,6.59h12.86Z"/>
    <path class="st0" d="M55.73,405.68h5.79v3.84c1.66-2.33,3.89-4.36,7.83-4.36,5.69,0,8.92,3.75,8.92,9.58v15.99h-5.74v-14.23c0-3.94-1.95-6.12-5.36-6.12s-5.64,2.28-5.64,6.22v14.14h-5.79v-25.05Z"/>
    <path class="st0" d="M99.72,396.1h5.79v34.63h-5.79v-34.63Z"/>
    <path class="st0" d="M111.3,423.52v-.1c0-5.46,4.27-8.07,10.39-8.07,2.85,0,4.79.43,6.74,1.04v-.62c0-3.61-2.18-5.46-6.21-5.46-2.85,0-4.89.62-7.16,1.57l-1.57-4.51c2.8-1.19,5.5-2.04,9.49-2.04,3.75,0,6.5.95,8.3,2.8,1.85,1.85,2.7,4.46,2.7,7.73v14.85h-5.6v-3.13c-1.71,2.04-4.32,3.65-8.16,3.65-4.7,0-8.92-2.66-8.92-7.73ZM128.52,421.72v-1.71c-1.47-.57-3.42-1-5.69-1-3.75,0-5.88,1.52-5.88,4.18v.1c0,2.42,2.09,3.79,4.89,3.79,3.8,0,6.69-2.14,6.69-5.36Z"/>
    <path class="st0" d="M153.05,427.46l2.56-3.89c2.8,2.04,5.6,3.08,8.21,3.08,2.47,0,3.89-1.04,3.89-2.7v-.09c0-1.9-2.66-2.61-5.6-3.51-3.65-1-7.83-2.56-7.83-7.31v-.1c0-4.79,3.94-7.69,8.92-7.69,3.18,0,6.55,1.09,9.2,2.85l-2.28,4.08c-2.42-1.47-4.98-2.37-7.07-2.37-2.23,0-3.51,1.09-3.51,2.47v.1c0,1.8,2.7,2.66,5.65,3.56,3.61,1.14,7.78,2.8,7.78,7.31v.1c0,5.27-4.08,7.88-9.3,7.88-3.61,0-7.45-1.23-10.63-3.75Z"/>
    <path class="st0" d="M178.96,396.39h6.17v5.46h-6.17v-5.46ZM179.15,405.68h5.79v25.05h-5.79v-25.05Z"/>
    <path class="st0" d="M192.39,435.43l2.14-4.32c2.7,1.66,5.5,2.61,8.92,2.61,5.12,0,7.92-2.56,7.92-7.64v-1.9c-2.09,2.66-4.7,4.55-8.82,4.55-5.93,0-11.39-4.36-11.39-11.72v-.1c0-7.4,5.5-11.77,11.39-11.77,4.22,0,6.83,1.95,8.78,4.27v-3.75h5.74v19.93c0,4.18-1.04,7.31-3.18,9.44-2.28,2.28-5.74,3.37-10.3,3.37-4.18,0-7.92-1-11.2-2.99ZM211.42,416.98v-.1c0-4.03-3.37-6.83-7.35-6.83s-7.12,2.7-7.12,6.83v.1c0,4.08,3.18,6.88,7.12,6.88s7.35-2.8,7.35-6.88Z"/>
    <path class="st0" d="M223.99,421.63v-15.94h5.74v14.23c0,3.94,1.95,6.07,5.36,6.07s5.65-2.23,5.65-6.17v-14.14h5.79v25.05h-5.79v-3.89c-1.66,2.42-3.99,4.41-7.83,4.41-5.69,0-8.92-3.75-8.92-9.63Z"/>
    <path class="st0" d="M253.79,396.39h6.17v5.46h-6.17v-5.46ZM253.98,405.68h5.79v25.05h-5.79v-25.05Z"/>
    <path class="st0" d="M265.89,418.3v-.1c0-7.21,5.08-13.05,12.24-13.05,7.97,0,12,6.26,12,13.47,0,.52-.05,1.04-.1,1.61h-18.41c.62,4.13,3.46,6.36,7.21,6.36,2.85,0,4.74-1.04,6.79-2.99l3.37,2.99c-2.42,2.85-5.65,4.7-10.25,4.7-7.21,0-12.86-5.27-12.86-13ZM284.44,416.45c-.38-3.65-2.56-6.59-6.36-6.59-3.56,0-5.98,2.66-6.5,6.59h12.86Z"/>
    <path class="st0" d="M295.88,405.68h5.79v3.84c1.66-2.33,3.89-4.36,7.83-4.36,5.69,0,8.92,3.75,8.92,9.58v15.99h-5.74v-14.23c0-3.94-1.95-6.12-5.36-6.12s-5.64,2.28-5.64,6.22v14.14h-5.79v-25.05Z"/>
    <path class="st0" d="M326.54,423.81v-13.19h-3.18v-4.93h3.18v-6.88h5.74v6.88h6.74v4.93h-6.74v12.29c0,2.23,1.14,3.13,3.08,3.13,1.23,0,2.42-.28,3.56-.85v4.7c-1.47.81-2.94,1.28-5.17,1.28-4.22,0-7.21-1.85-7.21-7.35Z"/>
    <path class="st0" d="M342.76,418.3v-.1c0-7.21,5.08-13.05,12.24-13.05,7.97,0,12,6.26,12,13.47,0,.52-.05,1.04-.1,1.61h-18.41c.62,4.13,3.46,6.36,7.21,6.36,2.85,0,4.74-1.04,6.79-2.99l3.37,2.99c-2.42,2.85-5.65,4.7-10.25,4.7-7.21,0-12.86-5.27-12.86-13ZM361.31,416.45c-.38-3.65-2.56-6.59-6.36-6.59-3.56,0-5.98,2.66-6.5,6.59h12.86Z"/>
    <path class="st0" d="M385.32,423.52v-.1c0-5.46,4.27-8.07,10.39-8.07,2.85,0,4.79.43,6.74,1.04v-.62c0-3.61-2.18-5.46-6.21-5.46-2.85,0-4.89.62-7.16,1.57l-1.57-4.51c2.8-1.19,5.5-2.04,9.49-2.04,3.75,0,6.5.95,8.3,2.8,1.85,1.85,2.7,4.46,2.7,7.73v14.85h-5.6v-3.13c-1.71,2.04-4.32,3.65-8.16,3.65-4.7,0-8.92-2.66-8.92-7.73ZM402.55,421.72v-1.71c-1.47-.57-3.42-1-5.69-1-3.75,0-5.88,1.52-5.88,4.18v.1c0,2.42,2.09,3.79,4.89,3.79,3.8,0,6.69-2.14,6.69-5.36Z"/>
    <path class="st0" d="M413.51,418.35v-.09c0-7.12,5.5-13.09,13.05-13.09,4.7,0,7.59,1.75,10.01,4.32l-3.61,3.84c-1.75-1.85-3.61-3.13-6.45-3.13-4.18,0-7.26,3.6-7.26,7.97v.1c0,4.46,3.08,8.02,7.5,8.02,2.7,0,4.65-1.23,6.5-3.08l3.46,3.42c-2.47,2.8-5.36,4.7-10.25,4.7-7.45,0-12.95-5.84-12.95-12.95Z"/>
    <path class="st0" d="M443.17,423.81v-13.19h-3.18v-4.93h3.18v-6.88h5.74v6.88h6.74v4.93h-6.74v12.29c0,2.23,1.14,3.13,3.08,3.13,1.23,0,2.42-.28,3.56-.85v4.7c-1.47.81-2.94,1.28-5.17,1.28-4.22,0-7.21-1.85-7.21-7.35Z"/>
    <path class="st0" d="M461.58,396.39h6.17v5.46h-6.17v-5.46ZM461.77,405.68h5.79v25.05h-5.79v-25.05Z"/>
    <path class="st0" d="M472.68,405.68h6.17l6.74,18.41,6.79-18.41h6.03l-10.25,25.24h-5.17l-10.29-25.24Z"/>
    <path class="st0" d="M503.38,396.39h6.17v5.46h-6.17v-5.46ZM503.57,405.68h5.79v25.05h-5.79v-25.05Z"/>
    <path class="st0" d="M515.58,418.26v-.1c0-8.35,5.65-13,11.62-13,4.08,0,6.79,2.04,8.54,4.41v-13.47h5.74v34.63h-5.74v-4.18c-1.85,2.61-4.51,4.7-8.54,4.7-5.88,0-11.62-4.65-11.62-13ZM535.84,418.26v-.1c0-4.84-3.42-8.02-7.26-8.02s-7.21,3.08-7.21,8.02v.1c0,4.84,3.27,8.02,7.21,8.02s7.26-3.23,7.26-8.02Z"/>
    <path class="st0" d="M546.99,423.52v-.1c0-5.46,4.27-8.07,10.39-8.07,2.85,0,4.79.43,6.74,1.04v-.62c0-3.61-2.18-5.46-6.21-5.46-2.85,0-4.89.62-7.16,1.57l-1.57-4.51c2.8-1.19,5.5-2.04,9.49-2.04,3.75,0,6.5.95,8.3,2.8,1.85,1.85,2.7,4.46,2.7,7.73v14.85h-5.6v-3.13c-1.71,2.04-4.32,3.65-8.16,3.65-4.7,0-8.92-2.66-8.92-7.73ZM564.21,421.72v-1.71c-1.47-.57-3.42-1-5.69-1-3.75,0-5.88,1.52-5.88,4.18v.1c0,2.42,2.09,3.79,4.89,3.79,3.8,0,6.69-2.14,6.69-5.36Z"/>
    <path class="st0" d="M575.27,418.26v-.1c0-8.35,5.65-13,11.62-13,4.08,0,6.79,2.04,8.54,4.41v-13.47h5.74v34.63h-5.74v-4.18c-1.85,2.61-4.51,4.7-8.54,4.7-5.88,0-11.62-4.65-11.62-13ZM595.53,418.26v-.1c0-4.84-3.42-8.02-7.26-8.02s-7.21,3.08-7.21,8.02v.1c0,4.84,3.27,8.02,7.21,8.02s7.26-3.23,7.26-8.02Z"/>
    <path class="st0" d="M608.02,424.19h6.31v6.55h-6.31v-6.55Z"/>
  </g>
  <g>
    <path class="st0" d="M40.64,22.94h24.62v5.22h-18.79v8.63h16.65v5.27h-16.65v8.87h19.02v5.22h-24.86V22.94Z"/>
    <path class="st0" d="M69.73,52.87l2.56-3.89c2.8,2.04,5.6,3.08,8.21,3.08,2.47,0,3.89-1.04,3.89-2.7v-.1c0-1.9-2.66-2.61-5.6-3.51-3.65-1-7.83-2.56-7.83-7.31v-.1c0-4.79,3.94-7.69,8.92-7.69,3.18,0,6.55,1.09,9.2,2.85l-2.28,4.08c-2.42-1.47-4.98-2.37-7.07-2.37-2.23,0-3.51,1.09-3.51,2.47v.1c0,1.8,2.7,2.66,5.65,3.56,3.61,1.14,7.78,2.8,7.78,7.31v.09c0,5.27-4.08,7.88-9.3,7.88-3.61,0-7.45-1.23-10.63-3.75Z"/>
    <path class="st0" d="M94.17,43.76v-.1c0-7.12,5.5-13.09,13.05-13.09,4.7,0,7.59,1.76,10.01,4.32l-3.61,3.84c-1.75-1.85-3.61-3.13-6.45-3.13-4.18,0-7.26,3.61-7.26,7.97v.09c0,4.46,3.08,8.02,7.5,8.02,2.7,0,4.65-1.23,6.5-3.08l3.46,3.42c-2.47,2.8-5.36,4.7-10.25,4.7-7.45,0-12.95-5.84-12.95-12.95Z"/>
    <path class="st0" d="M120.93,48.94v-.1c0-5.46,4.27-8.07,10.39-8.07,2.85,0,4.79.43,6.74,1.04v-.62c0-3.61-2.18-5.46-6.21-5.46-2.85,0-4.89.62-7.16,1.57l-1.57-4.51c2.8-1.19,5.5-2.04,9.49-2.04,3.75,0,6.5.95,8.3,2.8,1.85,1.85,2.7,4.46,2.7,7.73v14.85h-5.6v-3.13c-1.71,2.04-4.32,3.65-8.16,3.65-4.7,0-8.92-2.66-8.92-7.73ZM138.15,47.13v-1.71c-1.47-.57-3.42-1-5.69-1-3.75,0-5.88,1.52-5.88,4.18v.09c0,2.42,2.09,3.8,4.89,3.8,3.8,0,6.69-2.14,6.69-5.36Z"/>
    <path class="st0" d="M150.44,31.1h5.79v3.84c1.66-2.33,3.89-4.37,7.83-4.37,5.69,0,8.92,3.75,8.92,9.58v15.99h-5.74v-14.23c0-3.94-1.95-6.12-5.36-6.12s-5.64,2.28-5.64,6.22v14.14h-5.79v-25.05Z"/>
    <path class="st0" d="M178.54,43.72v-.1c0-7.21,5.08-13.05,12.24-13.05,7.97,0,12,6.26,12,13.47,0,.52-.05,1.04-.1,1.61h-18.41c.62,4.13,3.46,6.36,7.21,6.36,2.85,0,4.74-1.04,6.79-2.99l3.37,2.99c-2.42,2.85-5.65,4.7-10.25,4.7-7.21,0-12.86-5.27-12.86-13ZM197.09,41.87c-.38-3.65-2.56-6.59-6.36-6.59-3.56,0-5.98,2.66-6.5,6.59h12.86Z"/>
    <path class="st0" d="M206.86,48.94v-.1c0-5.46,4.27-8.07,10.39-8.07,2.85,0,4.79.43,6.74,1.04v-.62c0-3.61-2.18-5.46-6.21-5.46-2.85,0-4.89.62-7.16,1.57l-1.57-4.51c2.8-1.19,5.5-2.04,9.49-2.04,3.75,0,6.5.95,8.3,2.8,1.85,1.85,2.7,4.46,2.7,7.73v14.85h-5.6v-3.13c-1.71,2.04-4.32,3.65-8.16,3.65-4.7,0-8.92-2.66-8.92-7.73ZM224.08,47.13v-1.71c-1.47-.57-3.42-1-5.69-1-3.75,0-5.88,1.52-5.88,4.18v.09c0,2.42,2.09,3.8,4.89,3.8,3.8,0,6.69-2.14,6.69-5.36Z"/>
    <path class="st0" d="M250.61,31.1h5.79v4.18c1.85-2.61,4.41-4.7,8.54-4.7,5.88,0,11.62,4.65,11.62,13v.09c0,8.35-5.69,13-11.62,13-4.18,0-6.79-2.09-8.54-4.41v11.48h-5.79V31.1ZM270.73,43.67v-.09c0-4.84-3.32-8.02-7.16-8.02s-7.31,3.23-7.31,8.02v.09c0,4.79,3.37,8.02,7.31,8.02s7.16-3.08,7.16-8.02Z"/>
    <path class="st0" d="M280.79,48.94v-.1c0-5.46,4.27-8.07,10.39-8.07,2.85,0,4.79.43,6.74,1.04v-.62c0-3.61-2.18-5.46-6.21-5.46-2.85,0-4.89.62-7.16,1.57l-1.57-4.51c2.8-1.19,5.5-2.04,9.49-2.04,3.75,0,6.5.95,8.3,2.8,1.85,1.85,2.7,4.46,2.7,7.73v14.85h-5.6v-3.13c-1.71,2.04-4.32,3.65-8.16,3.65-4.7,0-8.92-2.66-8.92-7.73ZM298.01,47.13v-1.71c-1.47-.57-3.42-1-5.69-1-3.75,0-5.88,1.52-5.88,4.18v.09c0,2.42,2.09,3.8,4.89,3.8,3.8,0,6.69-2.14,6.69-5.36Z"/>
    <path class="st0" d="M310.31,31.1h5.79v5.65c1.56-3.79,4.46-6.31,8.87-6.12v6.07h-.33c-5.08,0-8.54,3.27-8.54,9.92v9.54h-5.79v-25.05Z"/>
    <path class="st0" d="M327.05,48.94v-.1c0-5.46,4.27-8.07,10.39-8.07,2.85,0,4.79.43,6.74,1.04v-.62c0-3.61-2.18-5.46-6.21-5.46-2.85,0-4.89.62-7.16,1.57l-1.57-4.51c2.8-1.19,5.5-2.04,9.49-2.04,3.75,0,6.5.95,8.3,2.8,1.85,1.85,2.7,4.46,2.7,7.73v14.85h-5.6v-3.13c-1.71,2.04-4.32,3.65-8.16,3.65-4.7,0-8.92-2.66-8.92-7.73ZM344.28,47.13v-1.71c-1.47-.57-3.42-1-5.69-1-3.75,0-5.88,1.52-5.88,4.18v.09c0,2.42,2.09,3.8,4.89,3.8,3.8,0,6.69-2.14,6.69-5.36Z"/>
    <path class="st0" d="M369.57,43.67v-.09c0-8.35,5.65-13,11.62-13,4.08,0,6.79,2.04,8.54,4.41v-13.47h5.74v34.63h-5.74v-4.18c-1.85,2.61-4.51,4.7-8.54,4.7-5.88,0-11.62-4.65-11.62-13ZM389.83,43.67v-.09c0-4.84-3.42-8.02-7.26-8.02s-7.21,3.08-7.21,8.02v.09c0,4.84,3.27,8.02,7.21,8.02s7.26-3.23,7.26-8.02Z"/>
    <path class="st0" d="M401.32,43.72v-.1c0-7.21,5.08-13.05,12.24-13.05,7.97,0,12,6.26,12,13.47,0,.52-.05,1.04-.1,1.61h-18.41c.62,4.13,3.46,6.36,7.21,6.36,2.85,0,4.74-1.04,6.79-2.99l3.37,2.99c-2.42,2.85-5.65,4.7-10.25,4.7-7.21,0-12.86-5.27-12.86-13ZM419.87,41.87c-.38-3.65-2.56-6.59-6.36-6.59-3.56,0-5.98,2.66-6.5,6.59h12.86Z"/>
    <path class="st0" d="M429.31,52.87l2.56-3.89c2.8,2.04,5.6,3.08,8.21,3.08,2.47,0,3.89-1.04,3.89-2.7v-.1c0-1.9-2.66-2.61-5.6-3.51-3.65-1-7.83-2.56-7.83-7.31v-.1c0-4.79,3.94-7.69,8.92-7.69,3.18,0,6.55,1.09,9.2,2.85l-2.28,4.08c-2.42-1.47-4.98-2.37-7.07-2.37-2.23,0-3.51,1.09-3.51,2.47v.1c0,1.8,2.7,2.66,5.65,3.56,3.61,1.14,7.78,2.8,7.78,7.31v.09c0,5.27-4.08,7.88-9.3,7.88-3.61,0-7.45-1.23-10.63-3.75Z"/>
    <path class="st0" d="M453.75,43.76v-.1c0-7.12,5.5-13.09,13.05-13.09,4.7,0,7.59,1.76,10.01,4.32l-3.61,3.84c-1.75-1.85-3.61-3.13-6.45-3.13-4.18,0-7.26,3.61-7.26,7.97v.09c0,4.46,3.08,8.02,7.5,8.02,2.7,0,4.65-1.23,6.5-3.08l3.46,3.42c-2.47,2.8-5.36,4.7-10.25,4.7-7.45,0-12.95-5.84-12.95-12.95Z"/>
    <path class="st0" d="M480.51,48.94v-.1c0-5.46,4.27-8.07,10.39-8.07,2.85,0,4.79.43,6.74,1.04v-.62c0-3.61-2.18-5.46-6.21-5.46-2.85,0-4.89.62-7.16,1.57l-1.57-4.51c2.8-1.19,5.5-2.04,9.49-2.04,3.75,0,6.5.95,8.3,2.8,1.85,1.85,2.7,4.46,2.7,7.73v14.85h-5.6v-3.13c-1.71,2.04-4.32,3.65-8.16,3.65-4.7,0-8.92-2.66-8.92-7.73ZM497.73,47.13v-1.71c-1.47-.57-3.42-1-5.69-1-3.75,0-5.88,1.52-5.88,4.18v.09c0,2.42,2.09,3.8,4.89,3.8,3.8,0,6.69-2.14,6.69-5.36Z"/>
    <path class="st0" d="M510.03,31.1h5.79v5.65c1.56-3.79,4.46-6.31,8.87-6.12v6.07h-.33c-5.08,0-8.54,3.27-8.54,9.92v9.54h-5.79v-25.05Z"/>
    <path class="st0" d="M528.96,60.84l2.14-4.32c2.7,1.66,5.5,2.61,8.92,2.61,5.12,0,7.92-2.56,7.92-7.64v-1.9c-2.09,2.66-4.69,4.55-8.82,4.55-5.93,0-11.39-4.37-11.39-11.72v-.1c0-7.4,5.5-11.77,11.39-11.77,4.22,0,6.83,1.95,8.78,4.27v-3.75h5.74v19.93c0,4.18-1.04,7.31-3.18,9.44-2.28,2.28-5.74,3.37-10.29,3.37-4.18,0-7.92-1-11.2-2.99ZM547.98,42.39v-.1c0-4.03-3.37-6.83-7.35-6.83s-7.12,2.7-7.12,6.83v.1c0,4.08,3.18,6.88,7.12,6.88s7.35-2.8,7.35-6.88Z"/>
    <path class="st0" d="M559.14,48.94v-.1c0-5.46,4.27-8.07,10.39-8.07,2.85,0,4.79.43,6.74,1.04v-.62c0-3.61-2.18-5.46-6.21-5.46-2.85,0-4.89.62-7.17,1.57l-1.57-4.51c2.8-1.19,5.5-2.04,9.49-2.04,3.75,0,6.5.95,8.3,2.8,1.85,1.85,2.7,4.46,2.7,7.73v14.85h-5.6v-3.13c-1.71,2.04-4.32,3.65-8.16,3.65-4.7,0-8.92-2.66-8.92-7.73ZM576.36,47.13v-1.71c-1.47-.57-3.42-1-5.69-1-3.75,0-5.88,1.52-5.88,4.18v.09c0,2.42,2.09,3.8,4.89,3.8,3.79,0,6.69-2.14,6.69-5.36Z"/>
    <path class="st0" d="M588.65,31.1h5.79v5.65c1.57-3.79,4.46-6.31,8.87-6.12v6.07h-.33c-5.08,0-8.54,3.27-8.54,9.92v9.54h-5.79v-25.05Z"/>
    <path class="st0" d="M205.56,109.16v-13.19h-3.18v-4.93h3.18v-6.88h5.74v6.88h6.74v4.93h-6.74v12.29c0,2.23,1.14,3.13,3.08,3.13,1.23,0,2.42-.28,3.56-.85v4.7c-1.47.81-2.94,1.28-5.17,1.28-4.22,0-7.21-1.85-7.21-7.35Z"/>
    <path class="st0" d="M223.59,106.98v-15.94h5.74v14.23c0,3.94,1.95,6.07,5.36,6.07s5.64-2.23,5.64-6.17v-14.14h5.79v25.05h-5.79v-3.89c-1.66,2.42-3.99,4.41-7.83,4.41-5.69,0-8.92-3.75-8.92-9.63Z"/>
    <path class="st0" d="M267.62,81.74h6.17v5.46h-6.17v-5.46ZM267.81,91.03h5.79v25.05h-5.79v-25.05Z"/>
    <path class="st0" d="M281.05,91.03h5.79v3.8c1.61-2.23,3.79-4.32,7.64-4.32,3.61,0,6.17,1.76,7.5,4.41,2.04-2.66,4.65-4.41,8.44-4.41,5.5,0,8.78,3.46,8.78,9.58v15.99h-5.74v-14.23c0-3.99-1.85-6.12-5.08-6.12s-5.36,2.18-5.36,6.22v14.14h-5.74v-14.28c0-3.94-1.85-6.07-5.08-6.07s-5.36,2.37-5.36,6.22v14.14h-5.79v-25.05Z"/>
    <path class="st0" d="M324.42,108.87v-.1c0-5.46,4.27-8.07,10.39-8.07,2.85,0,4.79.43,6.74,1.04v-.62c0-3.61-2.18-5.46-6.21-5.46-2.85,0-4.89.62-7.16,1.57l-1.57-4.51c2.8-1.19,5.5-2.04,9.49-2.04,3.75,0,6.5.95,8.3,2.8,1.85,1.85,2.7,4.46,2.7,7.73v14.85h-5.6v-3.13c-1.71,2.04-4.32,3.65-8.16,3.65-4.7,0-8.92-2.66-8.92-7.73ZM341.64,107.07v-1.71c-1.47-.57-3.42-1-5.69-1-3.75,0-5.88,1.52-5.88,4.18v.09c0,2.42,2.09,3.8,4.89,3.8,3.8,0,6.69-2.14,6.69-5.36Z"/>
    <path class="st0" d="M353.94,120.78l2.14-4.32c2.7,1.66,5.5,2.61,8.92,2.61,5.12,0,7.92-2.56,7.92-7.64v-1.9c-2.09,2.66-4.7,4.55-8.82,4.55-5.93,0-11.39-4.37-11.39-11.72v-.1c0-7.4,5.5-11.77,11.39-11.77,4.22,0,6.83,1.95,8.78,4.27v-3.75h5.74v19.93c0,4.18-1.04,7.31-3.18,9.44-2.28,2.28-5.74,3.37-10.3,3.37-4.18,0-7.92-1-11.2-2.99ZM372.96,102.33v-.1c0-4.03-3.37-6.83-7.35-6.83s-7.12,2.7-7.12,6.83v.1c0,4.08,3.18,6.88,7.12,6.88s7.35-2.8,7.35-6.88Z"/>
    <path class="st0" d="M384.45,103.65v-.1c0-7.21,5.08-13.05,12.24-13.05,7.97,0,12,6.26,12,13.47,0,.52-.05,1.04-.1,1.61h-18.41c.62,4.13,3.46,6.36,7.21,6.36,2.85,0,4.74-1.04,6.79-2.99l3.37,2.99c-2.42,2.85-5.65,4.7-10.25,4.7-7.21,0-12.86-5.27-12.86-13ZM403,101.8c-.38-3.65-2.56-6.59-6.36-6.59-3.56,0-5.98,2.66-6.5,6.59h12.86Z"/>
    <path class="st0" d="M414.44,91.03h5.79v3.84c1.66-2.33,3.89-4.37,7.83-4.37,5.69,0,8.92,3.75,8.92,9.58v15.99h-5.74v-14.23c0-3.94-1.95-6.12-5.36-6.12s-5.64,2.28-5.64,6.22v14.14h-5.79v-25.05Z"/>
  </g>
</svg>