<?xml version="1.0" encoding="UTF-8"?>
<svg id="Layer_1" xmlns="http://www.w3.org/2000/svg" xmlns:xlink="http://www.w3.org/1999/xlink" version="1.1" viewBox="0 0 527.83 154.78">
  <!-- Generator: Adobe Illustrator 29.7.1, SVG Export Plug-In . SVG Version: 2.1.1 Build 8)  -->
  <defs>
    <style>
      .st0 {
        fill: url(#New_Gradient_Swatch_1);
      }
    </style>
    <linearGradient id="New_Gradient_Swatch_1" data-name="New Gradient Swatch 1" x1="22.2" y1="77.39" x2="505.63" y2="77.39" gradientUnits="userSpaceOnUse">
      <stop offset="0" stop-color="#f15b5d"/>
      <stop offset=".48" stop-color="#f68d40"/>
      <stop offset="1" stop-color="#5b8eca"/>
    </linearGradient>
  </defs>
  <path class="st0" d="M31.26,42.44h3v11.82h15.35v-11.82h3v26.6h-3v-11.97h-15.35v11.97h-3v-26.6Z"/>
  <path class="st0" d="M58.17,63.33v-.08c0-4.1,3.42-6.34,8.4-6.34,2.55,0,4.26.34,6.04.84v-.68c0-3.53-2.17-5.36-5.85-5.36-2.32,0-4.14.57-5.97,1.44l-.87-2.39c2.17-1.03,4.26-1.63,7.14-1.63s4.9.72,6.35,2.17c1.33,1.33,2.01,3.27,2.01,5.74v12.01h-2.81v-2.96c-1.37,1.79-3.61,3.38-7.1,3.38s-7.33-2.05-7.33-6.12ZM72.64,61.81v-1.9c-1.48-.42-3.34-.84-5.78-.84-3.69,0-5.74,1.6-5.74,4.07v.08c0,2.47,2.32,3.91,4.94,3.91,3.65,0,6.57-2.2,6.57-5.32Z"/>
  <path class="st0" d="M80.51,67.17l13.03-15.31h-12.58v-2.47h16.57v1.86l-13.07,15.31h13.07v2.47h-17.02v-1.86Z"/>
  <path class="st0" d="M103.04,41.3h2.93v27.74h-2.93v-27.74Z"/>
  <path class="st0" d="M111.55,59.3v-.08c0-5.58,4.29-10.26,10.26-10.26s10.22,4.64,10.22,10.18v.08c0,5.58-4.37,10.26-10.3,10.26s-10.18-4.64-10.18-10.18ZM129.03,59.3v-.08c0-4.22-3.15-7.67-7.29-7.67s-7.18,3.46-7.18,7.6v.08c0,4.22,3.12,7.64,7.26,7.64s7.22-3.46,7.22-7.56Z"/>
  <path class="st0" d="M147.24,63.33v-.08c0-4.1,3.42-6.34,8.4-6.34,2.55,0,4.26.34,6.04.84v-.68c0-3.53-2.17-5.36-5.85-5.36-2.32,0-4.14.57-5.97,1.44l-.87-2.39c2.17-1.03,4.26-1.63,7.14-1.63s4.9.72,6.35,2.17c1.33,1.33,2.01,3.27,2.01,5.74v12.01h-2.81v-2.96c-1.37,1.79-3.61,3.38-7.1,3.38s-7.33-2.05-7.33-6.12ZM161.71,61.81v-1.9c-1.48-.42-3.34-.84-5.78-.84-3.69,0-5.74,1.6-5.74,4.07v.08c0,2.47,2.32,3.91,4.94,3.91,3.65,0,6.57-2.2,6.57-5.32Z"/>
  <path class="st0" d="M170.72,41.3h2.93v11.51c1.33-2.13,3.34-3.84,6.73-3.84,4.71,0,7.52,3.19,7.52,7.87v12.2h-2.93v-11.47c0-3.65-1.94-5.93-5.43-5.93s-5.89,2.47-5.89,6.16v11.25h-2.93v-27.74Z"/>
  <path class="st0" d="M192.91,59.3v-.08c0-5.58,4.29-10.26,10.26-10.26s10.22,4.64,10.22,10.18v.08c0,5.58-4.37,10.26-10.3,10.26s-10.18-4.64-10.18-10.18ZM210.39,59.3v-.08c0-4.22-3.15-7.67-7.29-7.67s-7.18,3.46-7.18,7.6v.08c0,4.22,3.12,7.64,7.26,7.64s7.22-3.46,7.22-7.56Z"/>
  <path class="st0" d="M218.68,49.39h2.93v5.13c1.44-3.27,4.29-5.58,8.02-5.47v3.15h-.23c-4.29,0-7.79,3.08-7.79,9v7.83h-2.93v-19.64Z"/>
  <path class="st0" d="M231.63,63.33v-.08c0-4.1,3.42-6.34,8.4-6.34,2.55,0,4.26.34,6.04.84v-.68c0-3.53-2.17-5.36-5.85-5.36-2.32,0-4.14.57-5.97,1.44l-.87-2.39c2.17-1.03,4.26-1.63,7.14-1.63s4.9.72,6.35,2.17c1.33,1.33,2.01,3.27,2.01,5.74v12.01h-2.81v-2.96c-1.37,1.79-3.61,3.38-7.1,3.38s-7.33-2.05-7.33-6.12ZM246.11,61.81v-1.9c-1.48-.42-3.34-.84-5.78-.84-3.69,0-5.74,1.6-5.74,4.07v.08c0,2.47,2.32,3.91,4.94,3.91,3.65,0,6.57-2.2,6.57-5.32Z"/>
  <path class="st0" d="M265.3,59.3v-.08c0-5.58,4.29-10.26,10.07-10.26,3.72,0,6,1.52,7.87,3.5l-1.94,2.05c-1.56-1.63-3.27-2.96-5.97-2.96-3.99,0-7.03,3.34-7.03,7.6v.08c0,4.26,3.12,7.64,7.22,7.64,2.55,0,4.45-1.25,6-2.92l1.86,1.75c-1.98,2.24-4.33,3.8-8.02,3.8-5.77,0-10.07-4.67-10.07-10.18Z"/>
  <path class="st0" d="M286.43,59.3v-.08c0-5.58,4.29-10.26,10.26-10.26s10.22,4.64,10.22,10.18v.08c0,5.58-4.37,10.26-10.3,10.26s-10.18-4.64-10.18-10.18ZM303.91,59.3v-.08c0-4.22-3.15-7.67-7.29-7.67s-7.18,3.46-7.18,7.6v.08c0,4.22,3.12,7.64,7.26,7.64s7.22-3.46,7.22-7.56Z"/>
  <path class="st0" d="M312.19,49.39h2.93v3.42c1.33-2.13,3.34-3.84,6.72-3.84,4.71,0,7.52,3.19,7.52,7.87v12.2h-2.93v-11.47c0-3.65-1.94-5.93-5.43-5.93s-5.89,2.47-5.89,6.16v11.25h-2.93v-19.64Z"/>
  <path class="st0" d="M345.78,59.27v-.08c0-5.66,3.95-10.22,9.42-10.22,5.81,0,9.16,4.64,9.16,10.37,0,.42,0,.61-.04.95h-15.58c.42,4.25,3.42,6.65,6.92,6.65,2.74,0,4.56-1.1,6.19-2.77l1.82,1.63c-1.98,2.24-4.33,3.69-8.09,3.69-5.36,0-9.8-4.14-9.8-10.22ZM361.4,58.13c-.3-3.53-2.32-6.69-6.27-6.69-3.46,0-5.97,2.89-6.38,6.69h12.65Z"/>
  <path class="st0" d="M369.76,41.3h2.92v27.74h-2.92v-27.74Z"/>
  <path class="st0" d="M390.89,49.39h2.92v3.95c1.63-2.32,3.88-4.37,7.52-4.37,4.71,0,9.38,3.72,9.38,10.18v.08c0,6.38-4.64,10.22-9.38,10.22-3.65,0-6-1.94-7.52-4.18v9.84h-2.92v-25.72ZM407.72,59.27v-.08c0-4.67-3.15-7.6-6.92-7.6s-7.1,3.12-7.1,7.56v.08c0,4.56,3.46,7.6,7.1,7.6s6.92-2.81,6.92-7.56Z"/>
  <path class="st0" d="M414.9,59.3v-.08c0-5.58,4.29-10.26,10.26-10.26s10.22,4.64,10.22,10.18v.08c0,5.58-4.37,10.26-10.3,10.26s-10.18-4.64-10.18-10.18ZM432.38,59.3v-.08c0-4.22-3.15-7.67-7.29-7.67s-7.18,3.46-7.18,7.6v.08c0,4.22,3.12,7.64,7.26,7.64s7.22-3.46,7.22-7.56Z"/>
  <path class="st0" d="M439.53,59.27v-.08c0-6.38,4.67-10.22,9.38-10.22,3.65,0,6,1.94,7.52,4.18v-11.85h2.93v27.74h-2.93v-3.95c-1.63,2.36-3.88,4.37-7.52,4.37-4.71,0-9.38-3.72-9.38-10.18ZM456.55,59.23v-.08c0-4.52-3.46-7.56-7.1-7.56s-6.92,2.81-6.92,7.56v.08c0,4.67,3.15,7.6,6.92,7.6s7.1-3.08,7.1-7.6Z"/>
  <path class="st0" d="M464.68,59.27v-.08c0-5.66,3.95-10.22,9.42-10.22,5.81,0,9.16,4.64,9.16,10.37,0,.42,0,.61-.04.95h-15.58c.42,4.25,3.42,6.65,6.92,6.65,2.74,0,4.56-1.1,6.19-2.77l1.82,1.63c-1.98,2.24-4.33,3.69-8.09,3.69-5.36,0-9.8-4.14-9.8-10.22ZM480.3,58.13c-.3-3.53-2.32-6.69-6.27-6.69-3.46,0-5.97,2.89-6.38,6.69h12.65Z"/>
  <path class="st0" d="M488.39,49.39h2.93v5.13c1.44-3.27,4.29-5.58,8.02-5.47v3.15h-.23c-4.29,0-7.79,3.08-7.79,9v7.83h-2.93v-19.64Z"/>
  <path class="st0" d="M22.2,93.39h2.93v5.13c1.44-3.27,4.29-5.58,8.02-5.47v3.15h-.23c-4.29,0-7.79,3.08-7.79,9v7.83h-2.93v-19.64Z"/>
  <path class="st0" d="M35.54,103.27v-.08c0-5.66,3.95-10.22,9.42-10.22,5.81,0,9.16,4.64,9.16,10.37,0,.42,0,.61-.04.95h-15.58c.42,4.25,3.42,6.65,6.92,6.65,2.74,0,4.56-1.1,6.19-2.77l1.82,1.63c-1.98,2.24-4.33,3.69-8.09,3.69-5.36,0-9.8-4.14-9.8-10.22ZM51.15,102.13c-.3-3.53-2.32-6.69-6.27-6.69-3.46,0-5.97,2.89-6.38,6.69h12.65Z"/>
  <path class="st0" d="M56.36,93.39h3.23l6.61,16.3,6.65-16.3h3.15l-8.55,19.8h-2.58l-8.51-19.8Z"/>
  <path class="st0" d="M78.25,103.3v-.08c0-5.58,4.29-10.26,10.26-10.26s10.22,4.64,10.22,10.18v.08c0,5.58-4.37,10.26-10.3,10.26s-10.18-4.64-10.18-10.18ZM95.73,103.3v-.08c0-4.22-3.15-7.67-7.29-7.67s-7.18,3.46-7.18,7.6v.08c0,4.22,3.12,7.64,7.26,7.64s7.22-3.46,7.22-7.56Z"/>
  <path class="st0" d="M104.28,85.3h2.93v27.74h-2.93v-27.74Z"/>
  <path class="st0" d="M113.7,105.58v-12.2h2.93v11.47c0,3.65,1.94,5.93,5.43,5.93s5.89-2.47,5.89-6.16v-11.25h2.89v19.64h-2.89v-3.42c-1.33,2.13-3.34,3.84-6.73,3.84-4.71,0-7.52-3.19-7.52-7.87Z"/>
  <path class="st0" d="M136.2,103.3v-.08c0-5.58,4.29-10.26,10.07-10.26,3.72,0,6,1.52,7.86,3.5l-1.94,2.05c-1.56-1.63-3.27-2.96-5.97-2.96-3.99,0-7.03,3.34-7.03,7.6v.08c0,4.26,3.12,7.64,7.22,7.64,2.55,0,4.45-1.25,6-2.92l1.86,1.75c-1.98,2.24-4.33,3.8-8.02,3.8-5.77,0-10.07-4.67-10.07-10.18Z"/>
  <path class="st0" d="M159.19,85.87h3.34v3.23h-3.34v-3.23ZM159.38,93.39h2.93v19.64h-2.93v-19.64Z"/>
  <path class="st0" d="M167.89,103.3v-.08c0-5.58,4.29-10.26,10.26-10.26s10.22,4.64,10.22,10.18v.08c0,5.58-4.37,10.26-10.3,10.26s-10.18-4.64-10.18-10.18ZM185.37,103.3v-.08c0-4.22-3.15-7.67-7.29-7.67s-7.18,3.46-7.18,7.6v.08c0,4.22,3.12,7.64,7.26,7.64s7.22-3.46,7.22-7.56Z"/>
  <path class="st0" d="M193.65,93.39h2.93v3.42c1.33-2.13,3.34-3.84,6.73-3.84,4.71,0,7.52,3.19,7.52,7.87v12.2h-2.93v-11.47c0-3.65-1.94-5.93-5.43-5.93s-5.89,2.47-5.89,6.16v11.25h-2.93v-19.64Z"/>
  <path class="st0" d="M215.58,107.33v-.08c0-4.1,3.42-6.34,8.4-6.34,2.55,0,4.26.34,6.04.84v-.68c0-3.53-2.17-5.36-5.85-5.36-2.32,0-4.14.57-5.97,1.44l-.87-2.39c2.17-1.03,4.26-1.63,7.14-1.63s4.9.72,6.35,2.17c1.33,1.33,2.01,3.27,2.01,5.74v12.01h-2.81v-2.96c-1.37,1.79-3.61,3.38-7.1,3.38s-7.33-2.05-7.33-6.12ZM230.06,105.81v-1.9c-1.48-.42-3.34-.84-5.78-.84-3.69,0-5.74,1.6-5.74,4.07v.08c0,2.47,2.32,3.91,4.94,3.91,3.65,0,6.57-2.2,6.57-5.32Z"/>
  <path class="st0" d="M239.06,93.39h2.93v5.13c1.44-3.27,4.29-5.58,8.02-5.47v3.15h-.23c-4.29,0-7.79,3.08-7.79,9v7.83h-2.93v-19.64Z"/>
  <path class="st0" d="M254.53,85.87h3.34v3.23h-3.34v-3.23ZM254.72,93.39h2.93v19.64h-2.93v-19.64Z"/>
  <path class="st0" d="M263.23,103.3v-.08c0-5.58,4.29-10.26,10.26-10.26s10.22,4.64,10.22,10.18v.08c0,5.58-4.37,10.26-10.3,10.26s-10.18-4.64-10.18-10.18ZM280.71,103.3v-.08c0-4.22-3.15-7.67-7.29-7.67s-7.18,3.46-7.18,7.6v.08c0,4.22,3.12,7.64,7.26,7.64s7.22-3.46,7.22-7.56Z"/>
  <path class="st0" d="M299.25,103.27v-.08c0-6.38,4.67-10.22,9.38-10.22,3.65,0,6,1.94,7.52,4.18v-11.85h2.93v27.74h-2.93v-3.95c-1.63,2.36-3.88,4.37-7.52,4.37-4.71,0-9.38-3.72-9.38-10.18ZM316.28,103.23v-.08c0-4.52-3.46-7.56-7.1-7.56s-6.92,2.81-6.92,7.56v.08c0,4.67,3.15,7.6,6.92,7.6s7.1-3.08,7.1-7.6Z"/>
  <path class="st0" d="M324.41,103.27v-.08c0-5.66,3.95-10.22,9.42-10.22,5.81,0,9.16,4.64,9.16,10.37,0,.42,0,.61-.04.95h-15.58c.42,4.25,3.42,6.65,6.92,6.65,2.74,0,4.56-1.1,6.19-2.77l1.82,1.63c-1.98,2.24-4.33,3.69-8.09,3.69-5.36,0-9.8-4.14-9.8-10.22ZM340.03,102.13c-.3-3.53-2.32-6.69-6.27-6.69-3.46,0-5.96,2.89-6.38,6.69h12.65Z"/>
  <path class="st0" d="M359.44,86.44h6.31l6.99,11.25,6.99-11.25h6.31v26.6h-5.81v-17.36l-7.49,11.36h-.15l-7.41-11.25v17.25h-5.74v-26.6Z"/>
  <path class="st0" d="M390.83,102.96v-.08c0-5.85,4.71-10.6,11.06-10.6s10.98,4.64,10.98,10.52v.08c0,5.85-4.71,10.6-11.06,10.6s-10.98-4.64-10.98-10.52ZM407.17,102.96v-.08c0-3-2.17-5.62-5.36-5.62s-5.28,2.51-5.28,5.55v.08c0,3,2.17,5.62,5.36,5.62s5.28-2.51,5.28-5.55Z"/>
  <path class="st0" d="M418,107.26v-9.65h-2.43v-4.94h2.43v-5.21h5.77v5.21h4.79v4.94h-4.79v8.7c0,1.33.61,1.98,1.86,1.98,1.03,0,1.98-.23,2.85-.72v4.64c-1.22.72-2.62,1.18-4.56,1.18-3.5,0-5.93-1.41-5.93-6.12Z"/>
  <path class="st0" d="M431.26,102.96v-.08c0-5.85,4.71-10.6,11.06-10.6s10.98,4.64,10.98,10.52v.08c0,5.85-4.71,10.6-11.06,10.6s-10.98-4.64-10.98-10.52ZM447.6,102.96v-.08c0-3-2.17-5.62-5.36-5.62s-5.28,2.51-5.28,5.55v.08c0,3,2.17,5.62,5.36,5.62s5.28-2.51,5.28-5.55Z"/>
  <path class="st0" d="M478.61,86.25h5.4l11.4,26.79h-6.12l-2.43-5.96h-11.25l-2.43,5.96h-5.97l11.4-26.79ZM484.76,101.9l-3.53-8.62-3.53,8.62h7.07Z"/>
  <path class="st0" d="M499.78,86.44h5.85v26.6h-5.85v-26.6Z"/>
</svg>