<?xml version="1.0" encoding="UTF-8"?>
<svg id="Layer_1" xmlns="http://www.w3.org/2000/svg" version="1.1" viewBox="0 0 513.75 482.08">
  <!-- Generator: Adobe Illustrator 29.7.1, SVG Export Plug-In . SVG Version: 2.1.1 Build 8)  -->
  <defs>
    <style>
      .st0 {
        fill: #fff;
      }
    </style>
  </defs>
  <path class="st0" d="M113.78,51.61v-.1c0-6.1,4.22-8.64,9.46-9.65l.53-2.93h4.9l1.1,7.78-.24.24c-6.1.24-8.4,1.82-8.4,4.37v.1c0,2.16,1.58,3.41,4.42,3.41s4.94-1.06,7.2-3.31l4.42,4.85c-2.83,3.07-6.53,5.18-11.76,5.18-6.91,0-11.62-3.55-11.62-9.94ZM122.47,27.52h7.78v7.68h-7.78v-7.68Z"/>
  <path class="st0" d="M139.85,56.22l4.37-5.23c3.07,2.5,6.19,4.08,10.03,4.08,3.07,0,4.85-1.2,4.85-3.17v-.1c0-1.87-1.15-2.88-6.77-4.27-6.82-1.68-11.14-3.65-11.14-10.27v-.1c0-6.1,4.85-10.13,11.76-10.13,4.94,0,9.02,1.54,12.48,4.27l-3.84,5.57c-3.02-2.06-5.86-3.31-8.74-3.31s-4.32,1.25-4.32,2.93v.1c0,2.26,1.44,2.88,7.25,4.42,6.82,1.82,10.66,4.22,10.66,10.08v.1c0,6.67-5.09,10.42-12.34,10.42-5.14,0-10.22-1.73-14.26-5.38Z"/>
  <path class="st0" d="M170.57,53.73v-.1c0-5.57,4.27-8.21,10.37-8.21,2.64,0,4.42.43,6.29,1.06v-.43c0-3.07-1.87-4.7-5.52-4.7-2.83,0-4.75.48-7.1,1.39l-1.82-5.57c2.83-1.2,5.62-2.06,9.98-2.06,4.03,0,6.82,1.01,8.69,2.88,1.92,1.92,2.78,4.75,2.78,8.21v14.93h-7.06v-2.78c-1.78,1.97-4.18,3.26-7.78,3.26-4.85,0-8.83-2.74-8.83-7.87ZM187.32,52.05v-1.3c-1.3-.58-2.88-.96-4.66-.96-3.12,0-5.04,1.25-5.04,3.55v.1c0,1.97,1.63,3.12,3.98,3.12,3.46,0,5.71-1.82,5.71-4.51Z"/>
  <path class="st0" d="M207.82,57.76v3.36h-7.3V26.08h7.3v13.01c1.78-2.45,4.18-4.18,8.02-4.18,6,0,11.71,4.7,11.71,13.3v.1c0,8.59-5.62,13.3-11.71,13.3-3.89,0-6.29-1.78-8.02-3.84ZM220.25,48.3v-.1c0-4.27-2.88-7.1-6.29-7.1s-6.24,2.83-6.24,7.1v.1c0,4.27,2.83,7.1,6.24,7.1s6.29-2.78,6.29-7.1Z"/>
  <path class="st0" d="M233.26,35.39h7.3v25.73h-7.3v-25.73ZM239.4,24.06l6.29,2.74-6.24,5.76h-5.38l5.33-8.5Z"/>
  <path class="st0" d="M245.88,53.73v-.1c0-5.57,4.27-8.21,10.37-8.21,2.64,0,4.42.43,6.29,1.06v-.43c0-3.07-1.87-4.7-5.52-4.7-2.83,0-4.75.48-7.1,1.39l-1.82-5.57c2.83-1.2,5.62-2.06,9.98-2.06,4.03,0,6.82,1.01,8.69,2.88,1.92,1.92,2.79,4.75,2.79,8.21v14.93h-7.06v-2.78c-1.78,1.97-4.18,3.26-7.78,3.26-4.85,0-8.83-2.74-8.83-7.87ZM262.63,52.05v-1.3c-1.3-.58-2.88-.96-4.66-.96-3.12,0-5.04,1.25-5.04,3.55v.1c0,1.97,1.63,3.12,3.98,3.12,3.46,0,5.71-1.82,5.71-4.51Z"/>
  <path class="st0" d="M273.81,57.71l3.12-4.8c2.83,2.06,5.67,3.07,8.11,3.07,2.11,0,3.07-.77,3.07-1.92v-.1c0-1.58-2.5-2.06-5.33-2.98-3.6-1.01-7.68-2.74-7.68-7.73v-.1c0-5.23,4.22-8.16,9.41-8.16,3.26,0,6.77,1.1,9.6,2.98l-2.78,5.04c-2.54-1.49-5.09-2.4-6.96-2.4-1.78,0-2.69.77-2.69,1.78v.1c0,1.34,2.45,2.21,5.23,3.07,3.6,1.15,7.78,2.93,7.78,7.63v.1c0,5.71-4.27,8.3-9.84,8.3-3.65,0-7.58-1.2-11.04-3.89Z"/>
  <path class="st0" d="M332.9,57.42c-1.78,2.45-4.18,4.18-8.02,4.18-6,0-11.71-4.71-11.71-13.3v-.1c0-8.59,5.62-13.3,11.71-13.3,3.89,0,6.29,1.78,8.02,3.84v-3.36h7.3v33.41h-7.3v-11.38ZM333,48.3v-.1c0-4.27-2.83-7.1-6.24-7.1s-6.29,2.78-6.29,7.1v.1c0,4.27,2.88,7.1,6.29,7.1s6.24-2.83,6.24-7.1Z"/>
  <path class="st0" d="M346.53,52.05v-16.66h7.3v14.35c0,3.46,1.58,5.23,4.42,5.23s4.56-1.78,4.56-5.23v-14.35h7.3v25.73h-7.3v-3.65c-1.68,2.16-3.89,4.13-7.54,4.13-5.57,0-8.74-3.6-8.74-9.55Z"/>
  <path class="st0" d="M375.38,48.4v-.1c0-7.34,5.23-13.39,12.72-13.39,8.59,0,12.53,6.67,12.53,13.97,0,.58-.05,1.2-.1,1.92h-17.91c.72,3.31,3.02,5.04,6.29,5.04,2.45,0,4.18-.77,6.24-2.64l4.18,3.7c-2.45,3.02-5.86,4.8-10.51,4.8-7.73,0-13.44-5.42-13.44-13.3ZM393.53,46.24c-.43-3.26-2.35-5.47-5.42-5.47s-4.99,2.16-5.57,5.47h10.99Z"/>
  <path class="st0" d="M51.29,85.12h7.97l8.83,14.21,8.83-14.21h7.97v33.6h-7.34v-21.94l-9.46,14.35h-.19l-9.36-14.21v21.79h-7.25v-33.6Z"/>
  <path class="st0" d="M90.94,106v-.1c0-7.39,5.95-13.39,13.97-13.39s13.87,5.86,13.87,13.3v.1c0,7.39-5.95,13.39-13.97,13.39s-13.87-5.86-13.87-13.3ZM111.58,106v-.1c0-3.79-2.74-7.1-6.77-7.1s-6.67,3.17-6.67,7.01v.1c0,3.79,2.74,7.1,6.77,7.1s6.67-3.17,6.67-7.01Z"/>
  <path class="st0" d="M125.26,111.42v-12.19h-3.07v-6.24h3.07v-6.58h7.3v6.58h6.05v6.24h-6.05v10.99c0,1.68.77,2.5,2.35,2.5,1.3,0,2.5-.29,3.6-.91v5.86c-1.54.91-3.31,1.49-5.76,1.49-4.42,0-7.49-1.78-7.49-7.73Z"/>
  <path class="st0" d="M142.01,106v-.1c0-7.39,5.95-13.39,13.97-13.39s13.87,5.86,13.87,13.3v.1c0,7.39-5.95,13.39-13.97,13.39s-13.87-5.86-13.87-13.3ZM162.65,106v-.1c0-3.79-2.74-7.1-6.77-7.1s-6.67,3.17-6.67,7.01v.1c0,3.79,2.74,7.1,6.77,7.1s6.67-3.17,6.67-7.01Z"/>
  <path class="st0" d="M175.13,92.99h7.3v5.18c1.49-3.5,3.84-5.86,8.21-5.66v7.63h-.38c-4.85,0-7.82,2.88-7.82,9.07v9.5h-7.3v-25.73Z"/>
  <path class="st0" d="M193.22,106v-.1c0-7.39,5.95-13.39,13.97-13.39s13.87,5.86,13.87,13.3v.1c0,7.39-5.95,13.39-13.97,13.39s-13.87-5.86-13.87-13.3ZM213.87,106v-.1c0-3.79-2.74-7.1-6.77-7.1s-6.67,3.17-6.67,7.01v.1c0,3.79,2.74,7.1,6.77,7.1s6.67-3.17,6.67-7.01Z"/>
  <path class="st0" d="M226.68,83.68h7.3v35.04h-7.3v-35.04Z"/>
  <path class="st0" d="M239.3,111.33v-.1c0-5.57,4.27-8.21,10.37-8.21,2.64,0,4.42.43,6.29,1.06v-.43c0-3.07-1.87-4.7-5.52-4.7-2.83,0-4.75.48-7.1,1.39l-1.82-5.57c2.83-1.2,5.62-2.06,9.98-2.06,4.03,0,6.82,1.01,8.69,2.88,1.92,1.92,2.78,4.75,2.78,8.21v14.93h-7.06v-2.78c-1.78,1.97-4.18,3.26-7.78,3.26-4.85,0-8.83-2.74-8.83-7.87ZM256.06,109.64v-1.3c-1.3-.58-2.88-.96-4.66-.96-3.12,0-5.04,1.25-5.04,3.55v.1c0,1.97,1.63,3.12,3.98,3.12,3.46,0,5.71-1.82,5.71-4.51Z"/>
  <path class="st0" d="M282.41,106v-.1c0-7.34,5.23-13.39,12.72-13.39,8.59,0,12.53,6.67,12.53,13.97,0,.58-.05,1.2-.1,1.92h-17.91c.72,3.31,3.03,5.04,6.29,5.04,2.45,0,4.18-.77,6.24-2.64l4.18,3.7c-2.45,3.02-5.86,4.8-10.51,4.8-7.73,0-13.44-5.42-13.44-13.3ZM300.55,103.84c-.43-3.26-2.35-5.47-5.42-5.47s-4.99,2.16-5.57,5.47h10.99Z"/>
  <path class="st0" d="M311.06,115.31l3.12-4.8c2.83,2.06,5.67,3.07,8.11,3.07,2.11,0,3.07-.77,3.07-1.92v-.1c0-1.58-2.5-2.06-5.33-2.98-3.6-1.01-7.68-2.74-7.68-7.73v-.1c0-5.23,4.22-8.16,9.41-8.16,3.26,0,6.77,1.1,9.6,2.98l-2.78,5.04c-2.54-1.49-5.09-2.4-6.96-2.4s-2.69.77-2.69,1.78v.1c0,1.34,2.45,2.21,5.23,3.07,3.6,1.15,7.78,2.93,7.78,7.63v.1c0,5.71-4.27,8.3-9.84,8.3-3.65,0-7.58-1.2-11.04-3.89Z"/>
  <path class="st0" d="M351.72,83.68h7.68v6.48h-7.68v-6.48ZM351.91,92.99h7.3v25.73h-7.3v-25.73Z"/>
  <path class="st0" d="M364.92,105.9v-.1c0-8.59,5.62-13.3,11.71-13.3,3.89,0,6.29,1.78,8.02,3.84v-12.67h7.3v35.04h-7.3v-3.7c-1.78,2.45-4.18,4.18-8.02,4.18-6,0-11.71-4.71-11.71-13.3ZM384.74,105.9v-.1c0-4.27-2.83-7.1-6.24-7.1s-6.29,2.78-6.29,7.1v.1c0,4.27,2.88,7.1,6.29,7.1s6.24-2.83,6.24-7.1Z"/>
  <path class="st0" d="M397.22,106v-.1c0-7.34,5.23-13.39,12.72-13.39,8.59,0,12.53,6.67,12.53,13.97,0,.58-.05,1.2-.1,1.92h-17.91c.72,3.31,3.02,5.04,6.29,5.04,2.45,0,4.18-.77,6.24-2.64l4.18,3.7c-2.45,3.02-5.86,4.8-10.51,4.8-7.73,0-13.44-5.42-13.44-13.3ZM415.37,103.84c-.43-3.26-2.35-5.47-5.42-5.47s-4.99,2.16-5.57,5.47h10.99Z"/>
  <path class="st0" d="M426.36,111.33v-.1c0-5.57,4.27-8.21,10.37-8.21,2.64,0,4.42.43,6.29,1.06v-.43c0-3.07-1.87-4.7-5.52-4.7-2.83,0-4.75.48-7.1,1.39l-1.82-5.57c2.83-1.2,5.62-2.06,9.98-2.06,4.03,0,6.82,1.01,8.69,2.88,1.92,1.92,2.78,4.75,2.78,8.21v14.93h-7.06v-2.78c-1.78,1.97-4.18,3.26-7.78,3.26-4.85,0-8.83-2.74-8.83-7.87ZM443.11,109.64v-1.3c-1.3-.58-2.88-.96-4.66-.96-3.12,0-5.04,1.25-5.04,3.55v.1c0,1.97,1.63,3.12,3.98,3.12,3.46,0,5.71-1.82,5.71-4.51Z"/>
  <path class="st0" d="M456.64,83.68h7.3v35.04h-7.3v-35.04Z"/>
  <path class="st0" d="M56.76,150.59h7.3v3.7c1.78-2.45,4.18-4.18,8.02-4.18,6,0,11.71,4.7,11.71,13.3v.1c0,8.59-5.62,13.3-11.71,13.3-3.89,0-6.29-1.78-8.02-3.84v11.04h-7.3v-33.41ZM76.49,163.5v-.1c0-4.27-2.88-7.1-6.29-7.1s-6.24,2.83-6.24,7.1v.1c0,4.27,2.83,7.1,6.24,7.1s6.29-2.78,6.29-7.1Z"/>
  <path class="st0" d="M87.62,168.93v-.1c0-5.57,4.27-8.21,10.37-8.21,2.64,0,4.42.43,6.29,1.06v-.43c0-3.07-1.87-4.7-5.52-4.7-2.83,0-4.75.48-7.1,1.39l-1.82-5.57c2.83-1.2,5.62-2.06,9.98-2.06,4.03,0,6.82,1.01,8.69,2.88,1.92,1.92,2.78,4.75,2.78,8.21v14.93h-7.06v-2.78c-1.78,1.97-4.18,3.26-7.78,3.26-4.85,0-8.83-2.74-8.83-7.87ZM104.38,167.25v-1.3c-1.3-.58-2.88-.96-4.66-.96-3.12,0-5.04,1.25-5.04,3.55v.1c0,1.97,1.63,3.12,3.98,3.12,3.46,0,5.71-1.82,5.71-4.51Z"/>
  <path class="st0" d="M117.58,150.59h7.3v5.18c1.49-3.5,3.84-5.86,8.21-5.66v7.63h-.38c-4.85,0-7.82,2.88-7.82,9.07v9.5h-7.3v-25.73Z"/>
  <path class="st0" d="M134.9,168.93v-.1c0-5.57,4.27-8.21,10.37-8.21,2.64,0,4.42.43,6.29,1.06v-.43c0-3.07-1.87-4.7-5.52-4.7-2.83,0-4.75.48-7.1,1.39l-1.82-5.57c2.83-1.2,5.62-2.06,9.98-2.06,4.03,0,6.82,1.01,8.69,2.88,1.92,1.92,2.78,4.75,2.78,8.21v14.93h-7.06v-2.78c-1.78,1.97-4.18,3.26-7.78,3.26-4.85,0-8.83-2.74-8.83-7.87ZM151.66,167.25v-1.3c-1.3-.58-2.88-.96-4.66-.96-3.12,0-5.04,1.25-5.04,3.55v.1c0,1.97,1.63,3.12,3.98,3.12,3.46,0,5.71-1.82,5.71-4.51Z"/>
  <path class="st0" d="M180.46,169.02v-12.19h-3.07v-6.24h3.07v-6.58h7.3v6.58h6.05v6.24h-6.05v10.99c0,1.68.77,2.5,2.35,2.5,1.3,0,2.5-.29,3.6-.91v5.86c-1.54.91-3.31,1.49-5.76,1.49-4.42,0-7.49-1.78-7.49-7.73Z"/>
  <path class="st0" d="M198.98,167.25v-16.66h7.3v14.35c0,3.46,1.58,5.23,4.42,5.23s4.56-1.78,4.56-5.23v-14.35h7.3v25.73h-7.3v-3.65c-1.68,2.16-3.89,4.13-7.54,4.13-5.57,0-8.74-3.6-8.74-9.55Z"/>
  <path class="st0" d="M243.48,150.59h7.3v3.65c1.68-2.16,3.89-4.13,7.54-4.13,5.57,0,8.74,3.6,8.74,9.55v16.66h-7.3v-14.35c0-3.46-1.58-5.23-4.42-5.23s-4.56,1.78-4.56,5.23v14.35h-7.3v-25.73Z"/>
  <path class="st0" d="M272.13,163.6v-.1c0-7.34,5.23-13.39,12.72-13.39,8.59,0,12.53,6.67,12.53,13.97,0,.58-.05,1.2-.1,1.92h-17.91c.72,3.31,3.02,5.04,6.29,5.04,2.45,0,4.18-.77,6.24-2.64l4.18,3.7c-2.45,3.02-5.86,4.8-10.51,4.8-7.73,0-13.44-5.42-13.44-13.3ZM290.28,161.44c-.43-3.26-2.35-5.47-5.42-5.47s-4.99,2.16-5.57,5.47h10.99Z"/>
  <path class="st0" d="M302.95,181.41l2.5-5.47c2.69,1.49,5.23,2.35,8.69,2.35,4.99,0,7.34-2.4,7.34-7.01v-1.25c-2.16,2.64-4.51,4.18-8.4,4.18-6,0-11.42-4.32-11.42-12v-.1c0-7.68,5.52-12,11.42-12,3.98,0,6.34,1.68,8.3,3.84v-3.36h7.3v19.92c0,4.56-1.1,7.97-3.26,10.13-2.45,2.45-6.1,3.46-11.09,3.46-4.22,0-8.11-.96-11.38-2.69ZM321.48,162.21v-.1c0-3.5-2.69-5.95-6.29-5.95s-6.24,2.45-6.24,5.95v.1c0,3.6,2.64,5.95,6.24,5.95s6.29-2.45,6.29-5.95Z"/>
  <path class="st0" d="M333.96,163.6v-.1c0-7.39,5.95-13.39,13.97-13.39s13.87,5.86,13.87,13.3v.1c0,7.39-5.95,13.39-13.97,13.39s-13.87-5.86-13.87-13.3ZM354.6,163.6v-.1c0-3.79-2.74-7.1-6.77-7.1s-6.67,3.17-6.67,7.01v.1c0,3.79,2.74,7.1,6.77,7.1s6.67-3.17,6.67-7.01Z"/>
  <path class="st0" d="M365.83,163.6v-.1c0-7.34,5.62-13.39,13.49-13.39,4.85,0,7.83,1.63,10.27,4.32l-4.46,4.8c-1.68-1.73-3.22-2.83-5.86-2.83-3.65,0-6.24,3.17-6.24,7.01v.1c0,3.98,2.54,7.1,6.53,7.1,2.45,0,4.13-1.06,5.9-2.74l4.27,4.32c-2.5,2.74-5.38,4.7-10.51,4.7-7.73,0-13.39-6-13.39-13.3Z"/>
  <path class="st0" d="M394.63,141.28h7.68v6.48h-7.68v-6.48ZM394.82,150.59h7.3v25.73h-7.3v-25.73Z"/>
  <path class="st0" d="M407.73,163.6v-.1c0-7.39,5.95-13.39,13.97-13.39s13.87,5.86,13.87,13.3v.1c0,7.39-5.95,13.39-13.97,13.39s-13.87-5.86-13.87-13.3ZM428.37,163.6v-.1c0-3.79-2.74-7.1-6.77-7.1s-6.67,3.17-6.67,7.01v.1c0,3.79,2.74,7.1,6.77,7.1s6.67-3.17,6.67-7.01Z"/>
  <path class="st0" d="M443.54,157.12l.24-.24c6.1-.24,8.4-1.82,8.4-4.37v-.1c0-2.16-1.58-3.41-4.42-3.41s-4.94,1.06-7.2,3.31l-4.42-4.85c2.83-3.07,6.53-5.18,11.76-5.18,6.91,0,11.62,3.55,11.62,9.94v.1c0,6.1-4.22,8.64-9.46,9.65l-.53,2.93h-4.9l-1.11-7.78ZM443.06,168.64h7.78v7.68h-7.78v-7.68Z"/>
  <path class="st0" d="M94.79,301.64h2.59l11.17,24.68h-2.98l-2.87-6.48h-13.34l-2.91,6.48h-2.83l11.17-24.68ZM101.62,317.36l-5.57-12.5-5.6,12.5h11.17Z"/>
  <path class="st0" d="M111,317.32v-.07c0-5.88,4.31-9.42,8.65-9.42,3.36,0,5.53,1.79,6.93,3.85v-10.92h2.7v25.55h-2.7v-3.64c-1.5,2.17-3.57,4.03-6.93,4.03-4.34,0-8.65-3.43-8.65-9.38ZM126.68,317.29v-.07c0-4.17-3.19-6.97-6.55-6.97s-6.37,2.59-6.37,6.97v.07c0,4.31,2.91,7,6.37,7s6.55-2.83,6.55-7Z"/>
  <path class="st0" d="M135.28,308.22h2.7v3.04c1.23-1.82,2.8-3.43,5.85-3.43s4.83,1.54,5.81,3.61c1.33-2,3.19-3.61,6.37-3.61,4.2,0,6.72,2.77,6.72,7.28v11.2h-2.7v-10.57c0-3.5-1.75-5.46-4.69-5.46-2.7,0-5.01,2.03-5.01,5.6v10.43h-2.66v-10.64c0-3.4-1.75-5.39-4.66-5.39s-5.04,2.38-5.04,5.71v10.33h-2.7v-18.1Z"/>
  <path class="st0" d="M168.53,301.29h3.08v2.97h-3.08v-2.97ZM168.71,308.22h2.7v18.1h-2.7v-18.1Z"/>
  <path class="st0" d="M177.67,308.22h2.7v3.15c1.23-1.96,3.08-3.54,6.2-3.54,4.34,0,6.93,2.94,6.93,7.25v11.24h-2.7v-10.57c0-3.36-1.79-5.46-5.01-5.46s-5.43,2.27-5.43,5.67v10.36h-2.7v-18.1Z"/>
  <path class="st0" d="M199.3,301.29h3.08v2.97h-3.08v-2.97ZM199.47,308.22h2.7v18.1h-2.7v-18.1Z"/>
  <path class="st0" d="M206.93,324.01l1.36-1.92c1.96,1.5,4.13,2.31,6.27,2.31s3.75-1.09,3.75-2.87v-.07c0-1.79-2.14-2.52-4.52-3.19-2.8-.84-5.99-1.75-5.99-5.11v-.07c0-3.12,2.59-5.18,6.16-5.18,2.24,0,4.66.77,6.51,2l-1.23,2.03c-1.68-1.08-3.57-1.75-5.36-1.75-2.14,0-3.5,1.12-3.5,2.62v.07c0,1.71,2.24,2.38,4.66,3.12,2.8.84,5.81,1.93,5.81,5.18v.07c0,3.43-2.84,5.42-6.44,5.42-2.63,0-5.43-1.01-7.49-2.66Z"/>
  <path class="st0" d="M226.46,321.52v-10.92h-2.52v-2.38h2.52v-5.46h2.7v5.46h5.74v2.38h-5.74v10.57c0,2.24,1.23,3.01,3.04,3.01.95,0,1.68-.18,2.63-.63v2.31c-.95.53-1.96.77-3.26.77-2.94,0-5.11-1.44-5.11-5.11Z"/>
  <path class="st0" d="M239.65,308.22h2.7v4.73c1.33-3.01,3.96-5.15,7.39-5.04v2.91h-.21c-3.96,0-7.18,2.84-7.18,8.3v7.21h-2.7v-18.1Z"/>
  <path class="st0" d="M251.59,321.07v-.07c0-3.78,3.15-5.85,7.74-5.85,2.34,0,3.92.31,5.57.77v-.63c0-3.25-2-4.94-5.39-4.94-2.14,0-3.82.53-5.5,1.33l-.81-2.21c2-.95,3.92-1.5,6.58-1.5s4.52.67,5.85,2c1.22,1.23,1.85,3.01,1.85,5.29v11.06h-2.59v-2.73c-1.26,1.65-3.33,3.12-6.55,3.12s-6.76-1.89-6.76-5.64ZM264.92,319.67v-1.75c-1.37-.39-3.08-.77-5.32-.77-3.4,0-5.29,1.47-5.29,3.75v.07c0,2.28,2.14,3.61,4.55,3.61,3.36,0,6.06-2.03,6.06-4.9Z"/>
  <path class="st0" d="M271.82,329.36c1.79-.67,2.48-1.54,2.34-3.04h-1.26v-3.68h3.22v3.15c0,2.84-1.22,4.2-3.88,4.8l-.42-1.23Z"/>
  <path class="st0" d="M291.17,317.36v-.07c0-5.15,3.96-9.45,9.28-9.45,3.43,0,5.53,1.4,7.25,3.22l-1.79,1.89c-1.44-1.51-3.01-2.73-5.5-2.73-3.68,0-6.48,3.08-6.48,7v.07c0,3.92,2.87,7.04,6.65,7.04,2.35,0,4.1-1.16,5.53-2.7l1.71,1.61c-1.82,2.07-3.99,3.5-7.39,3.5-5.32,0-9.28-4.31-9.28-9.38Z"/>
  <path class="st0" d="M310.63,317.36v-.07c0-5.15,3.96-9.45,9.45-9.45s9.42,4.27,9.42,9.38v.07c0,5.15-4.03,9.45-9.49,9.45s-9.38-4.27-9.38-9.38ZM326.73,317.36v-.07c0-3.88-2.91-7.07-6.72-7.07s-6.62,3.19-6.62,7v.07c0,3.89,2.87,7.04,6.69,7.04s6.65-3.19,6.65-6.97Z"/>
  <path class="st0" d="M334.36,308.22h2.7v3.15c1.23-1.96,3.08-3.54,6.2-3.54,4.34,0,6.93,2.94,6.93,7.25v11.24h-2.7v-10.57c0-3.36-1.79-5.46-5.01-5.46s-5.43,2.27-5.43,5.67v10.36h-2.7v-18.1Z"/>
  <path class="st0" d="M356.87,321.52v-10.92h-2.52v-2.38h2.52v-5.46h2.7v5.46h5.74v2.38h-5.74v10.57c0,2.24,1.22,3.01,3.04,3.01.95,0,1.68-.18,2.62-.63v2.31c-.95.53-1.96.77-3.25.77-2.94,0-5.11-1.44-5.11-5.11Z"/>
  <path class="st0" d="M370.06,308.22h2.7v4.73c1.33-3.01,3.96-5.15,7.39-5.04v2.91h-.21c-3.96,0-7.18,2.84-7.18,8.3v7.21h-2.7v-18.1Z"/>
  <path class="st0" d="M382.35,317.36v-.07c0-5.15,3.96-9.45,9.45-9.45s9.42,4.27,9.42,9.38v.07c0,5.15-4.03,9.45-9.49,9.45s-9.38-4.27-9.38-9.38ZM398.45,317.36v-.07c0-3.88-2.91-7.07-6.72-7.07s-6.62,3.19-6.62,7v.07c0,3.89,2.87,7.04,6.69,7.04s6.65-3.19,6.65-6.97Z"/>
  <path class="st0" d="M406.32,300.77h2.7v25.55h-2.7v-25.55Z"/>
  <path class="st0" d="M413.92,321.07v-.07c0-3.78,3.15-5.85,7.74-5.85,2.34,0,3.92.31,5.57.77v-.63c0-3.25-2-4.94-5.39-4.94-2.14,0-3.82.53-5.5,1.33l-.81-2.21c2-.95,3.92-1.5,6.58-1.5s4.52.67,5.85,2c1.22,1.23,1.85,3.01,1.85,5.29v11.06h-2.59v-2.73c-1.26,1.65-3.33,3.12-6.55,3.12s-6.76-1.89-6.76-5.64ZM427.25,319.67v-1.75c-1.37-.39-3.08-.77-5.32-.77-3.39,0-5.29,1.47-5.29,3.75v.07c0,2.28,2.13,3.61,4.55,3.61,3.36,0,6.05-2.03,6.05-4.9Z"/>
  <path class="st0" d="M49.91,350.22h2.87l-7.6,18.69c-1.54,3.75-3.33,5.11-6.02,5.11-1.5,0-2.62-.32-3.85-.91l.91-2.14c.88.46,1.68.67,2.84.67,1.65,0,2.62-.84,3.71-3.4l-8.23-18.03h2.98l6.58,15.09,5.81-15.09Z"/>
  <path class="st0" d="M67.54,350.22h2.7v3.64c1.51-2.14,3.57-4.03,6.93-4.03,4.34,0,8.65,3.43,8.65,9.38v.07c0,5.88-4.27,9.42-8.65,9.42-3.36,0-5.53-1.79-6.93-3.85v9.07h-2.7v-23.7ZM83.05,359.32v-.07c0-4.3-2.91-7-6.37-7s-6.55,2.87-6.55,6.97v.07c0,4.2,3.19,7,6.55,7s6.37-2.59,6.37-6.97Z"/>
  <path class="st0" d="M90.78,350.22h2.7v4.73c1.33-3.01,3.96-5.15,7.39-5.04v2.91h-.21c-3.96,0-7.18,2.84-7.18,8.3v7.21h-2.7v-18.1Z"/>
  <path class="st0" d="M103.07,359.36v-.07c0-5.15,3.96-9.45,9.45-9.45s9.42,4.27,9.42,9.38v.07c0,5.15-4.03,9.45-9.49,9.45s-9.38-4.27-9.38-9.38ZM119.17,359.36v-.07c0-3.88-2.91-7.07-6.72-7.07s-6.62,3.19-6.62,7v.07c0,3.89,2.87,7.04,6.69,7.04s6.65-3.19,6.65-6.97Z"/>
  <path class="st0" d="M127.74,363.52v-10.92h-2.52v-2.38h2.52v-5.46h2.7v5.46h5.74v2.38h-5.74v10.57c0,2.24,1.23,3.01,3.04,3.01.95,0,1.68-.18,2.63-.63v2.31c-.95.53-1.96.77-3.26.77-2.94,0-5.11-1.44-5.11-5.11Z"/>
  <path class="st0" d="M139.29,359.32v-.07c0-5.21,3.64-9.42,8.68-9.42,5.36,0,8.44,4.27,8.44,9.56,0,.38,0,.56-.03.88h-14.35c.38,3.92,3.15,6.13,6.37,6.13,2.52,0,4.2-1.02,5.71-2.56l1.68,1.5c-1.82,2.07-3.99,3.4-7.46,3.4-4.94,0-9.03-3.82-9.03-9.42ZM153.68,358.27c-.28-3.26-2.14-6.16-5.78-6.16-3.19,0-5.5,2.66-5.88,6.16h11.66Z"/>
  <path class="st0" d="M160.92,371.47l1.23-2.1c2.1,1.51,4.34,2.31,6.97,2.31,4.03,0,6.58-2.21,6.58-6.44v-2.14c-1.58,2.1-3.78,3.82-7.11,3.82-4.34,0-8.51-3.29-8.51-8.47v-.07c0-5.29,4.17-8.54,8.51-8.54,3.4,0,5.57,1.68,7.07,3.64v-3.25h2.7v14.95c0,2.8-.8,4.9-2.31,6.41-1.65,1.65-3.99,2.42-6.9,2.42s-5.81-.84-8.23-2.52ZM175.76,358.41v-.07c0-3.71-3.22-6.13-6.65-6.13s-6.27,2.38-6.27,6.09v.07c0,3.64,2.91,6.16,6.27,6.16s6.65-2.49,6.65-6.13Z"/>
  <path class="st0" d="M183.25,359.32v-.07c0-5.21,3.64-9.42,8.68-9.42,5.36,0,8.44,4.27,8.44,9.56,0,.38,0,.56-.03.88h-14.35c.38,3.92,3.15,6.13,6.37,6.13,2.52,0,4.2-1.02,5.71-2.56l1.68,1.5c-1.82,2.07-3.99,3.4-7.46,3.4-4.94,0-9.03-3.82-9.03-9.42ZM197.64,358.27c-.28-3.26-2.14-6.16-5.78-6.16-3.19,0-5.5,2.66-5.88,6.16h11.66Z"/>
  <path class="st0" d="M216.54,363.52v-10.92h-2.52v-2.38h2.52v-5.46h2.7v5.46h5.74v2.38h-5.74v10.57c0,2.24,1.23,3.01,3.04,3.01.95,0,1.68-.18,2.63-.63v2.31c-.95.53-1.96.77-3.26.77-2.94,0-5.11-1.44-5.11-5.11Z"/>
  <path class="st0" d="M229.45,361.46v-11.24h2.7v10.57c0,3.36,1.79,5.46,5.01,5.46s5.43-2.28,5.43-5.67v-10.36h2.66v18.1h-2.66v-3.15c-1.23,1.96-3.08,3.54-6.2,3.54-4.34,0-6.93-2.94-6.93-7.25Z"/>
  <path class="st0" d="M249.79,366.01l1.36-1.92c1.96,1.5,4.13,2.31,6.27,2.31s3.75-1.09,3.75-2.87v-.07c0-1.79-2.14-2.52-4.52-3.19-2.8-.84-5.99-1.75-5.99-5.11v-.07c0-3.12,2.59-5.18,6.16-5.18,2.24,0,4.66.77,6.51,2l-1.23,2.03c-1.68-1.08-3.57-1.75-5.36-1.75-2.14,0-3.5,1.12-3.5,2.62v.07c0,1.71,2.24,2.38,4.66,3.12,2.8.84,5.81,1.93,5.81,5.18v.07c0,3.43-2.84,5.42-6.44,5.42-2.63,0-5.43-1.01-7.49-2.66Z"/>
  <path class="st0" d="M278.17,359.32v-.07c0-5.88,4.31-9.42,8.65-9.42,3.36,0,5.53,1.79,6.93,3.85v-10.92h2.7v25.55h-2.7v-3.64c-1.51,2.17-3.57,4.03-6.93,4.03-4.34,0-8.65-3.43-8.65-9.38ZM293.85,359.29v-.07c0-4.17-3.18-6.97-6.55-6.97s-6.37,2.59-6.37,6.97v.07c0,4.31,2.91,7,6.37,7s6.55-2.83,6.55-7Z"/>
  <path class="st0" d="M302.53,343.29h3.08v2.97h-3.08v-2.97ZM302.71,350.22h2.7v18.1h-2.7v-18.1Z"/>
  <path class="st0" d="M310.16,366.01l1.37-1.92c1.96,1.5,4.13,2.31,6.27,2.31s3.75-1.09,3.75-2.87v-.07c0-1.79-2.14-2.52-4.52-3.19-2.8-.84-5.99-1.75-5.99-5.11v-.07c0-3.12,2.59-5.18,6.16-5.18,2.24,0,4.66.77,6.51,2l-1.22,2.03c-1.68-1.08-3.57-1.75-5.36-1.75-2.14,0-3.5,1.12-3.5,2.62v.07c0,1.71,2.24,2.38,4.66,3.12,2.8.84,5.81,1.93,5.81,5.18v.07c0,3.43-2.83,5.42-6.44,5.42-2.63,0-5.43-1.01-7.49-2.66Z"/>
  <path class="st0" d="M329.1,350.22h2.7v3.64c1.5-2.14,3.57-4.03,6.93-4.03,4.34,0,8.65,3.43,8.65,9.38v.07c0,5.88-4.27,9.42-8.65,9.42-3.36,0-5.53-1.79-6.93-3.85v9.07h-2.7v-23.7ZM344.6,359.32v-.07c0-4.3-2.9-7-6.37-7s-6.55,2.87-6.55,6.97v.07c0,4.2,3.19,7,6.55,7s6.37-2.59,6.37-6.97Z"/>
  <path class="st0" d="M351.21,359.36v-.07c0-5.15,3.96-9.45,9.45-9.45s9.42,4.27,9.42,9.38v.07c0,5.15-4.03,9.45-9.49,9.45s-9.38-4.27-9.38-9.38ZM367.32,359.36v-.07c0-3.88-2.91-7.07-6.72-7.07s-6.62,3.19-6.62,7v.07c0,3.89,2.87,7.04,6.69,7.04s6.65-3.19,6.65-6.97Z"/>
  <path class="st0" d="M373.44,366.01l1.37-1.92c1.96,1.5,4.13,2.31,6.27,2.31s3.75-1.09,3.75-2.87v-.07c0-1.79-2.14-2.52-4.52-3.19-2.8-.84-5.99-1.75-5.99-5.11v-.07c0-3.12,2.59-5.18,6.16-5.18,2.24,0,4.66.77,6.51,2l-1.22,2.03c-1.68-1.08-3.57-1.75-5.36-1.75-2.14,0-3.5,1.12-3.5,2.62v.07c0,1.71,2.24,2.38,4.66,3.12,2.8.84,5.81,1.93,5.81,5.18v.07c0,3.43-2.83,5.42-6.44,5.42-2.63,0-5.43-1.01-7.49-2.66Z"/>
  <path class="st0" d="M392.44,343.29h3.08v2.97h-3.08v-2.97ZM392.62,350.22h2.7v18.1h-2.7v-18.1Z"/>
  <path class="st0" d="M402.52,363.52v-10.92h-2.52v-2.38h2.52v-5.46h2.7v5.46h5.74v2.38h-5.74v10.57c0,2.24,1.23,3.01,3.04,3.01.95,0,1.68-.18,2.63-.63v2.31c-.95.53-1.96.77-3.26.77-2.94,0-5.11-1.44-5.11-5.11Z"/>
  <path class="st0" d="M415.79,343.29h3.08v2.97h-3.08v-2.97ZM415.96,350.22h2.7v18.1h-2.7v-18.1Z"/>
  <path class="st0" d="M423.14,350.22h2.97l6.09,15.02,6.13-15.02h2.91l-7.88,18.24h-2.38l-7.84-18.24Z"/>
  <path class="st0" d="M443.3,359.36v-.07c0-5.15,3.96-9.45,9.45-9.45s9.42,4.27,9.42,9.38v.07c0,5.15-4.03,9.45-9.49,9.45s-9.38-4.27-9.38-9.38ZM459.4,359.36v-.07c0-3.88-2.9-7.07-6.72-7.07s-6.62,3.19-6.62,7v.07c0,3.89,2.87,7.04,6.69,7.04s6.65-3.19,6.65-6.97Z"/>
  <path class="st0" d="M465.52,366.01l1.36-1.92c1.96,1.5,4.13,2.31,6.27,2.31s3.75-1.09,3.75-2.87v-.07c0-1.79-2.13-2.52-4.52-3.19-2.8-.84-5.99-1.75-5.99-5.11v-.07c0-3.12,2.59-5.18,6.16-5.18,2.24,0,4.65.77,6.51,2l-1.22,2.03c-1.68-1.08-3.57-1.75-5.36-1.75-2.14,0-3.5,1.12-3.5,2.62v.07c0,1.71,2.24,2.38,4.65,3.12,2.8.84,5.81,1.93,5.81,5.18v.07c0,3.43-2.83,5.42-6.44,5.42-2.63,0-5.43-1.01-7.49-2.66Z"/>
  <path class="st0" d="M29.66,401.32v-.07c0-5.88,4.31-9.42,8.65-9.42,3.36,0,5.53,1.79,6.93,3.85v-10.92h2.7v25.55h-2.7v-3.64c-1.51,2.17-3.57,4.03-6.93,4.03-4.34,0-8.65-3.43-8.65-9.38ZM45.34,401.29v-.07c0-4.17-3.19-6.97-6.55-6.97s-6.37,2.59-6.37,6.97v.07c0,4.31,2.91,7,6.37,7s6.55-2.83,6.55-7Z"/>
  <path class="st0" d="M52.83,401.32v-.07c0-5.21,3.64-9.42,8.68-9.42,5.36,0,8.44,4.27,8.44,9.56,0,.38,0,.56-.04.88h-14.35c.39,3.92,3.15,6.13,6.37,6.13,2.52,0,4.2-1.02,5.71-2.56l1.68,1.5c-1.82,2.07-3.99,3.4-7.46,3.4-4.94,0-9.03-3.82-9.03-9.42ZM67.21,400.27c-.28-3.26-2.14-6.16-5.78-6.16-3.19,0-5.5,2.66-5.88,6.16h11.66Z"/>
  <path class="st0" d="M73.16,408.01l1.37-1.92c1.96,1.5,4.13,2.31,6.27,2.31s3.75-1.09,3.75-2.87v-.07c0-1.79-2.14-2.52-4.52-3.19-2.8-.84-5.99-1.75-5.99-5.11v-.07c0-3.12,2.59-5.18,6.16-5.18,2.24,0,4.66.77,6.51,2l-1.23,2.03c-1.68-1.08-3.57-1.75-5.36-1.75-2.14,0-3.5,1.12-3.5,2.62v.07c0,1.71,2.24,2.38,4.66,3.12,2.8.84,5.81,1.93,5.81,5.18v.07c0,3.43-2.84,5.42-6.44,5.42-2.62,0-5.43-1.01-7.49-2.66Z"/>
  <path class="st0" d="M91.04,401.32v-.07c0-5.88,4.31-9.42,8.65-9.42,3.36,0,5.53,1.79,6.93,3.85v-10.92h2.7v25.55h-2.7v-3.64c-1.5,2.17-3.57,4.03-6.93,4.03-4.34,0-8.65-3.43-8.65-9.38ZM106.73,401.29v-.07c0-4.17-3.19-6.97-6.55-6.97s-6.37,2.59-6.37,6.97v.07c0,4.31,2.91,7,6.37,7s6.55-2.83,6.55-7Z"/>
  <path class="st0" d="M114.21,401.32v-.07c0-5.21,3.64-9.42,8.68-9.42,5.36,0,8.44,4.27,8.44,9.56,0,.38,0,.56-.03.88h-14.35c.38,3.92,3.15,6.13,6.37,6.13,2.52,0,4.2-1.02,5.71-2.56l1.68,1.5c-1.82,2.07-3.99,3.4-7.46,3.4-4.94,0-9.03-3.82-9.03-9.42ZM128.6,400.27c-.28-3.26-2.14-6.16-5.78-6.16-3.19,0-5.5,2.66-5.88,6.16h11.66Z"/>
  <path class="st0" d="M146.27,403.46v-11.24h2.7v10.57c0,3.36,1.79,5.46,5.01,5.46s5.43-2.28,5.43-5.67v-10.36h2.66v18.1h-2.66v-3.15c-1.23,1.96-3.08,3.54-6.2,3.54-4.34,0-6.93-2.94-6.93-7.25Z"/>
  <path class="st0" d="M168.11,392.22h2.7v3.15c1.23-1.96,3.08-3.54,6.2-3.54,4.34,0,6.93,2.94,6.93,7.25v11.24h-2.7v-10.57c0-3.36-1.79-5.46-5.01-5.46s-5.43,2.27-5.43,5.67v10.36h-2.7v-18.1Z"/>
  <path class="st0" d="M188.31,405.07v-.07c0-3.78,3.15-5.85,7.74-5.85,2.35,0,3.92.31,5.57.77v-.63c0-3.25-2-4.94-5.39-4.94-2.14,0-3.82.53-5.5,1.33l-.81-2.21c2-.95,3.92-1.5,6.58-1.5s4.52.67,5.85,2c1.23,1.23,1.85,3.01,1.85,5.29v11.06h-2.59v-2.73c-1.26,1.65-3.33,3.12-6.55,3.12s-6.76-1.89-6.76-5.64ZM201.65,403.67v-1.75c-1.37-.39-3.08-.77-5.32-.77-3.4,0-5.29,1.47-5.29,3.75v.07c0,2.28,2.14,3.61,4.55,3.61,3.36,0,6.06-2.03,6.06-4.9Z"/>
  <path class="st0" d="M218.93,408.01l1.36-1.92c1.96,1.5,4.13,2.31,6.27,2.31s3.75-1.09,3.75-2.87v-.07c0-1.79-2.14-2.52-4.52-3.19-2.8-.84-5.99-1.75-5.99-5.11v-.07c0-3.12,2.59-5.18,6.16-5.18,2.24,0,4.66.77,6.51,2l-1.23,2.03c-1.68-1.08-3.57-1.75-5.36-1.75-2.14,0-3.5,1.12-3.5,2.62v.07c0,1.71,2.24,2.38,4.66,3.12,2.8.84,5.81,1.93,5.81,5.18v.07c0,3.43-2.84,5.42-6.44,5.42-2.63,0-5.43-1.01-7.49-2.66Z"/>
  <path class="st0" d="M236.75,401.36v-.07c0-5.15,3.96-9.45,9.45-9.45s9.42,4.27,9.42,9.38v.07c0,5.15-4.03,9.45-9.49,9.45s-9.38-4.27-9.38-9.38ZM252.85,401.36v-.07c0-3.88-2.91-7.07-6.72-7.07s-6.62,3.19-6.62,7v.07c0,3.89,2.87,7.04,6.69,7.04s6.65-3.19,6.65-6.97Z"/>
  <path class="st0" d="M260.72,384.77h2.7v25.55h-2.7v-25.55Z"/>
  <path class="st0" d="M268.32,405.07v-.07c0-3.78,3.15-5.85,7.74-5.85,2.35,0,3.92.31,5.57.77v-.63c0-3.25-2-4.94-5.39-4.94-2.13,0-3.82.53-5.5,1.33l-.8-2.21c2-.95,3.92-1.5,6.58-1.5s4.52.67,5.85,2c1.23,1.23,1.86,3.01,1.86,5.29v11.06h-2.59v-2.73c-1.26,1.65-3.33,3.12-6.55,3.12s-6.76-1.89-6.76-5.64ZM281.65,403.67v-1.75c-1.37-.39-3.08-.77-5.32-.77-3.4,0-5.29,1.47-5.29,3.75v.07c0,2.28,2.14,3.61,4.55,3.61,3.36,0,6.06-2.03,6.06-4.9Z"/>
  <path class="st0" d="M300.45,392.22h2.7v3.64c1.5-2.14,3.57-4.03,6.93-4.03,4.34,0,8.65,3.43,8.65,9.38v.07c0,5.88-4.27,9.42-8.65,9.42-3.36,0-5.53-1.79-6.93-3.85v9.07h-2.7v-23.7ZM315.95,401.32v-.07c0-4.3-2.9-7-6.37-7s-6.55,2.87-6.55,6.97v.07c0,4.2,3.19,7,6.55,7s6.37-2.59,6.37-6.97Z"/>
  <path class="st0" d="M323.93,384.77h2.7v25.55h-2.7v-25.55Z"/>
  <path class="st0" d="M331.53,405.07v-.07c0-3.78,3.15-5.85,7.74-5.85,2.35,0,3.92.31,5.57.77v-.63c0-3.25-2-4.94-5.39-4.94-2.14,0-3.82.53-5.5,1.33l-.8-2.21c1.99-.95,3.92-1.5,6.58-1.5s4.52.67,5.85,2c1.22,1.23,1.86,3.01,1.86,5.29v11.06h-2.59v-2.73c-1.26,1.65-3.33,3.12-6.55,3.12s-6.76-1.89-6.76-5.64ZM344.86,403.67v-1.75c-1.37-.39-3.08-.77-5.32-.77-3.4,0-5.29,1.47-5.29,3.75v.07c0,2.28,2.14,3.61,4.55,3.61,3.36,0,6.06-2.03,6.06-4.9Z"/>
  <path class="st0" d="M353.93,405.52v-10.92h-2.52v-2.38h2.52v-5.46h2.7v5.46h5.74v2.38h-5.74v10.57c0,2.24,1.23,3.01,3.04,3.01.95,0,1.68-.18,2.63-.63v2.31c-.95.53-1.96.77-3.25.77-2.94,0-5.11-1.44-5.11-5.11Z"/>
  <path class="st0" d="M365.76,405.07v-.07c0-3.78,3.15-5.85,7.74-5.85,2.34,0,3.92.31,5.57.77v-.63c0-3.25-2-4.94-5.39-4.94-2.13,0-3.81.53-5.5,1.33l-.81-2.21c2-.95,3.92-1.5,6.58-1.5s4.52.67,5.85,2c1.23,1.23,1.85,3.01,1.85,5.29v11.06h-2.59v-2.73c-1.26,1.65-3.33,3.12-6.54,3.12s-6.76-1.89-6.76-5.64ZM379.09,403.67v-1.75c-1.37-.39-3.08-.77-5.32-.77-3.4,0-5.29,1.47-5.29,3.75v.07c0,2.28,2.13,3.61,4.55,3.61,3.36,0,6.06-2.03,6.06-4.9Z"/>
  <path class="st0" d="M388.4,394.6h-2.49v-2.34h2.49v-1.58c0-2.07.53-3.61,1.58-4.66.95-.94,2.24-1.4,3.89-1.4,1.26,0,2.1.14,2.97.46v2.34c-.98-.28-1.68-.46-2.62-.46-2.1,0-3.15,1.29-3.15,3.85v1.47h5.74v2.31h-5.71v15.72h-2.7v-15.72Z"/>
  <path class="st0" d="M398.76,401.36v-.07c0-5.15,3.96-9.45,9.45-9.45s9.42,4.27,9.42,9.38v.07c0,5.15-4.03,9.45-9.49,9.45s-9.38-4.27-9.38-9.38ZM414.86,401.36v-.07c0-3.88-2.9-7.07-6.72-7.07s-6.62,3.19-6.62,7v.07c0,3.89,2.87,7.04,6.69,7.04s6.65-3.19,6.65-6.97Z"/>
  <path class="st0" d="M422.49,392.22h2.7v4.73c1.33-3.01,3.96-5.15,7.39-5.04v2.91h-.21c-3.96,0-7.18,2.84-7.18,8.3v7.21h-2.7v-18.1Z"/>
  <path class="st0" d="M436.67,392.22h2.7v3.04c1.23-1.82,2.8-3.43,5.85-3.43s4.83,1.54,5.81,3.61c1.33-2,3.19-3.61,6.37-3.61,4.2,0,6.72,2.77,6.72,7.28v11.2h-2.7v-10.57c0-3.5-1.75-5.46-4.69-5.46-2.7,0-5.01,2.03-5.01,5.6v10.43h-2.66v-10.64c0-3.4-1.75-5.39-4.66-5.39s-5.04,2.38-5.04,5.71v10.33h-2.7v-18.1Z"/>
  <path class="st0" d="M468.48,405.07v-.07c0-3.78,3.15-5.85,7.74-5.85,2.34,0,3.92.31,5.57.77v-.63c0-3.25-2-4.94-5.39-4.94-2.13,0-3.81.53-5.5,1.33l-.81-2.21c2-.95,3.92-1.5,6.58-1.5s4.52.67,5.85,2c1.23,1.23,1.85,3.01,1.85,5.29v11.06h-2.59v-2.73c-1.26,1.65-3.33,3.12-6.54,3.12s-6.76-1.89-6.76-5.64ZM481.82,403.67v-1.75c-1.37-.39-3.08-.77-5.32-.77-3.4,0-5.29,1.47-5.29,3.75v.07c0,2.28,2.13,3.61,4.55,3.61,3.36,0,6.06-2.03,6.06-4.9Z"/>
  <path class="st0" d="M20.29,443.36v-.07c0-5.15,3.96-9.45,9.28-9.45,3.43,0,5.53,1.4,7.25,3.22l-1.79,1.89c-1.43-1.51-3.01-2.73-5.5-2.73-3.68,0-6.48,3.08-6.48,7v.07c0,3.92,2.87,7.04,6.65,7.04,2.35,0,4.1-1.16,5.53-2.7l1.72,1.61c-1.82,2.07-3.99,3.5-7.39,3.5-5.32,0-9.28-4.31-9.28-9.38Z"/>
  <path class="st0" d="M39.75,443.36v-.07c0-5.15,3.96-9.45,9.45-9.45s9.42,4.27,9.42,9.38v.07c0,5.15-4.03,9.45-9.49,9.45s-9.38-4.27-9.38-9.38ZM55.86,443.36v-.07c0-3.88-2.91-7.07-6.72-7.07s-6.62,3.19-6.62,7v.07c0,3.89,2.87,7.04,6.69,7.04s6.65-3.19,6.65-6.97Z"/>
  <path class="st0" d="M63.48,434.22h2.7v3.15c1.23-1.96,3.08-3.54,6.2-3.54,4.34,0,6.93,2.94,6.93,7.25v11.24h-2.7v-10.57c0-3.36-1.79-5.46-5.01-5.46s-5.43,2.27-5.43,5.67v10.36h-2.7v-18.1Z"/>
  <path class="st0" d="M95.47,427.82h5.81l6.44,10.36,6.44-10.36h5.81v24.5h-5.36v-16l-6.9,10.47h-.14l-6.83-10.36v15.89h-5.29v-24.5Z"/>
  <path class="st0" d="M124.38,443.04v-.07c0-5.39,4.34-9.77,10.19-9.77s10.12,4.27,10.12,9.7v.07c0,5.39-4.34,9.77-10.19,9.77s-10.12-4.27-10.12-9.7ZM139.43,443.04v-.07c0-2.77-2-5.18-4.94-5.18s-4.87,2.31-4.87,5.11v.07c0,2.76,2,5.18,4.94,5.18s4.87-2.31,4.87-5.11Z"/>
  <path class="st0" d="M149.41,447v-8.89h-2.24v-4.55h2.24v-4.8h5.32v4.8h4.41v4.55h-4.41v8.02c0,1.22.56,1.82,1.72,1.82.95,0,1.82-.21,2.63-.67v4.27c-1.12.67-2.42,1.09-4.2,1.09-3.22,0-5.46-1.3-5.46-5.64Z"/>
  <path class="st0" d="M161.62,443.04v-.07c0-5.39,4.34-9.77,10.19-9.77s10.12,4.27,10.12,9.7v.07c0,5.39-4.34,9.77-10.19,9.77s-10.12-4.27-10.12-9.7ZM176.67,443.04v-.07c0-2.77-2-5.18-4.94-5.18s-4.87,2.31-4.87,5.11v.07c0,2.76,2,5.18,4.94,5.18s4.87-2.31,4.87-5.11Z"/>
  <path class="st0" d="M202.54,432.79h-7.46v-4.97h20.3v4.97h-7.46v19.53h-5.39v-19.53Z"/>
  <path class="st0" d="M214.16,446.93v-.07c0-4.06,3.12-5.99,7.56-5.99,1.93,0,3.22.32,4.59.77v-.32c0-2.24-1.36-3.43-4.03-3.43-2.06,0-3.47.35-5.18,1.02l-1.33-4.06c2.07-.88,4.1-1.5,7.28-1.5,2.94,0,4.97.73,6.34,2.1,1.4,1.4,2.03,3.47,2.03,5.99v10.89h-5.15v-2.03c-1.3,1.44-3.05,2.38-5.67,2.38-3.54,0-6.44-2-6.44-5.74ZM226.37,445.7v-.95c-.95-.42-2.1-.7-3.4-.7-2.28,0-3.68.91-3.68,2.59v.07c0,1.44,1.19,2.28,2.91,2.28,2.52,0,4.17-1.33,4.17-3.29Z"/>
  <path class="st0" d="M236.24,426.77h5.32v25.55h-5.32v-25.55Z"/>
  <path class="st0" d="M246.57,426.77h5.32v13.62l6.23-6.83h6.37l-7.14,7.39,7.39,11.38h-6.16l-4.8-7.7-1.89,2v5.71h-5.32v-25.55Z"/>
  <path class="st0" d="M290.11,433.56h5.53l-7.21,19.22c-1.4,3.82-3.01,5.25-6.16,5.25-1.96,0-3.36-.49-4.72-1.3l1.79-3.85c.7.42,1.57.73,2.28.73.94,0,1.4-.28,1.85-1.22l-7.35-18.83h5.63l4.27,12.78,4.1-12.78Z"/>
  <path class="st0" d="M309.84,427.82h5.81l6.44,10.36,6.44-10.36h5.81v24.5h-5.36v-16l-6.9,10.47h-.14l-6.83-10.36v15.89h-5.29v-24.5Z"/>
  <path class="st0" d="M338.75,443.04v-.07c0-5.39,4.34-9.77,10.19-9.77s10.12,4.27,10.12,9.7v.07c0,5.39-4.34,9.77-10.19,9.77s-10.12-4.27-10.12-9.7ZM353.81,443.04v-.07c0-2.77-2-5.18-4.93-5.18s-4.87,2.31-4.87,5.11v.07c0,2.76,2,5.18,4.94,5.18s4.87-2.31,4.87-5.11Z"/>
  <path class="st0" d="M363.78,447v-8.89h-2.24v-4.55h2.24v-4.8h5.32v4.8h4.41v4.55h-4.41v8.02c0,1.22.56,1.82,1.71,1.82.95,0,1.82-.21,2.63-.67v4.27c-1.12.67-2.42,1.09-4.2,1.09-3.22,0-5.46-1.3-5.46-5.64Z"/>
  <path class="st0" d="M375.99,443.04v-.07c0-5.39,4.34-9.77,10.19-9.77s10.12,4.27,10.12,9.7v.07c0,5.39-4.34,9.77-10.19,9.77s-10.12-4.27-10.12-9.7ZM391.05,443.04v-.07c0-2.77-2-5.18-4.94-5.18s-4.87,2.31-4.87,5.11v.07c0,2.76,2,5.18,4.94,5.18s4.87-2.31,4.87-5.11Z"/>
  <path class="st0" d="M411.2,427.82h5.81l6.44,10.36,6.44-10.36h5.81v24.5h-5.36v-16l-6.9,10.47h-.14l-6.83-10.36v15.89h-5.29v-24.5Z"/>
  <path class="st0" d="M441.58,427.82h9.55c7.7,0,13.02,5.29,13.02,12.18v.07c0,6.9-5.32,12.25-13.02,12.25h-9.55v-24.5ZM446.97,432.68v14.77h4.16c4.38,0,7.39-2.98,7.39-7.32v-.07c0-4.34-3.01-7.39-7.39-7.39h-4.16Z"/>
  <path class="st0" d="M468.95,427.82h5.81l6.44,10.36,6.44-10.36h5.81v24.5h-5.36v-16l-6.9,10.47h-.14l-6.83-10.36v15.89h-5.29v-24.5Z"/>
</svg>