<?xml version="1.0" encoding="UTF-8"?>
<svg id="Layer_1" xmlns="http://www.w3.org/2000/svg" version="1.1" viewBox="0 0 527.83 154.78">
  <!-- Generator: Adobe Illustrator 29.7.1, SVG Export Plug-In . SVG Version: 2.1.1 Build 8)  -->
  <defs>
    <style>
      .st0 {
        fill: #fff;
      }
    </style>
  </defs>
  <path class="st0" d="M40.02,59.14v-.11c0-6.73,4.82-9.75,10.71-10.7l.53-4.24h4.29l1.06,8.58-.26.27c-6.78.21-9.75,2.33-9.75,5.88v.11c0,2.97,2.23,5.03,6.04,5.03,3.39,0,6.09-1.48,8.64-4.19l3.97,4.24c-3.13,3.55-7.05,5.88-12.77,5.88-7.42,0-12.45-4.13-12.45-10.76ZM49.98,32.32h7.1v7.31h-7.1v-7.31Z"/>
  <path class="st0" d="M103.67,70.53l-4.45-3.97c-3.18,2.28-7,3.5-11.29,3.5-11.39,0-19.34-8.64-19.34-19.08v-.11c0-10.39,8.05-19.18,19.45-19.18s19.34,8.64,19.34,19.08v.11c0,4.24-1.38,8.16-3.76,11.39l4.24,3.6-4.19,4.66ZM94.39,62.37l-6.36-5.51,4.19-4.77,6.52,5.94c1.22-2.07,1.8-4.45,1.8-7.05v-.11c0-7.21-5.19-13.14-12.61-13.14s-12.51,5.83-12.51,13.04v.11c0,7.21,5.19,13.14,12.61,13.14,2.38,0,4.5-.53,6.36-1.64Z"/>
  <path class="st0" d="M114.22,59.24v-17.81h6.41v15.9c0,4.4,2.17,6.78,5.99,6.78s6.31-2.49,6.31-6.89v-15.79h6.47v27.98h-6.47v-4.35c-1.85,2.7-4.45,4.93-8.74,4.93-6.36,0-9.96-4.19-9.96-10.76Z"/>
  <path class="st0" d="M147.5,31.05h6.89v6.09h-6.89v-6.09ZM147.71,41.44h6.46v27.98h-6.46v-27.98Z"/>
  <path class="st0" d="M161.02,55.53v-.11c0-8.06,5.67-14.57,13.67-14.57,8.9,0,13.41,7,13.41,15.05,0,.58-.05,1.17-.11,1.8h-20.56c.69,4.61,3.87,7.1,8.05,7.1,3.18,0,5.3-1.17,7.58-3.34l3.76,3.34c-2.7,3.18-6.31,5.25-11.45,5.25-8.05,0-14.36-5.88-14.36-14.52ZM181.74,53.47c-.42-4.08-2.86-7.37-7.1-7.37-3.97,0-6.68,2.97-7.26,7.37h14.36Z"/>
  <path class="st0" d="M194.51,41.44h6.46v6.31c1.75-4.24,4.98-7.05,9.91-6.84v6.78h-.37c-5.67,0-9.54,3.66-9.54,11.08v10.65h-6.46v-27.98Z"/>
  <path class="st0" d="M213.96,55.53v-.11c0-8.06,5.67-14.57,13.67-14.57,8.9,0,13.41,7,13.41,15.05,0,.58-.05,1.17-.11,1.8h-20.56c.69,4.61,3.87,7.1,8.05,7.1,3.18,0,5.3-1.17,7.58-3.34l3.76,3.34c-2.7,3.18-6.31,5.25-11.45,5.25-8.05,0-14.36-5.88-14.36-14.52ZM234.68,53.47c-.42-4.08-2.86-7.37-7.1-7.37-3.97,0-6.68,2.97-7.26,7.37h14.36Z"/>
  <path class="st0" d="M245.23,65.76l2.86-4.35c3.13,2.28,6.25,3.44,9.17,3.44,2.76,0,4.35-1.17,4.35-3.02v-.11c0-2.12-2.97-2.91-6.25-3.92-4.08-1.11-8.74-2.86-8.74-8.16v-.11c0-5.35,4.4-8.58,9.96-8.58,3.55,0,7.31,1.22,10.28,3.18l-2.54,4.56c-2.7-1.64-5.56-2.65-7.9-2.65-2.49,0-3.92,1.22-3.92,2.76v.11c0,2.01,3.02,2.97,6.31,3.97,4.03,1.27,8.69,3.13,8.69,8.16v.11c0,5.88-4.56,8.8-10.39,8.8-4.03,0-8.32-1.38-11.87-4.19Z"/>
  <path class="st0" d="M289.91,41.44h6.46v4.66c2.07-2.91,4.93-5.25,9.54-5.25,6.57,0,12.98,5.19,12.98,14.52v.11c0,9.33-6.36,14.52-12.98,14.52-4.66,0-7.58-2.33-9.54-4.93v12.82h-6.46v-36.46ZM312.38,55.48v-.11c0-5.41-3.71-8.96-8-8.96s-8.16,3.6-8.16,8.96v.11c0,5.35,3.76,8.96,8.16,8.96s8-3.44,8-8.96Z"/>
  <path class="st0" d="M323.99,55.58v-.11c0-8,6.36-14.63,14.94-14.63s14.89,6.52,14.89,14.52v.11c0,7.9-6.36,14.57-15,14.57s-14.84-6.52-14.84-14.47ZM347.41,55.58v-.11c0-4.93-3.55-9.01-8.58-9.01s-8.43,4.03-8.43,8.9v.11c0,4.88,3.6,8.96,8.53,8.96,5.25,0,8.48-4.03,8.48-8.85Z"/>
  <path class="st0" d="M360.29,41.44h6.46v4.29c1.86-2.6,4.35-4.88,8.74-4.88,6.36,0,9.96,4.19,9.96,10.7v17.86h-6.41v-15.9c0-4.4-2.17-6.84-5.99-6.84s-6.31,2.54-6.31,6.94v15.79h-6.46v-27.98Z"/>
  <path class="st0" d="M391.67,55.53v-.11c0-8.06,5.67-14.57,13.67-14.57,8.9,0,13.41,7,13.41,15.05,0,.58-.05,1.17-.11,1.8h-20.56c.69,4.61,3.87,7.1,8.05,7.1,3.18,0,5.3-1.17,7.58-3.34l3.76,3.34c-2.7,3.18-6.31,5.25-11.45,5.25-8.05,0-14.36-5.88-14.36-14.52ZM412.39,53.47c-.42-4.08-2.86-7.37-7.1-7.37-3.97,0-6.68,2.97-7.26,7.37h14.36Z"/>
  <path class="st0" d="M425.17,41.44h6.46v6.31c1.75-4.24,4.98-7.05,9.91-6.84v6.78h-.37c-5.67,0-9.54,3.66-9.54,11.08v10.65h-6.46v-27.98Z"/>
  <path class="st0" d="M447.43,30.73h6.46v38.69h-6.46V30.73Z"/>
  <path class="st0" d="M460.73,55.53v-.11c0-8.06,5.67-14.57,13.67-14.57,8.9,0,13.41,7,13.41,15.05,0,.58-.05,1.17-.11,1.8h-20.56c.69,4.61,3.87,7.1,8.05,7.1,3.18,0,5.3-1.17,7.58-3.34l3.76,3.34c-2.7,3.18-6.31,5.25-11.45,5.25-8.05,0-14.36-5.88-14.36-14.52ZM481.45,53.47c-.42-4.08-2.86-7.37-7.1-7.37-3.97,0-6.68,2.97-7.26,7.37h14.36Z"/>
  <path class="st0" d="M51.15,109.58v-.11c0-7.95,6.15-14.63,14.57-14.63,5.25,0,8.48,1.96,11.18,4.82l-4.03,4.29c-1.96-2.07-4.03-3.5-7.21-3.5-4.66,0-8.11,4.03-8.11,8.9v.11c0,4.98,3.44,8.96,8.37,8.96,3.02,0,5.19-1.38,7.26-3.44l3.87,3.82c-2.75,3.13-5.99,5.25-11.45,5.25-8.32,0-14.47-6.52-14.47-14.47Z"/>
  <path class="st0" d="M81.04,115.36v-.11c0-6.09,4.77-9.01,11.61-9.01,3.18,0,5.35.48,7.53,1.17v-.69c0-4.03-2.44-6.09-6.94-6.09-3.18,0-5.46.69-8,1.75l-1.75-5.03c3.13-1.33,6.15-2.28,10.6-2.28,4.19,0,7.26,1.06,9.27,3.13,2.07,2.07,3.02,4.98,3.02,8.64v16.59h-6.25v-3.5c-1.91,2.28-4.82,4.08-9.11,4.08-5.25,0-9.96-2.97-9.96-8.64ZM100.28,113.35v-1.91c-1.64-.64-3.82-1.11-6.36-1.11-4.19,0-6.57,1.7-6.57,4.66v.11c0,2.7,2.33,4.24,5.46,4.24,4.24,0,7.47-2.38,7.47-5.99Z"/>
  <path class="st0" d="M114,95.44h6.46v6.31c1.75-4.24,4.98-7.05,9.91-6.84v6.78h-.37c-5.67,0-9.54,3.66-9.54,11.08v10.65h-6.46v-27.98Z"/>
  <path class="st0" d="M132.71,115.36v-.11c0-6.09,4.77-9.01,11.61-9.01,3.18,0,5.35.48,7.53,1.17v-.69c0-4.03-2.44-6.09-6.94-6.09-3.18,0-5.46.69-8,1.75l-1.75-5.03c3.13-1.33,6.15-2.28,10.6-2.28,4.19,0,7.26,1.06,9.27,3.13,2.07,2.07,3.02,4.98,3.02,8.64v16.59h-6.25v-3.5c-1.91,2.28-4.82,4.08-9.11,4.08-5.25,0-9.96-2.97-9.96-8.64ZM151.95,113.35v-1.91c-1.64-.64-3.82-1.11-6.36-1.11-4.19,0-6.57,1.7-6.57,4.66v.11c0,2.7,2.33,4.24,5.46,4.24,4.24,0,7.47-2.38,7.47-5.99Z"/>
  <path class="st0" d="M179.72,115.36v-.11c0-6.09,4.77-9.01,11.61-9.01,3.18,0,5.35.48,7.53,1.17v-.69c0-4.03-2.44-6.09-6.94-6.09-3.18,0-5.46.69-8,1.75l-1.75-5.03c3.13-1.33,6.15-2.28,10.6-2.28,4.19,0,7.26,1.06,9.27,3.13,2.07,2.07,3.02,4.98,3.02,8.64v16.59h-6.25v-3.5c-1.91,2.28-4.82,4.08-9.11,4.08-5.25,0-9.96-2.97-9.96-8.64ZM198.96,113.35v-1.91c-1.64-.64-3.82-1.11-6.36-1.11-4.19,0-6.57,1.7-6.57,4.66v.11c0,2.7,2.33,4.24,5.46,4.24,4.24,0,7.47-2.38,7.47-5.99Z"/>
  <path class="st0" d="M229.97,115.68v-14.73h-3.55v-5.51h3.55v-7.68h6.41v7.68h7.53v5.51h-7.53v13.73c0,2.49,1.27,3.5,3.44,3.5,1.38,0,2.7-.32,3.97-.95v5.25c-1.64.9-3.29,1.43-5.78,1.43-4.72,0-8.05-2.07-8.05-8.21Z"/>
  <path class="st0" d="M250.11,113.24v-17.81h6.41v15.9c0,4.4,2.17,6.78,5.99,6.78s6.31-2.49,6.31-6.89v-15.79h6.47v27.98h-6.47v-4.35c-1.85,2.7-4.45,4.93-8.74,4.93-6.36,0-9.96-4.19-9.96-10.76Z"/>
  <path class="st0" d="M298.28,104.97v-.11c0-10.39,7.9-19.18,19.13-19.18,6.41,0,10.44,1.8,14.25,5.03l-4.13,4.93c-2.86-2.44-5.72-3.92-10.39-3.92-6.78,0-12.03,5.94-12.03,13.04v.11c0,7.63,5.03,13.25,12.61,13.25,3.55,0,6.68-1.11,8.96-2.81v-6.89h-9.49v-5.72h15.79v15.58c-3.71,3.13-8.9,5.78-15.47,5.78-11.61,0-19.24-8.27-19.24-19.08Z"/>
  <path class="st0" d="M339.83,104.97v-.11c0-10.39,8.05-19.18,19.45-19.18s19.34,8.64,19.34,19.08v.11c0,10.39-8.05,19.18-19.45,19.18s-19.34-8.64-19.34-19.08ZM371.79,104.97v-.11c0-7.21-5.19-13.14-12.61-13.14s-12.51,5.83-12.51,13.04v.11c0,7.21,5.19,13.14,12.61,13.14s12.51-5.83,12.51-13.04Z"/>
  <path class="st0" d="M397.34,86.06h6.04l16.32,37.36h-6.89l-3.76-8.96h-17.54l-3.82,8.96h-6.68l16.32-37.36ZM406.66,108.68l-6.41-14.84-6.36,14.84h12.77Z"/>
  <path class="st0" d="M430.41,92.36h-11.82v-6.04h30.15v6.04h-11.82v31.05h-6.52v-31.05Z"/>
  <path class="st0" d="M460.67,103.07l.26-.27c6.78-.21,9.75-2.33,9.75-5.88v-.11c0-2.97-2.23-5.03-6.04-5.03-3.39,0-6.09,1.48-8.64,4.19l-3.97-4.24c3.13-3.55,7.05-5.88,12.77-5.88,7.42,0,12.45,4.13,12.45,10.76v.11c0,6.73-4.82,9.75-10.71,10.71l-.53,4.24h-4.29l-1.06-8.58ZM460.2,116.1h7.1v7.31h-7.1v-7.31Z"/>
</svg>